G04 #@! TF.FileFunction,Copper,L2,Bot,Signal*
%FSLAX46Y46*%
G04 Gerber Fmt 4.6, Leading zero omitted, Abs format (unit mm)*
G04 Created by KiCad (PCBNEW 4.0.2-stable) date 4/27/2016 2:04:58 PM*
%MOMM*%
G01*
G04 APERTURE LIST*
%ADD10C,0.100000*%
%ADD11C,3.000000*%
%ADD12R,1.727200X2.032000*%
%ADD13O,1.727200X2.032000*%
%ADD14R,1.350000X1.350000*%
%ADD15C,1.350000*%
%ADD16C,2.400000*%
%ADD17R,2.400000X2.400000*%
%ADD18C,2.000000*%
%ADD19C,1.500000*%
%ADD20C,0.762000*%
%ADD21C,0.254000*%
G04 APERTURE END LIST*
D10*
D11*
X91694000Y-107188000D03*
X114194000Y-107188000D03*
X29972000Y-107188000D03*
X52472000Y-107188000D03*
X96012000Y-91440000D03*
X118512000Y-91440000D03*
X32258000Y-90932000D03*
X54758000Y-90932000D03*
X185928000Y-78232000D03*
X185928000Y-100732000D03*
X175514000Y-78232000D03*
X175514000Y-100732000D03*
X147574000Y-91440000D03*
X125074000Y-91440000D03*
X81788000Y-90932000D03*
X59288000Y-90932000D03*
X149352000Y-107442000D03*
X126852000Y-107442000D03*
X87122000Y-107442000D03*
X64622000Y-107442000D03*
X252476000Y-86868000D03*
X252476000Y-109368000D03*
X195580000Y-114300000D03*
X195580000Y-136800000D03*
X162052000Y-115062000D03*
X162052000Y-137562000D03*
X179578000Y-114808000D03*
X179578000Y-137308000D03*
X236220000Y-86614000D03*
X236220000Y-109114000D03*
X220472000Y-86868000D03*
X220472000Y-109368000D03*
X199136000Y-157734000D03*
X176636000Y-157734000D03*
X199517000Y-177419000D03*
X177017000Y-177419000D03*
X29972000Y-114300000D03*
X52472000Y-114300000D03*
X91694000Y-114046000D03*
X114194000Y-114046000D03*
X32004000Y-98298000D03*
X54504000Y-98298000D03*
X96012000Y-98298000D03*
X118512000Y-98298000D03*
X192786000Y-78232000D03*
X192786000Y-100732000D03*
X168656000Y-78232000D03*
X168656000Y-100732000D03*
X147574000Y-98298000D03*
X125074000Y-98298000D03*
X81534000Y-98044000D03*
X59034000Y-98044000D03*
X149352000Y-114300000D03*
X126852000Y-114300000D03*
X87376000Y-114300000D03*
X64876000Y-114300000D03*
X155194000Y-115062000D03*
X155194000Y-137562000D03*
X245364000Y-86868000D03*
X245364000Y-109368000D03*
X188468000Y-114300000D03*
X188468000Y-136800000D03*
X172720000Y-114554000D03*
X172720000Y-137054000D03*
X229362000Y-86614000D03*
X229362000Y-109114000D03*
X213868000Y-86868000D03*
X213868000Y-109368000D03*
X199390000Y-164592000D03*
X176890000Y-164592000D03*
X199517000Y-184277000D03*
X177017000Y-184277000D03*
X18822000Y-31898000D03*
X22622000Y-31898000D03*
X22622000Y-19198000D03*
X18822000Y-19198000D03*
X30734000Y-19496000D03*
X30734000Y-31496000D03*
X30734000Y-27496000D03*
X30734000Y-23496000D03*
D12*
X203708000Y-101854000D03*
D13*
X201168000Y-101854000D03*
X198628000Y-101854000D03*
D12*
X164592000Y-102362000D03*
D13*
X162052000Y-102362000D03*
X159512000Y-102362000D03*
D12*
X123444000Y-117094000D03*
D13*
X120904000Y-117094000D03*
X118364000Y-117094000D03*
D12*
X60960000Y-117348000D03*
D13*
X58420000Y-117348000D03*
X55880000Y-117348000D03*
D12*
X164592000Y-105664000D03*
D13*
X162052000Y-105664000D03*
X159512000Y-105664000D03*
D12*
X203708000Y-104902000D03*
D13*
X201168000Y-104902000D03*
X198628000Y-104902000D03*
D12*
X123444000Y-120650000D03*
D13*
X120904000Y-120650000D03*
X118364000Y-120650000D03*
D12*
X60960000Y-120650000D03*
D13*
X58420000Y-120650000D03*
X55880000Y-120650000D03*
D14*
X247650000Y-117856000D03*
D15*
X247650000Y-115856000D03*
X247650000Y-113856000D03*
D14*
X182372000Y-145288000D03*
D15*
X182372000Y-143288000D03*
X182372000Y-141288000D03*
D14*
X213360000Y-120142000D03*
D15*
X213360000Y-118142000D03*
X213360000Y-116142000D03*
D14*
X146812000Y-145288000D03*
D15*
X146812000Y-143288000D03*
X146812000Y-141288000D03*
D14*
X230632000Y-117856000D03*
D15*
X230632000Y-115856000D03*
X230632000Y-113856000D03*
D14*
X165100000Y-145542000D03*
D15*
X165100000Y-143542000D03*
X165100000Y-141542000D03*
D16*
X219060000Y-20066000D03*
X215560000Y-20066000D03*
X222560000Y-20066000D03*
D17*
X226060000Y-20066000D03*
D16*
X121524000Y-20066000D03*
X118024000Y-20066000D03*
X125024000Y-20066000D03*
D17*
X128524000Y-20066000D03*
D16*
X50404000Y-20320000D03*
X46904000Y-20320000D03*
X53904000Y-20320000D03*
D17*
X57404000Y-20320000D03*
D16*
X50150000Y-14478000D03*
X46650000Y-14478000D03*
X53650000Y-14478000D03*
D17*
X57150000Y-14478000D03*
D16*
X121524000Y-14224000D03*
X118024000Y-14224000D03*
X125024000Y-14224000D03*
D17*
X128524000Y-14224000D03*
D16*
X219060000Y-14478000D03*
X215560000Y-14478000D03*
X222560000Y-14478000D03*
D17*
X226060000Y-14478000D03*
D14*
X210566000Y-120142000D03*
D15*
X210566000Y-118142000D03*
X210566000Y-116142000D03*
D14*
X227838000Y-117856000D03*
D15*
X227838000Y-115856000D03*
X227838000Y-113856000D03*
D14*
X162560000Y-145542000D03*
D15*
X162560000Y-143542000D03*
X162560000Y-141542000D03*
D14*
X245110000Y-117856000D03*
D15*
X245110000Y-115856000D03*
X245110000Y-113856000D03*
D14*
X179832000Y-145288000D03*
D15*
X179832000Y-143288000D03*
X179832000Y-141288000D03*
D14*
X144272000Y-145288000D03*
D15*
X144272000Y-143288000D03*
X144272000Y-141288000D03*
D18*
X110236000Y-166624000D03*
X85852000Y-157988000D03*
X218948000Y-147574000D03*
X243332000Y-171958000D03*
X171450000Y-70358000D03*
X36068000Y-17272000D03*
X18288000Y-59944000D03*
X38354000Y-74168000D03*
X59690000Y-74422000D03*
X78486000Y-72390000D03*
X96774000Y-72136000D03*
X114300000Y-72644000D03*
X134366000Y-73152000D03*
X151130000Y-73406000D03*
X199136000Y-83566000D03*
X124968000Y-156210000D03*
X75184000Y-145288000D03*
X262890000Y-131572000D03*
X230854000Y-30448000D03*
D19*
X172466000Y-73660000D02*
X172212000Y-73914000D01*
D20*
X230124000Y-31242000D02*
X230886000Y-30480000D01*
X230060000Y-31242000D02*
X230124000Y-31242000D01*
X230854000Y-30448000D02*
X230060000Y-31242000D01*
D21*
G36*
X45611914Y-12921455D02*
X45095270Y-13437199D01*
X44815319Y-14111395D01*
X44814682Y-14841403D01*
X45093455Y-15516086D01*
X45609199Y-16032730D01*
X46283395Y-16312681D01*
X47013403Y-16313318D01*
X47688086Y-16034545D01*
X48204730Y-15518801D01*
X48400135Y-15048215D01*
X48593455Y-15516086D01*
X49109199Y-16032730D01*
X49783395Y-16312681D01*
X50513403Y-16313318D01*
X51188086Y-16034545D01*
X51704730Y-15518801D01*
X51900135Y-15048215D01*
X52093455Y-15516086D01*
X52609199Y-16032730D01*
X53283395Y-16312681D01*
X54013403Y-16313318D01*
X54688086Y-16034545D01*
X55204730Y-15518801D01*
X55302560Y-15283201D01*
X55302560Y-15678000D01*
X55346838Y-15913317D01*
X55485910Y-16129441D01*
X55698110Y-16274431D01*
X55950000Y-16325440D01*
X58350000Y-16325440D01*
X58585317Y-16281162D01*
X58801441Y-16142090D01*
X58946431Y-15929890D01*
X58997440Y-15678000D01*
X58997440Y-13278000D01*
X58953162Y-13042683D01*
X58862635Y-12902000D01*
X116750960Y-12902000D01*
X116469270Y-13183199D01*
X116189319Y-13857395D01*
X116188682Y-14587403D01*
X116467455Y-15262086D01*
X116983199Y-15778730D01*
X117657395Y-16058681D01*
X118387403Y-16059318D01*
X119062086Y-15780545D01*
X119578730Y-15264801D01*
X119774135Y-14794215D01*
X119967455Y-15262086D01*
X120483199Y-15778730D01*
X121157395Y-16058681D01*
X121887403Y-16059318D01*
X122562086Y-15780545D01*
X123078730Y-15264801D01*
X123274135Y-14794215D01*
X123467455Y-15262086D01*
X123983199Y-15778730D01*
X124657395Y-16058681D01*
X125387403Y-16059318D01*
X126062086Y-15780545D01*
X126578730Y-15264801D01*
X126676560Y-15029201D01*
X126676560Y-15424000D01*
X126720838Y-15659317D01*
X126859910Y-15875441D01*
X127072110Y-16020431D01*
X127324000Y-16071440D01*
X129724000Y-16071440D01*
X129959317Y-16027162D01*
X130175441Y-15888090D01*
X130320431Y-15675890D01*
X130371440Y-15424000D01*
X130371440Y-13024000D01*
X130348484Y-12902000D01*
X214568999Y-12902000D01*
X214521914Y-12921455D01*
X214005270Y-13437199D01*
X213725319Y-14111395D01*
X213724682Y-14841403D01*
X214003455Y-15516086D01*
X214519199Y-16032730D01*
X215193395Y-16312681D01*
X215923403Y-16313318D01*
X216598086Y-16034545D01*
X217114730Y-15518801D01*
X217310135Y-15048215D01*
X217503455Y-15516086D01*
X218019199Y-16032730D01*
X218693395Y-16312681D01*
X219423403Y-16313318D01*
X220098086Y-16034545D01*
X220614730Y-15518801D01*
X220810135Y-15048215D01*
X221003455Y-15516086D01*
X221519199Y-16032730D01*
X222193395Y-16312681D01*
X222923403Y-16313318D01*
X223598086Y-16034545D01*
X224114730Y-15518801D01*
X224212560Y-15283201D01*
X224212560Y-15678000D01*
X224256838Y-15913317D01*
X224395910Y-16129441D01*
X224608110Y-16274431D01*
X224860000Y-16325440D01*
X227260000Y-16325440D01*
X227495317Y-16281162D01*
X227711441Y-16142090D01*
X227856431Y-15929890D01*
X227907440Y-15678000D01*
X227907440Y-13278000D01*
X227863162Y-13042683D01*
X227772635Y-12902000D01*
X265990000Y-12902000D01*
X265990000Y-188266000D01*
X12902000Y-188266000D01*
X12902000Y-184699815D01*
X174881630Y-184699815D01*
X175205980Y-185484800D01*
X175806041Y-186085909D01*
X176590459Y-186411628D01*
X177439815Y-186412370D01*
X178224800Y-186088020D01*
X178825909Y-185487959D01*
X179151628Y-184703541D01*
X179151631Y-184699815D01*
X197381630Y-184699815D01*
X197705980Y-185484800D01*
X198306041Y-186085909D01*
X199090459Y-186411628D01*
X199939815Y-186412370D01*
X200724800Y-186088020D01*
X201325909Y-185487959D01*
X201651628Y-184703541D01*
X201652370Y-183854185D01*
X201424548Y-183302815D01*
X259230630Y-183302815D01*
X259554980Y-184087800D01*
X260155041Y-184688909D01*
X260939459Y-185014628D01*
X261788815Y-185015370D01*
X262573800Y-184691020D01*
X263174909Y-184090959D01*
X263500628Y-183306541D01*
X263501370Y-182457185D01*
X263177020Y-181672200D01*
X262576959Y-181071091D01*
X261792541Y-180745372D01*
X260943185Y-180744630D01*
X260158200Y-181068980D01*
X259557091Y-181669041D01*
X259231372Y-182453459D01*
X259230630Y-183302815D01*
X201424548Y-183302815D01*
X201328020Y-183069200D01*
X200727959Y-182468091D01*
X199943541Y-182142372D01*
X199094185Y-182141630D01*
X198309200Y-182465980D01*
X197708091Y-183066041D01*
X197382372Y-183850459D01*
X197381630Y-184699815D01*
X179151631Y-184699815D01*
X179152370Y-183854185D01*
X178828020Y-183069200D01*
X178227959Y-182468091D01*
X177443541Y-182142372D01*
X176594185Y-182141630D01*
X175809200Y-182465980D01*
X175208091Y-183066041D01*
X174882372Y-183850459D01*
X174881630Y-184699815D01*
X12902000Y-184699815D01*
X12902000Y-182286815D01*
X15644630Y-182286815D01*
X15968980Y-183071800D01*
X16569041Y-183672909D01*
X17353459Y-183998628D01*
X18202815Y-183999370D01*
X18987800Y-183675020D01*
X19588909Y-183074959D01*
X19914628Y-182290541D01*
X19915370Y-181441185D01*
X19591020Y-180656200D01*
X18990959Y-180055091D01*
X18206541Y-179729372D01*
X17357185Y-179728630D01*
X16572200Y-180052980D01*
X15971091Y-180653041D01*
X15645372Y-181437459D01*
X15644630Y-182286815D01*
X12902000Y-182286815D01*
X12902000Y-177841815D01*
X174881630Y-177841815D01*
X175205980Y-178626800D01*
X175806041Y-179227909D01*
X176590459Y-179553628D01*
X177439815Y-179554370D01*
X178224800Y-179230020D01*
X178825909Y-178629959D01*
X179151628Y-177845541D01*
X179151657Y-177812109D01*
X186281657Y-177812109D01*
X186583218Y-178541943D01*
X187141120Y-179100819D01*
X187870427Y-179403654D01*
X188660109Y-179404343D01*
X189389943Y-179102782D01*
X189948819Y-178544880D01*
X190240757Y-177841815D01*
X197381630Y-177841815D01*
X197705980Y-178626800D01*
X198306041Y-179227909D01*
X199090459Y-179553628D01*
X199939815Y-179554370D01*
X200724800Y-179230020D01*
X201325909Y-178629959D01*
X201651628Y-177845541D01*
X201652370Y-176996185D01*
X201328020Y-176211200D01*
X200727959Y-175610091D01*
X199943541Y-175284372D01*
X199094185Y-175283630D01*
X198309200Y-175607980D01*
X197708091Y-176208041D01*
X197382372Y-176992459D01*
X197381630Y-177841815D01*
X190240757Y-177841815D01*
X190251654Y-177815573D01*
X190252343Y-177025891D01*
X189950782Y-176296057D01*
X189392880Y-175737181D01*
X188663573Y-175434346D01*
X187873891Y-175433657D01*
X187144057Y-175735218D01*
X186585181Y-176293120D01*
X186282346Y-177022427D01*
X186281657Y-177812109D01*
X179151657Y-177812109D01*
X179152370Y-176996185D01*
X178828020Y-176211200D01*
X178227959Y-175610091D01*
X177443541Y-175284372D01*
X176594185Y-175283630D01*
X175809200Y-175607980D01*
X175208091Y-176208041D01*
X174882372Y-176992459D01*
X174881630Y-177841815D01*
X12902000Y-177841815D01*
X12902000Y-165014815D01*
X174754630Y-165014815D01*
X175078980Y-165799800D01*
X175679041Y-166400909D01*
X176463459Y-166726628D01*
X177312815Y-166727370D01*
X178097800Y-166403020D01*
X178698909Y-165802959D01*
X179024628Y-165018541D01*
X179024631Y-165014815D01*
X197254630Y-165014815D01*
X197578980Y-165799800D01*
X198179041Y-166400909D01*
X198963459Y-166726628D01*
X199812815Y-166727370D01*
X200597800Y-166403020D01*
X201198909Y-165802959D01*
X201524628Y-165018541D01*
X201525370Y-164169185D01*
X201201020Y-163384200D01*
X200600959Y-162783091D01*
X199816541Y-162457372D01*
X198967185Y-162456630D01*
X198182200Y-162780980D01*
X197581091Y-163381041D01*
X197255372Y-164165459D01*
X197254630Y-165014815D01*
X179024631Y-165014815D01*
X179025370Y-164169185D01*
X178701020Y-163384200D01*
X178100959Y-162783091D01*
X177316541Y-162457372D01*
X176467185Y-162456630D01*
X175682200Y-162780980D01*
X175081091Y-163381041D01*
X174755372Y-164165459D01*
X174754630Y-165014815D01*
X12902000Y-165014815D01*
X12902000Y-158156815D01*
X174500630Y-158156815D01*
X174824980Y-158941800D01*
X175425041Y-159542909D01*
X176209459Y-159868628D01*
X177058815Y-159869370D01*
X177843800Y-159545020D01*
X178444909Y-158944959D01*
X178770628Y-158160541D01*
X178770657Y-158127109D01*
X185900657Y-158127109D01*
X186202218Y-158856943D01*
X186760120Y-159415819D01*
X187489427Y-159718654D01*
X188279109Y-159719343D01*
X189008943Y-159417782D01*
X189567819Y-158859880D01*
X189859757Y-158156815D01*
X197000630Y-158156815D01*
X197324980Y-158941800D01*
X197925041Y-159542909D01*
X198709459Y-159868628D01*
X199558815Y-159869370D01*
X200343800Y-159545020D01*
X200944909Y-158944959D01*
X201270628Y-158160541D01*
X201271370Y-157311185D01*
X200947020Y-156526200D01*
X200346959Y-155925091D01*
X199562541Y-155599372D01*
X198713185Y-155598630D01*
X197928200Y-155922980D01*
X197327091Y-156523041D01*
X197001372Y-157307459D01*
X197000630Y-158156815D01*
X189859757Y-158156815D01*
X189870654Y-158130573D01*
X189871343Y-157340891D01*
X189569782Y-156611057D01*
X189011880Y-156052181D01*
X188282573Y-155749346D01*
X187492891Y-155748657D01*
X186763057Y-156050218D01*
X186204181Y-156608120D01*
X185901346Y-157337427D01*
X185900657Y-158127109D01*
X178770657Y-158127109D01*
X178771370Y-157311185D01*
X178447020Y-156526200D01*
X177846959Y-155925091D01*
X177062541Y-155599372D01*
X176213185Y-155598630D01*
X175428200Y-155922980D01*
X174827091Y-156523041D01*
X174501372Y-157307459D01*
X174500630Y-158156815D01*
X12902000Y-158156815D01*
X12902000Y-144613000D01*
X142949560Y-144613000D01*
X142949560Y-145963000D01*
X142993838Y-146198317D01*
X143132910Y-146414441D01*
X143345110Y-146559431D01*
X143597000Y-146610440D01*
X144947000Y-146610440D01*
X145182317Y-146566162D01*
X145398441Y-146427090D01*
X145543431Y-146214890D01*
X145543687Y-146213624D01*
X145672910Y-146414441D01*
X145885110Y-146559431D01*
X146137000Y-146610440D01*
X147487000Y-146610440D01*
X147722317Y-146566162D01*
X147938441Y-146427090D01*
X148083431Y-146214890D01*
X148134440Y-145963000D01*
X148134440Y-144867000D01*
X161237560Y-144867000D01*
X161237560Y-146217000D01*
X161281838Y-146452317D01*
X161420910Y-146668441D01*
X161633110Y-146813431D01*
X161885000Y-146864440D01*
X163235000Y-146864440D01*
X163470317Y-146820162D01*
X163686441Y-146681090D01*
X163831431Y-146468890D01*
X163831687Y-146467624D01*
X163960910Y-146668441D01*
X164173110Y-146813431D01*
X164425000Y-146864440D01*
X165775000Y-146864440D01*
X166010317Y-146820162D01*
X166226441Y-146681090D01*
X166371431Y-146468890D01*
X166422440Y-146217000D01*
X166422440Y-144867000D01*
X166378162Y-144631683D01*
X166366140Y-144613000D01*
X178509560Y-144613000D01*
X178509560Y-145963000D01*
X178553838Y-146198317D01*
X178692910Y-146414441D01*
X178905110Y-146559431D01*
X179157000Y-146610440D01*
X180507000Y-146610440D01*
X180742317Y-146566162D01*
X180958441Y-146427090D01*
X181103431Y-146214890D01*
X181103687Y-146213624D01*
X181232910Y-146414441D01*
X181445110Y-146559431D01*
X181697000Y-146610440D01*
X183047000Y-146610440D01*
X183282317Y-146566162D01*
X183498441Y-146427090D01*
X183643431Y-146214890D01*
X183694440Y-145963000D01*
X183694440Y-144613000D01*
X183650162Y-144377683D01*
X183511090Y-144161559D01*
X183416142Y-144096684D01*
X183481916Y-144031024D01*
X183681772Y-143549718D01*
X183682226Y-143028568D01*
X183483211Y-142546914D01*
X183115024Y-142178084D01*
X183059369Y-142154974D01*
X182372000Y-141467605D01*
X181685279Y-142154326D01*
X181630914Y-142176789D01*
X181262084Y-142544976D01*
X181101852Y-142930856D01*
X180943211Y-142546914D01*
X180575024Y-142178084D01*
X180519369Y-142154974D01*
X179832000Y-141467605D01*
X179145279Y-142154326D01*
X179090914Y-142176789D01*
X178722084Y-142544976D01*
X178522228Y-143026282D01*
X178521774Y-143547432D01*
X178720789Y-144029086D01*
X178787663Y-144096077D01*
X178705559Y-144148910D01*
X178560569Y-144361110D01*
X178509560Y-144613000D01*
X166366140Y-144613000D01*
X166239090Y-144415559D01*
X166144142Y-144350684D01*
X166209916Y-144285024D01*
X166409772Y-143803718D01*
X166410226Y-143282568D01*
X166211211Y-142800914D01*
X165843024Y-142432084D01*
X165787369Y-142408974D01*
X165100000Y-141721605D01*
X164413279Y-142408326D01*
X164358914Y-142430789D01*
X163990084Y-142798976D01*
X163829852Y-143184856D01*
X163671211Y-142800914D01*
X163303024Y-142432084D01*
X163247369Y-142408974D01*
X162560000Y-141721605D01*
X161873279Y-142408326D01*
X161818914Y-142430789D01*
X161450084Y-142798976D01*
X161250228Y-143280282D01*
X161249774Y-143801432D01*
X161448789Y-144283086D01*
X161515663Y-144350077D01*
X161433559Y-144402910D01*
X161288569Y-144615110D01*
X161237560Y-144867000D01*
X148134440Y-144867000D01*
X148134440Y-144613000D01*
X148090162Y-144377683D01*
X147951090Y-144161559D01*
X147856142Y-144096684D01*
X147921916Y-144031024D01*
X148121772Y-143549718D01*
X148122226Y-143028568D01*
X147923211Y-142546914D01*
X147555024Y-142178084D01*
X147499369Y-142154974D01*
X146812000Y-141467605D01*
X146125279Y-142154326D01*
X146070914Y-142176789D01*
X145702084Y-142544976D01*
X145541852Y-142930856D01*
X145383211Y-142546914D01*
X145015024Y-142178084D01*
X144959369Y-142154974D01*
X144272000Y-141467605D01*
X143585279Y-142154326D01*
X143530914Y-142176789D01*
X143162084Y-142544976D01*
X142962228Y-143026282D01*
X142961774Y-143547432D01*
X143160789Y-144029086D01*
X143227663Y-144096077D01*
X143145559Y-144148910D01*
X143000569Y-144361110D01*
X142949560Y-144613000D01*
X12902000Y-144613000D01*
X12902000Y-141101100D01*
X142949478Y-141101100D01*
X142978625Y-141621434D01*
X143121672Y-141966781D01*
X143354853Y-142025542D01*
X144092395Y-141288000D01*
X144451605Y-141288000D01*
X145189147Y-142025542D01*
X145422328Y-141966781D01*
X145531957Y-141653620D01*
X145661672Y-141966781D01*
X145894853Y-142025542D01*
X146632395Y-141288000D01*
X146991605Y-141288000D01*
X147729147Y-142025542D01*
X147962328Y-141966781D01*
X148134522Y-141474900D01*
X148127812Y-141355100D01*
X161237478Y-141355100D01*
X161266625Y-141875434D01*
X161409672Y-142220781D01*
X161642853Y-142279542D01*
X162380395Y-141542000D01*
X162739605Y-141542000D01*
X163477147Y-142279542D01*
X163710328Y-142220781D01*
X163819957Y-141907620D01*
X163949672Y-142220781D01*
X164182853Y-142279542D01*
X164920395Y-141542000D01*
X165279605Y-141542000D01*
X166017147Y-142279542D01*
X166250328Y-142220781D01*
X166422522Y-141728900D01*
X166393375Y-141208566D01*
X166348862Y-141101100D01*
X178509478Y-141101100D01*
X178538625Y-141621434D01*
X178681672Y-141966781D01*
X178914853Y-142025542D01*
X179652395Y-141288000D01*
X180011605Y-141288000D01*
X180749147Y-142025542D01*
X180982328Y-141966781D01*
X181091957Y-141653620D01*
X181221672Y-141966781D01*
X181454853Y-142025542D01*
X182192395Y-141288000D01*
X182551605Y-141288000D01*
X183289147Y-142025542D01*
X183522328Y-141966781D01*
X183694522Y-141474900D01*
X183665375Y-140954566D01*
X183522328Y-140609219D01*
X183289147Y-140550458D01*
X182551605Y-141288000D01*
X182192395Y-141288000D01*
X181454853Y-140550458D01*
X181221672Y-140609219D01*
X181112043Y-140922380D01*
X180982328Y-140609219D01*
X180749147Y-140550458D01*
X180011605Y-141288000D01*
X179652395Y-141288000D01*
X178914853Y-140550458D01*
X178681672Y-140609219D01*
X178509478Y-141101100D01*
X166348862Y-141101100D01*
X166250328Y-140863219D01*
X166017147Y-140804458D01*
X165279605Y-141542000D01*
X164920395Y-141542000D01*
X164182853Y-140804458D01*
X163949672Y-140863219D01*
X163840043Y-141176380D01*
X163710328Y-140863219D01*
X163477147Y-140804458D01*
X162739605Y-141542000D01*
X162380395Y-141542000D01*
X161642853Y-140804458D01*
X161409672Y-140863219D01*
X161237478Y-141355100D01*
X148127812Y-141355100D01*
X148105375Y-140954566D01*
X147968804Y-140624853D01*
X161822458Y-140624853D01*
X162560000Y-141362395D01*
X163297542Y-140624853D01*
X164362458Y-140624853D01*
X165100000Y-141362395D01*
X165837542Y-140624853D01*
X165778781Y-140391672D01*
X165719311Y-140370853D01*
X179094458Y-140370853D01*
X179832000Y-141108395D01*
X180569542Y-140370853D01*
X181634458Y-140370853D01*
X182372000Y-141108395D01*
X183109542Y-140370853D01*
X183050781Y-140137672D01*
X182558900Y-139965478D01*
X182038566Y-139994625D01*
X181693219Y-140137672D01*
X181634458Y-140370853D01*
X180569542Y-140370853D01*
X180510781Y-140137672D01*
X180018900Y-139965478D01*
X179498566Y-139994625D01*
X179153219Y-140137672D01*
X179094458Y-140370853D01*
X165719311Y-140370853D01*
X165286900Y-140219478D01*
X164766566Y-140248625D01*
X164421219Y-140391672D01*
X164362458Y-140624853D01*
X163297542Y-140624853D01*
X163238781Y-140391672D01*
X162746900Y-140219478D01*
X162226566Y-140248625D01*
X161881219Y-140391672D01*
X161822458Y-140624853D01*
X147968804Y-140624853D01*
X147962328Y-140609219D01*
X147729147Y-140550458D01*
X146991605Y-141288000D01*
X146632395Y-141288000D01*
X145894853Y-140550458D01*
X145661672Y-140609219D01*
X145552043Y-140922380D01*
X145422328Y-140609219D01*
X145189147Y-140550458D01*
X144451605Y-141288000D01*
X144092395Y-141288000D01*
X143354853Y-140550458D01*
X143121672Y-140609219D01*
X142949478Y-141101100D01*
X12902000Y-141101100D01*
X12902000Y-140370853D01*
X143534458Y-140370853D01*
X144272000Y-141108395D01*
X145009542Y-140370853D01*
X146074458Y-140370853D01*
X146812000Y-141108395D01*
X147549542Y-140370853D01*
X147490781Y-140137672D01*
X146998900Y-139965478D01*
X146478566Y-139994625D01*
X146133219Y-140137672D01*
X146074458Y-140370853D01*
X145009542Y-140370853D01*
X144950781Y-140137672D01*
X144458900Y-139965478D01*
X143938566Y-139994625D01*
X143593219Y-140137672D01*
X143534458Y-140370853D01*
X12902000Y-140370853D01*
X12902000Y-137984815D01*
X153058630Y-137984815D01*
X153382980Y-138769800D01*
X153983041Y-139370909D01*
X154767459Y-139696628D01*
X155616815Y-139697370D01*
X156401800Y-139373020D01*
X157002909Y-138772959D01*
X157328628Y-137988541D01*
X157328631Y-137984815D01*
X159916630Y-137984815D01*
X160240980Y-138769800D01*
X160841041Y-139370909D01*
X161625459Y-139696628D01*
X162474815Y-139697370D01*
X163259800Y-139373020D01*
X163860909Y-138772959D01*
X164186628Y-137988541D01*
X164187075Y-137476815D01*
X170584630Y-137476815D01*
X170908980Y-138261800D01*
X171509041Y-138862909D01*
X172293459Y-139188628D01*
X173142815Y-139189370D01*
X173927800Y-138865020D01*
X174528909Y-138264959D01*
X174750705Y-137730815D01*
X177442630Y-137730815D01*
X177766980Y-138515800D01*
X178367041Y-139116909D01*
X179151459Y-139442628D01*
X180000815Y-139443370D01*
X180785800Y-139119020D01*
X181386909Y-138518959D01*
X181712628Y-137734541D01*
X181713075Y-137222815D01*
X186332630Y-137222815D01*
X186656980Y-138007800D01*
X187257041Y-138608909D01*
X188041459Y-138934628D01*
X188890815Y-138935370D01*
X189675800Y-138611020D01*
X190276909Y-138010959D01*
X190602628Y-137226541D01*
X190602631Y-137222815D01*
X193444630Y-137222815D01*
X193768980Y-138007800D01*
X194369041Y-138608909D01*
X195153459Y-138934628D01*
X196002815Y-138935370D01*
X196787800Y-138611020D01*
X197388909Y-138010959D01*
X197714628Y-137226541D01*
X197715370Y-136377185D01*
X197391020Y-135592200D01*
X196790959Y-134991091D01*
X196006541Y-134665372D01*
X195157185Y-134664630D01*
X194372200Y-134988980D01*
X193771091Y-135589041D01*
X193445372Y-136373459D01*
X193444630Y-137222815D01*
X190602631Y-137222815D01*
X190603370Y-136377185D01*
X190279020Y-135592200D01*
X189678959Y-134991091D01*
X188894541Y-134665372D01*
X188045185Y-134664630D01*
X187260200Y-134988980D01*
X186659091Y-135589041D01*
X186333372Y-136373459D01*
X186332630Y-137222815D01*
X181713075Y-137222815D01*
X181713370Y-136885185D01*
X181389020Y-136100200D01*
X180788959Y-135499091D01*
X180004541Y-135173372D01*
X179155185Y-135172630D01*
X178370200Y-135496980D01*
X177769091Y-136097041D01*
X177443372Y-136881459D01*
X177442630Y-137730815D01*
X174750705Y-137730815D01*
X174854628Y-137480541D01*
X174855370Y-136631185D01*
X174531020Y-135846200D01*
X173930959Y-135245091D01*
X173146541Y-134919372D01*
X172297185Y-134918630D01*
X171512200Y-135242980D01*
X170911091Y-135843041D01*
X170585372Y-136627459D01*
X170584630Y-137476815D01*
X164187075Y-137476815D01*
X164187370Y-137139185D01*
X163863020Y-136354200D01*
X163262959Y-135753091D01*
X162478541Y-135427372D01*
X161629185Y-135426630D01*
X160844200Y-135750980D01*
X160243091Y-136351041D01*
X159917372Y-137135459D01*
X159916630Y-137984815D01*
X157328631Y-137984815D01*
X157329370Y-137139185D01*
X157005020Y-136354200D01*
X156404959Y-135753091D01*
X155620541Y-135427372D01*
X154771185Y-135426630D01*
X153986200Y-135750980D01*
X153385091Y-136351041D01*
X153059372Y-137135459D01*
X153058630Y-137984815D01*
X12902000Y-137984815D01*
X12902000Y-126705109D01*
X160066657Y-126705109D01*
X160368218Y-127434943D01*
X160926120Y-127993819D01*
X161655427Y-128296654D01*
X162445109Y-128297343D01*
X163174943Y-127995782D01*
X163733819Y-127437880D01*
X164036654Y-126708573D01*
X164036878Y-126451109D01*
X177592657Y-126451109D01*
X177894218Y-127180943D01*
X178452120Y-127739819D01*
X179181427Y-128042654D01*
X179971109Y-128043343D01*
X180700943Y-127741782D01*
X181259819Y-127183880D01*
X181562654Y-126454573D01*
X181563100Y-125943109D01*
X193594657Y-125943109D01*
X193896218Y-126672943D01*
X194454120Y-127231819D01*
X195183427Y-127534654D01*
X195973109Y-127535343D01*
X196702943Y-127233782D01*
X197261819Y-126675880D01*
X197564654Y-125946573D01*
X197565343Y-125156891D01*
X197263782Y-124427057D01*
X196705880Y-123868181D01*
X195976573Y-123565346D01*
X195186891Y-123564657D01*
X194457057Y-123866218D01*
X193898181Y-124424120D01*
X193595346Y-125153427D01*
X193594657Y-125943109D01*
X181563100Y-125943109D01*
X181563343Y-125664891D01*
X181261782Y-124935057D01*
X180703880Y-124376181D01*
X179974573Y-124073346D01*
X179184891Y-124072657D01*
X178455057Y-124374218D01*
X177896181Y-124932120D01*
X177593346Y-125661427D01*
X177592657Y-126451109D01*
X164036878Y-126451109D01*
X164037343Y-125918891D01*
X163735782Y-125189057D01*
X163177880Y-124630181D01*
X162448573Y-124327346D01*
X161658891Y-124326657D01*
X160929057Y-124628218D01*
X160370181Y-125186120D01*
X160067346Y-125915427D01*
X160066657Y-126705109D01*
X12902000Y-126705109D01*
X12902000Y-121011913D01*
X54394816Y-121011913D01*
X54588046Y-121564320D01*
X54977964Y-122000732D01*
X55505209Y-122254709D01*
X55520974Y-122257358D01*
X55753000Y-122136217D01*
X55753000Y-120777000D01*
X54539076Y-120777000D01*
X54394816Y-121011913D01*
X12902000Y-121011913D01*
X12902000Y-120288087D01*
X54394816Y-120288087D01*
X54539076Y-120523000D01*
X55753000Y-120523000D01*
X55753000Y-119163783D01*
X55520974Y-119042642D01*
X55505209Y-119045291D01*
X54977964Y-119299268D01*
X54588046Y-119735680D01*
X54394816Y-120288087D01*
X12902000Y-120288087D01*
X12902000Y-117709913D01*
X54394816Y-117709913D01*
X54588046Y-118262320D01*
X54977964Y-118698732D01*
X55505209Y-118952709D01*
X55520974Y-118955358D01*
X55753000Y-118834217D01*
X55753000Y-117475000D01*
X54539076Y-117475000D01*
X54394816Y-117709913D01*
X12902000Y-117709913D01*
X12902000Y-116986087D01*
X54394816Y-116986087D01*
X54539076Y-117221000D01*
X55753000Y-117221000D01*
X55753000Y-115861783D01*
X56007000Y-115861783D01*
X56007000Y-117221000D01*
X56027000Y-117221000D01*
X56027000Y-117475000D01*
X56007000Y-117475000D01*
X56007000Y-118834217D01*
X56239026Y-118955358D01*
X56254791Y-118952709D01*
X56782036Y-118698732D01*
X57153539Y-118282931D01*
X57360330Y-118592415D01*
X57846511Y-118917271D01*
X58257391Y-118999000D01*
X57846511Y-119080729D01*
X57360330Y-119405585D01*
X57153539Y-119715069D01*
X56782036Y-119299268D01*
X56254791Y-119045291D01*
X56239026Y-119042642D01*
X56007000Y-119163783D01*
X56007000Y-120523000D01*
X56027000Y-120523000D01*
X56027000Y-120777000D01*
X56007000Y-120777000D01*
X56007000Y-122136217D01*
X56239026Y-122257358D01*
X56254791Y-122254709D01*
X56782036Y-122000732D01*
X57153539Y-121584931D01*
X57360330Y-121894415D01*
X57846511Y-122219271D01*
X58420000Y-122333345D01*
X58993489Y-122219271D01*
X59479670Y-121894415D01*
X59489243Y-121880087D01*
X59493238Y-121901317D01*
X59632310Y-122117441D01*
X59844510Y-122262431D01*
X60096400Y-122313440D01*
X61823600Y-122313440D01*
X62058917Y-122269162D01*
X62275041Y-122130090D01*
X62420031Y-121917890D01*
X62471040Y-121666000D01*
X62471040Y-121011913D01*
X116878816Y-121011913D01*
X117072046Y-121564320D01*
X117461964Y-122000732D01*
X117989209Y-122254709D01*
X118004974Y-122257358D01*
X118237000Y-122136217D01*
X118237000Y-120777000D01*
X117023076Y-120777000D01*
X116878816Y-121011913D01*
X62471040Y-121011913D01*
X62471040Y-120288087D01*
X116878816Y-120288087D01*
X117023076Y-120523000D01*
X118237000Y-120523000D01*
X118237000Y-119163783D01*
X118491000Y-119163783D01*
X118491000Y-120523000D01*
X118511000Y-120523000D01*
X118511000Y-120777000D01*
X118491000Y-120777000D01*
X118491000Y-122136217D01*
X118723026Y-122257358D01*
X118738791Y-122254709D01*
X119266036Y-122000732D01*
X119637539Y-121584931D01*
X119844330Y-121894415D01*
X120330511Y-122219271D01*
X120904000Y-122333345D01*
X121477489Y-122219271D01*
X121963670Y-121894415D01*
X121973243Y-121880087D01*
X121977238Y-121901317D01*
X122116310Y-122117441D01*
X122328510Y-122262431D01*
X122580400Y-122313440D01*
X124307600Y-122313440D01*
X124542917Y-122269162D01*
X124759041Y-122130090D01*
X124904031Y-121917890D01*
X124955040Y-121666000D01*
X124955040Y-119634000D01*
X124923617Y-119467000D01*
X209243560Y-119467000D01*
X209243560Y-120817000D01*
X209287838Y-121052317D01*
X209426910Y-121268441D01*
X209639110Y-121413431D01*
X209891000Y-121464440D01*
X211241000Y-121464440D01*
X211476317Y-121420162D01*
X211692441Y-121281090D01*
X211837431Y-121068890D01*
X211888440Y-120817000D01*
X211888440Y-119467000D01*
X212037560Y-119467000D01*
X212037560Y-120817000D01*
X212081838Y-121052317D01*
X212220910Y-121268441D01*
X212433110Y-121413431D01*
X212685000Y-121464440D01*
X214035000Y-121464440D01*
X214270317Y-121420162D01*
X214486441Y-121281090D01*
X214631431Y-121068890D01*
X214682440Y-120817000D01*
X214682440Y-119467000D01*
X214638162Y-119231683D01*
X214499090Y-119015559D01*
X214404142Y-118950684D01*
X214469916Y-118885024D01*
X214669772Y-118403718D01*
X214670226Y-117882568D01*
X214471211Y-117400914D01*
X214251681Y-117181000D01*
X226515560Y-117181000D01*
X226515560Y-118531000D01*
X226559838Y-118766317D01*
X226698910Y-118982441D01*
X226911110Y-119127431D01*
X227163000Y-119178440D01*
X228513000Y-119178440D01*
X228748317Y-119134162D01*
X228964441Y-118995090D01*
X229109431Y-118782890D01*
X229160440Y-118531000D01*
X229160440Y-117181000D01*
X229309560Y-117181000D01*
X229309560Y-118531000D01*
X229353838Y-118766317D01*
X229492910Y-118982441D01*
X229705110Y-119127431D01*
X229957000Y-119178440D01*
X231307000Y-119178440D01*
X231542317Y-119134162D01*
X231758441Y-118995090D01*
X231903431Y-118782890D01*
X231954440Y-118531000D01*
X231954440Y-117181000D01*
X243787560Y-117181000D01*
X243787560Y-118531000D01*
X243831838Y-118766317D01*
X243970910Y-118982441D01*
X244183110Y-119127431D01*
X244435000Y-119178440D01*
X245785000Y-119178440D01*
X246020317Y-119134162D01*
X246236441Y-118995090D01*
X246381431Y-118782890D01*
X246381687Y-118781624D01*
X246510910Y-118982441D01*
X246723110Y-119127431D01*
X246975000Y-119178440D01*
X248325000Y-119178440D01*
X248560317Y-119134162D01*
X248776441Y-118995090D01*
X248921431Y-118782890D01*
X248972440Y-118531000D01*
X248972440Y-117181000D01*
X248928162Y-116945683D01*
X248789090Y-116729559D01*
X248694142Y-116664684D01*
X248759916Y-116599024D01*
X248959772Y-116117718D01*
X248960226Y-115596568D01*
X248761211Y-115114914D01*
X248393024Y-114746084D01*
X248337369Y-114722974D01*
X247650000Y-114035605D01*
X246963279Y-114722326D01*
X246908914Y-114744789D01*
X246540084Y-115112976D01*
X246379852Y-115498856D01*
X246221211Y-115114914D01*
X245853024Y-114746084D01*
X245797369Y-114722974D01*
X245110000Y-114035605D01*
X244423279Y-114722326D01*
X244368914Y-114744789D01*
X244000084Y-115112976D01*
X243800228Y-115594282D01*
X243799774Y-116115432D01*
X243998789Y-116597086D01*
X244065663Y-116664077D01*
X243983559Y-116716910D01*
X243838569Y-116929110D01*
X243787560Y-117181000D01*
X231954440Y-117181000D01*
X231910162Y-116945683D01*
X231771090Y-116729559D01*
X231676142Y-116664684D01*
X231741916Y-116599024D01*
X231941772Y-116117718D01*
X231942226Y-115596568D01*
X231743211Y-115114914D01*
X231375024Y-114746084D01*
X231319369Y-114722974D01*
X230632000Y-114035605D01*
X229945279Y-114722326D01*
X229890914Y-114744789D01*
X229522084Y-115112976D01*
X229322228Y-115594282D01*
X229321774Y-116115432D01*
X229520789Y-116597086D01*
X229587663Y-116664077D01*
X229505559Y-116716910D01*
X229360569Y-116929110D01*
X229309560Y-117181000D01*
X229160440Y-117181000D01*
X229116162Y-116945683D01*
X228977090Y-116729559D01*
X228882142Y-116664684D01*
X228947916Y-116599024D01*
X229147772Y-116117718D01*
X229148226Y-115596568D01*
X228949211Y-115114914D01*
X228581024Y-114746084D01*
X228525369Y-114722974D01*
X227838000Y-114035605D01*
X227151279Y-114722326D01*
X227096914Y-114744789D01*
X226728084Y-115112976D01*
X226528228Y-115594282D01*
X226527774Y-116115432D01*
X226726789Y-116597086D01*
X226793663Y-116664077D01*
X226711559Y-116716910D01*
X226566569Y-116929110D01*
X226515560Y-117181000D01*
X214251681Y-117181000D01*
X214103024Y-117032084D01*
X214047369Y-117008974D01*
X213360000Y-116321605D01*
X212673279Y-117008326D01*
X212618914Y-117030789D01*
X212250084Y-117398976D01*
X212050228Y-117880282D01*
X212049774Y-118401432D01*
X212248789Y-118883086D01*
X212315663Y-118950077D01*
X212233559Y-119002910D01*
X212088569Y-119215110D01*
X212037560Y-119467000D01*
X211888440Y-119467000D01*
X211844162Y-119231683D01*
X211705090Y-119015559D01*
X211610142Y-118950684D01*
X211675916Y-118885024D01*
X211875772Y-118403718D01*
X211876226Y-117882568D01*
X211677211Y-117400914D01*
X211309024Y-117032084D01*
X211253369Y-117008974D01*
X210566000Y-116321605D01*
X209879279Y-117008326D01*
X209824914Y-117030789D01*
X209456084Y-117398976D01*
X209256228Y-117880282D01*
X209255774Y-118401432D01*
X209454789Y-118883086D01*
X209521663Y-118950077D01*
X209439559Y-119002910D01*
X209294569Y-119215110D01*
X209243560Y-119467000D01*
X124923617Y-119467000D01*
X124910762Y-119398683D01*
X124771690Y-119182559D01*
X124559490Y-119037569D01*
X124307600Y-118986560D01*
X122580400Y-118986560D01*
X122345083Y-119030838D01*
X122128959Y-119169910D01*
X121983969Y-119382110D01*
X121975600Y-119423439D01*
X121963670Y-119405585D01*
X121477489Y-119080729D01*
X120904000Y-118966655D01*
X120330511Y-119080729D01*
X119844330Y-119405585D01*
X119637539Y-119715069D01*
X119266036Y-119299268D01*
X118738791Y-119045291D01*
X118723026Y-119042642D01*
X118491000Y-119163783D01*
X118237000Y-119163783D01*
X118004974Y-119042642D01*
X117989209Y-119045291D01*
X117461964Y-119299268D01*
X117072046Y-119735680D01*
X116878816Y-120288087D01*
X62471040Y-120288087D01*
X62471040Y-119634000D01*
X62426762Y-119398683D01*
X62287690Y-119182559D01*
X62075490Y-119037569D01*
X61887286Y-118999457D01*
X62058917Y-118967162D01*
X62275041Y-118828090D01*
X62420031Y-118615890D01*
X62471040Y-118364000D01*
X62471040Y-117455913D01*
X116878816Y-117455913D01*
X117072046Y-118008320D01*
X117461964Y-118444732D01*
X117989209Y-118698709D01*
X118004974Y-118701358D01*
X118237000Y-118580217D01*
X118237000Y-117221000D01*
X117023076Y-117221000D01*
X116878816Y-117455913D01*
X62471040Y-117455913D01*
X62471040Y-116732087D01*
X116878816Y-116732087D01*
X117023076Y-116967000D01*
X118237000Y-116967000D01*
X118237000Y-115607783D01*
X118491000Y-115607783D01*
X118491000Y-116967000D01*
X118511000Y-116967000D01*
X118511000Y-117221000D01*
X118491000Y-117221000D01*
X118491000Y-118580217D01*
X118723026Y-118701358D01*
X118738791Y-118698709D01*
X119266036Y-118444732D01*
X119637539Y-118028931D01*
X119844330Y-118338415D01*
X120330511Y-118663271D01*
X120904000Y-118777345D01*
X121477489Y-118663271D01*
X121963670Y-118338415D01*
X121973243Y-118324087D01*
X121977238Y-118345317D01*
X122116310Y-118561441D01*
X122328510Y-118706431D01*
X122580400Y-118757440D01*
X124307600Y-118757440D01*
X124542917Y-118713162D01*
X124759041Y-118574090D01*
X124904031Y-118361890D01*
X124955040Y-118110000D01*
X124955040Y-116078000D01*
X124910762Y-115842683D01*
X124771690Y-115626559D01*
X124559490Y-115481569D01*
X124307600Y-115430560D01*
X122580400Y-115430560D01*
X122345083Y-115474838D01*
X122128959Y-115613910D01*
X121983969Y-115826110D01*
X121975600Y-115867439D01*
X121963670Y-115849585D01*
X121477489Y-115524729D01*
X120904000Y-115410655D01*
X120330511Y-115524729D01*
X119844330Y-115849585D01*
X119637539Y-116159069D01*
X119266036Y-115743268D01*
X118738791Y-115489291D01*
X118723026Y-115486642D01*
X118491000Y-115607783D01*
X118237000Y-115607783D01*
X118004974Y-115486642D01*
X117989209Y-115489291D01*
X117461964Y-115743268D01*
X117072046Y-116179680D01*
X116878816Y-116732087D01*
X62471040Y-116732087D01*
X62471040Y-116332000D01*
X62426762Y-116096683D01*
X62287690Y-115880559D01*
X62075490Y-115735569D01*
X61823600Y-115684560D01*
X60096400Y-115684560D01*
X59861083Y-115728838D01*
X59644959Y-115867910D01*
X59499969Y-116080110D01*
X59491600Y-116121439D01*
X59479670Y-116103585D01*
X58993489Y-115778729D01*
X58420000Y-115664655D01*
X57846511Y-115778729D01*
X57360330Y-116103585D01*
X57153539Y-116413069D01*
X56782036Y-115997268D01*
X56254791Y-115743291D01*
X56239026Y-115740642D01*
X56007000Y-115861783D01*
X55753000Y-115861783D01*
X55520974Y-115740642D01*
X55505209Y-115743291D01*
X54977964Y-115997268D01*
X54588046Y-116433680D01*
X54394816Y-116986087D01*
X12902000Y-116986087D01*
X12902000Y-114722815D01*
X27836630Y-114722815D01*
X28160980Y-115507800D01*
X28761041Y-116108909D01*
X29545459Y-116434628D01*
X30394815Y-116435370D01*
X31179800Y-116111020D01*
X31780909Y-115510959D01*
X32106628Y-114726541D01*
X32106631Y-114722815D01*
X50336630Y-114722815D01*
X50660980Y-115507800D01*
X51261041Y-116108909D01*
X52045459Y-116434628D01*
X52894815Y-116435370D01*
X53679800Y-116111020D01*
X54280909Y-115510959D01*
X54606628Y-114726541D01*
X54606631Y-114722815D01*
X62740630Y-114722815D01*
X63064980Y-115507800D01*
X63665041Y-116108909D01*
X64449459Y-116434628D01*
X65298815Y-116435370D01*
X66083800Y-116111020D01*
X66684909Y-115510959D01*
X67010628Y-114726541D01*
X67010631Y-114722815D01*
X85240630Y-114722815D01*
X85564980Y-115507800D01*
X86165041Y-116108909D01*
X86949459Y-116434628D01*
X87798815Y-116435370D01*
X88583800Y-116111020D01*
X89184909Y-115510959D01*
X89510628Y-114726541D01*
X89510853Y-114468815D01*
X89558630Y-114468815D01*
X89882980Y-115253800D01*
X90483041Y-115854909D01*
X91267459Y-116180628D01*
X92116815Y-116181370D01*
X92901800Y-115857020D01*
X93502909Y-115256959D01*
X93828628Y-114472541D01*
X93828631Y-114468815D01*
X112058630Y-114468815D01*
X112382980Y-115253800D01*
X112983041Y-115854909D01*
X113767459Y-116180628D01*
X114616815Y-116181370D01*
X115401800Y-115857020D01*
X116002909Y-115256959D01*
X116224705Y-114722815D01*
X124716630Y-114722815D01*
X125040980Y-115507800D01*
X125641041Y-116108909D01*
X126425459Y-116434628D01*
X127274815Y-116435370D01*
X128059800Y-116111020D01*
X128660909Y-115510959D01*
X128986628Y-114726541D01*
X128986631Y-114722815D01*
X147216630Y-114722815D01*
X147540980Y-115507800D01*
X148141041Y-116108909D01*
X148925459Y-116434628D01*
X149774815Y-116435370D01*
X150559800Y-116111020D01*
X151160909Y-115510959D01*
X151171764Y-115484815D01*
X153058630Y-115484815D01*
X153382980Y-116269800D01*
X153983041Y-116870909D01*
X154767459Y-117196628D01*
X155616815Y-117197370D01*
X156401800Y-116873020D01*
X157002909Y-116272959D01*
X157328628Y-115488541D01*
X157328631Y-115484815D01*
X159916630Y-115484815D01*
X160240980Y-116269800D01*
X160841041Y-116870909D01*
X161625459Y-117196628D01*
X162474815Y-117197370D01*
X163259800Y-116873020D01*
X163860909Y-116272959D01*
X164186628Y-115488541D01*
X164187075Y-114976815D01*
X170584630Y-114976815D01*
X170908980Y-115761800D01*
X171509041Y-116362909D01*
X172293459Y-116688628D01*
X173142815Y-116689370D01*
X173927800Y-116365020D01*
X174528909Y-115764959D01*
X174750705Y-115230815D01*
X177442630Y-115230815D01*
X177766980Y-116015800D01*
X178367041Y-116616909D01*
X179151459Y-116942628D01*
X180000815Y-116943370D01*
X180785800Y-116619020D01*
X181386909Y-116018959D01*
X181712628Y-115234541D01*
X181713075Y-114722815D01*
X186332630Y-114722815D01*
X186656980Y-115507800D01*
X187257041Y-116108909D01*
X188041459Y-116434628D01*
X188890815Y-116435370D01*
X189675800Y-116111020D01*
X190276909Y-115510959D01*
X190602628Y-114726541D01*
X190602631Y-114722815D01*
X193444630Y-114722815D01*
X193768980Y-115507800D01*
X194369041Y-116108909D01*
X195153459Y-116434628D01*
X196002815Y-116435370D01*
X196787800Y-116111020D01*
X196943992Y-115955100D01*
X209243478Y-115955100D01*
X209272625Y-116475434D01*
X209415672Y-116820781D01*
X209648853Y-116879542D01*
X210386395Y-116142000D01*
X210745605Y-116142000D01*
X211483147Y-116879542D01*
X211716328Y-116820781D01*
X211888522Y-116328900D01*
X211867584Y-115955100D01*
X212037478Y-115955100D01*
X212066625Y-116475434D01*
X212209672Y-116820781D01*
X212442853Y-116879542D01*
X213180395Y-116142000D01*
X213539605Y-116142000D01*
X214277147Y-116879542D01*
X214510328Y-116820781D01*
X214682522Y-116328900D01*
X214653375Y-115808566D01*
X214510328Y-115463219D01*
X214277147Y-115404458D01*
X213539605Y-116142000D01*
X213180395Y-116142000D01*
X212442853Y-115404458D01*
X212209672Y-115463219D01*
X212037478Y-115955100D01*
X211867584Y-115955100D01*
X211859375Y-115808566D01*
X211716328Y-115463219D01*
X211483147Y-115404458D01*
X210745605Y-116142000D01*
X210386395Y-116142000D01*
X209648853Y-115404458D01*
X209415672Y-115463219D01*
X209243478Y-115955100D01*
X196943992Y-115955100D01*
X197388909Y-115510959D01*
X197507710Y-115224853D01*
X209828458Y-115224853D01*
X210566000Y-115962395D01*
X211303542Y-115224853D01*
X212622458Y-115224853D01*
X213360000Y-115962395D01*
X214097542Y-115224853D01*
X214038781Y-114991672D01*
X213546900Y-114819478D01*
X213026566Y-114848625D01*
X212681219Y-114991672D01*
X212622458Y-115224853D01*
X211303542Y-115224853D01*
X211244781Y-114991672D01*
X210752900Y-114819478D01*
X210232566Y-114848625D01*
X209887219Y-114991672D01*
X209828458Y-115224853D01*
X197507710Y-115224853D01*
X197714628Y-114726541D01*
X197715370Y-113877185D01*
X197629391Y-113669100D01*
X226515478Y-113669100D01*
X226544625Y-114189434D01*
X226687672Y-114534781D01*
X226920853Y-114593542D01*
X227658395Y-113856000D01*
X228017605Y-113856000D01*
X228755147Y-114593542D01*
X228988328Y-114534781D01*
X229160522Y-114042900D01*
X229139584Y-113669100D01*
X229309478Y-113669100D01*
X229338625Y-114189434D01*
X229481672Y-114534781D01*
X229714853Y-114593542D01*
X230452395Y-113856000D01*
X230811605Y-113856000D01*
X231549147Y-114593542D01*
X231782328Y-114534781D01*
X231954522Y-114042900D01*
X231933584Y-113669100D01*
X243787478Y-113669100D01*
X243816625Y-114189434D01*
X243959672Y-114534781D01*
X244192853Y-114593542D01*
X244930395Y-113856000D01*
X245289605Y-113856000D01*
X246027147Y-114593542D01*
X246260328Y-114534781D01*
X246369957Y-114221620D01*
X246499672Y-114534781D01*
X246732853Y-114593542D01*
X247470395Y-113856000D01*
X247829605Y-113856000D01*
X248567147Y-114593542D01*
X248800328Y-114534781D01*
X248972522Y-114042900D01*
X248943375Y-113522566D01*
X248800328Y-113177219D01*
X248567147Y-113118458D01*
X247829605Y-113856000D01*
X247470395Y-113856000D01*
X246732853Y-113118458D01*
X246499672Y-113177219D01*
X246390043Y-113490380D01*
X246260328Y-113177219D01*
X246027147Y-113118458D01*
X245289605Y-113856000D01*
X244930395Y-113856000D01*
X244192853Y-113118458D01*
X243959672Y-113177219D01*
X243787478Y-113669100D01*
X231933584Y-113669100D01*
X231925375Y-113522566D01*
X231782328Y-113177219D01*
X231549147Y-113118458D01*
X230811605Y-113856000D01*
X230452395Y-113856000D01*
X229714853Y-113118458D01*
X229481672Y-113177219D01*
X229309478Y-113669100D01*
X229139584Y-113669100D01*
X229131375Y-113522566D01*
X228988328Y-113177219D01*
X228755147Y-113118458D01*
X228017605Y-113856000D01*
X227658395Y-113856000D01*
X226920853Y-113118458D01*
X226687672Y-113177219D01*
X226515478Y-113669100D01*
X197629391Y-113669100D01*
X197391020Y-113092200D01*
X197237941Y-112938853D01*
X227100458Y-112938853D01*
X227838000Y-113676395D01*
X228575542Y-112938853D01*
X229894458Y-112938853D01*
X230632000Y-113676395D01*
X231369542Y-112938853D01*
X244372458Y-112938853D01*
X245110000Y-113676395D01*
X245847542Y-112938853D01*
X246912458Y-112938853D01*
X247650000Y-113676395D01*
X248387542Y-112938853D01*
X248328781Y-112705672D01*
X247836900Y-112533478D01*
X247316566Y-112562625D01*
X246971219Y-112705672D01*
X246912458Y-112938853D01*
X245847542Y-112938853D01*
X245788781Y-112705672D01*
X245296900Y-112533478D01*
X244776566Y-112562625D01*
X244431219Y-112705672D01*
X244372458Y-112938853D01*
X231369542Y-112938853D01*
X231310781Y-112705672D01*
X230818900Y-112533478D01*
X230298566Y-112562625D01*
X229953219Y-112705672D01*
X229894458Y-112938853D01*
X228575542Y-112938853D01*
X228516781Y-112705672D01*
X228024900Y-112533478D01*
X227504566Y-112562625D01*
X227159219Y-112705672D01*
X227100458Y-112938853D01*
X197237941Y-112938853D01*
X196790959Y-112491091D01*
X196006541Y-112165372D01*
X195157185Y-112164630D01*
X194372200Y-112488980D01*
X193771091Y-113089041D01*
X193445372Y-113873459D01*
X193444630Y-114722815D01*
X190602631Y-114722815D01*
X190603370Y-113877185D01*
X190279020Y-113092200D01*
X189678959Y-112491091D01*
X188894541Y-112165372D01*
X188045185Y-112164630D01*
X187260200Y-112488980D01*
X186659091Y-113089041D01*
X186333372Y-113873459D01*
X186332630Y-114722815D01*
X181713075Y-114722815D01*
X181713370Y-114385185D01*
X181389020Y-113600200D01*
X180788959Y-112999091D01*
X180004541Y-112673372D01*
X179155185Y-112672630D01*
X178370200Y-112996980D01*
X177769091Y-113597041D01*
X177443372Y-114381459D01*
X177442630Y-115230815D01*
X174750705Y-115230815D01*
X174854628Y-114980541D01*
X174855370Y-114131185D01*
X174531020Y-113346200D01*
X173930959Y-112745091D01*
X173146541Y-112419372D01*
X172297185Y-112418630D01*
X171512200Y-112742980D01*
X170911091Y-113343041D01*
X170585372Y-114127459D01*
X170584630Y-114976815D01*
X164187075Y-114976815D01*
X164187370Y-114639185D01*
X163863020Y-113854200D01*
X163262959Y-113253091D01*
X162478541Y-112927372D01*
X161629185Y-112926630D01*
X160844200Y-113250980D01*
X160243091Y-113851041D01*
X159917372Y-114635459D01*
X159916630Y-115484815D01*
X157328631Y-115484815D01*
X157329370Y-114639185D01*
X157005020Y-113854200D01*
X156404959Y-113253091D01*
X155620541Y-112927372D01*
X154771185Y-112926630D01*
X153986200Y-113250980D01*
X153385091Y-113851041D01*
X153059372Y-114635459D01*
X153058630Y-115484815D01*
X151171764Y-115484815D01*
X151486628Y-114726541D01*
X151487370Y-113877185D01*
X151163020Y-113092200D01*
X150562959Y-112491091D01*
X149778541Y-112165372D01*
X148929185Y-112164630D01*
X148144200Y-112488980D01*
X147543091Y-113089041D01*
X147217372Y-113873459D01*
X147216630Y-114722815D01*
X128986631Y-114722815D01*
X128987370Y-113877185D01*
X128663020Y-113092200D01*
X128062959Y-112491091D01*
X127278541Y-112165372D01*
X126429185Y-112164630D01*
X125644200Y-112488980D01*
X125043091Y-113089041D01*
X124717372Y-113873459D01*
X124716630Y-114722815D01*
X116224705Y-114722815D01*
X116328628Y-114472541D01*
X116329370Y-113623185D01*
X116005020Y-112838200D01*
X115404959Y-112237091D01*
X114620541Y-111911372D01*
X113771185Y-111910630D01*
X112986200Y-112234980D01*
X112385091Y-112835041D01*
X112059372Y-113619459D01*
X112058630Y-114468815D01*
X93828631Y-114468815D01*
X93829370Y-113623185D01*
X93505020Y-112838200D01*
X92904959Y-112237091D01*
X92120541Y-111911372D01*
X91271185Y-111910630D01*
X90486200Y-112234980D01*
X89885091Y-112835041D01*
X89559372Y-113619459D01*
X89558630Y-114468815D01*
X89510853Y-114468815D01*
X89511370Y-113877185D01*
X89187020Y-113092200D01*
X88586959Y-112491091D01*
X87802541Y-112165372D01*
X86953185Y-112164630D01*
X86168200Y-112488980D01*
X85567091Y-113089041D01*
X85241372Y-113873459D01*
X85240630Y-114722815D01*
X67010631Y-114722815D01*
X67011370Y-113877185D01*
X66687020Y-113092200D01*
X66086959Y-112491091D01*
X65302541Y-112165372D01*
X64453185Y-112164630D01*
X63668200Y-112488980D01*
X63067091Y-113089041D01*
X62741372Y-113873459D01*
X62740630Y-114722815D01*
X54606631Y-114722815D01*
X54607370Y-113877185D01*
X54283020Y-113092200D01*
X53682959Y-112491091D01*
X52898541Y-112165372D01*
X52049185Y-112164630D01*
X51264200Y-112488980D01*
X50663091Y-113089041D01*
X50337372Y-113873459D01*
X50336630Y-114722815D01*
X32106631Y-114722815D01*
X32107370Y-113877185D01*
X31783020Y-113092200D01*
X31182959Y-112491091D01*
X30398541Y-112165372D01*
X29549185Y-112164630D01*
X28764200Y-112488980D01*
X28163091Y-113089041D01*
X27837372Y-113873459D01*
X27836630Y-114722815D01*
X12902000Y-114722815D01*
X12902000Y-109790815D01*
X211732630Y-109790815D01*
X212056980Y-110575800D01*
X212657041Y-111176909D01*
X213441459Y-111502628D01*
X214290815Y-111503370D01*
X215075800Y-111179020D01*
X215676909Y-110578959D01*
X216002628Y-109794541D01*
X216002631Y-109790815D01*
X218336630Y-109790815D01*
X218660980Y-110575800D01*
X219261041Y-111176909D01*
X220045459Y-111502628D01*
X220894815Y-111503370D01*
X221679800Y-111179020D01*
X222280909Y-110578959D01*
X222606628Y-109794541D01*
X222606853Y-109536815D01*
X227226630Y-109536815D01*
X227550980Y-110321800D01*
X228151041Y-110922909D01*
X228935459Y-111248628D01*
X229784815Y-111249370D01*
X230569800Y-110925020D01*
X231170909Y-110324959D01*
X231496628Y-109540541D01*
X231496631Y-109536815D01*
X234084630Y-109536815D01*
X234408980Y-110321800D01*
X235009041Y-110922909D01*
X235793459Y-111248628D01*
X236642815Y-111249370D01*
X237427800Y-110925020D01*
X238028909Y-110324959D01*
X238250705Y-109790815D01*
X243228630Y-109790815D01*
X243552980Y-110575800D01*
X244153041Y-111176909D01*
X244937459Y-111502628D01*
X245786815Y-111503370D01*
X246571800Y-111179020D01*
X247172909Y-110578959D01*
X247498628Y-109794541D01*
X247498631Y-109790815D01*
X250340630Y-109790815D01*
X250664980Y-110575800D01*
X251265041Y-111176909D01*
X252049459Y-111502628D01*
X252898815Y-111503370D01*
X253683800Y-111179020D01*
X254284909Y-110578959D01*
X254610628Y-109794541D01*
X254611370Y-108945185D01*
X254287020Y-108160200D01*
X253686959Y-107559091D01*
X252902541Y-107233372D01*
X252053185Y-107232630D01*
X251268200Y-107556980D01*
X250667091Y-108157041D01*
X250341372Y-108941459D01*
X250340630Y-109790815D01*
X247498631Y-109790815D01*
X247499370Y-108945185D01*
X247175020Y-108160200D01*
X246574959Y-107559091D01*
X245790541Y-107233372D01*
X244941185Y-107232630D01*
X244156200Y-107556980D01*
X243555091Y-108157041D01*
X243229372Y-108941459D01*
X243228630Y-109790815D01*
X238250705Y-109790815D01*
X238354628Y-109540541D01*
X238355370Y-108691185D01*
X238031020Y-107906200D01*
X237430959Y-107305091D01*
X236646541Y-106979372D01*
X235797185Y-106978630D01*
X235012200Y-107302980D01*
X234411091Y-107903041D01*
X234085372Y-108687459D01*
X234084630Y-109536815D01*
X231496631Y-109536815D01*
X231497370Y-108691185D01*
X231173020Y-107906200D01*
X230572959Y-107305091D01*
X229788541Y-106979372D01*
X228939185Y-106978630D01*
X228154200Y-107302980D01*
X227553091Y-107903041D01*
X227227372Y-108687459D01*
X227226630Y-109536815D01*
X222606853Y-109536815D01*
X222607370Y-108945185D01*
X222283020Y-108160200D01*
X221682959Y-107559091D01*
X220898541Y-107233372D01*
X220049185Y-107232630D01*
X219264200Y-107556980D01*
X218663091Y-108157041D01*
X218337372Y-108941459D01*
X218336630Y-109790815D01*
X216002631Y-109790815D01*
X216003370Y-108945185D01*
X215679020Y-108160200D01*
X215078959Y-107559091D01*
X214294541Y-107233372D01*
X213445185Y-107232630D01*
X212660200Y-107556980D01*
X212059091Y-108157041D01*
X211733372Y-108941459D01*
X211732630Y-109790815D01*
X12902000Y-109790815D01*
X12902000Y-107610815D01*
X27836630Y-107610815D01*
X28160980Y-108395800D01*
X28761041Y-108996909D01*
X29545459Y-109322628D01*
X30394815Y-109323370D01*
X31179800Y-108999020D01*
X31780909Y-108398959D01*
X32106628Y-107614541D01*
X32106657Y-107581109D01*
X39236657Y-107581109D01*
X39538218Y-108310943D01*
X40096120Y-108869819D01*
X40825427Y-109172654D01*
X41615109Y-109173343D01*
X42344943Y-108871782D01*
X42903819Y-108313880D01*
X43195757Y-107610815D01*
X50336630Y-107610815D01*
X50660980Y-108395800D01*
X51261041Y-108996909D01*
X52045459Y-109322628D01*
X52894815Y-109323370D01*
X53679800Y-108999020D01*
X54280909Y-108398959D01*
X54502705Y-107864815D01*
X62486630Y-107864815D01*
X62810980Y-108649800D01*
X63411041Y-109250909D01*
X64195459Y-109576628D01*
X65044815Y-109577370D01*
X65829800Y-109253020D01*
X66430909Y-108652959D01*
X66756628Y-107868541D01*
X66756657Y-107835109D01*
X73886657Y-107835109D01*
X74188218Y-108564943D01*
X74746120Y-109123819D01*
X75475427Y-109426654D01*
X76265109Y-109427343D01*
X76994943Y-109125782D01*
X77553819Y-108567880D01*
X77845757Y-107864815D01*
X84986630Y-107864815D01*
X85310980Y-108649800D01*
X85911041Y-109250909D01*
X86695459Y-109576628D01*
X87544815Y-109577370D01*
X88329800Y-109253020D01*
X88930909Y-108652959D01*
X89256628Y-107868541D01*
X89256853Y-107610815D01*
X89558630Y-107610815D01*
X89882980Y-108395800D01*
X90483041Y-108996909D01*
X91267459Y-109322628D01*
X92116815Y-109323370D01*
X92901800Y-108999020D01*
X93502909Y-108398959D01*
X93828628Y-107614541D01*
X93828657Y-107581109D01*
X100958657Y-107581109D01*
X101260218Y-108310943D01*
X101818120Y-108869819D01*
X102547427Y-109172654D01*
X103337109Y-109173343D01*
X104066943Y-108871782D01*
X104625819Y-108313880D01*
X104917757Y-107610815D01*
X112058630Y-107610815D01*
X112382980Y-108395800D01*
X112983041Y-108996909D01*
X113767459Y-109322628D01*
X114616815Y-109323370D01*
X115401800Y-108999020D01*
X116002909Y-108398959D01*
X116224705Y-107864815D01*
X124716630Y-107864815D01*
X125040980Y-108649800D01*
X125641041Y-109250909D01*
X126425459Y-109576628D01*
X127274815Y-109577370D01*
X128059800Y-109253020D01*
X128660909Y-108652959D01*
X128986628Y-107868541D01*
X128986657Y-107835109D01*
X136116657Y-107835109D01*
X136418218Y-108564943D01*
X136976120Y-109123819D01*
X137705427Y-109426654D01*
X138495109Y-109427343D01*
X139224943Y-109125782D01*
X139783819Y-108567880D01*
X140075757Y-107864815D01*
X147216630Y-107864815D01*
X147540980Y-108649800D01*
X148141041Y-109250909D01*
X148925459Y-109576628D01*
X149774815Y-109577370D01*
X150559800Y-109253020D01*
X151160909Y-108652959D01*
X151486628Y-107868541D01*
X151487370Y-107019185D01*
X151163020Y-106234200D01*
X150955097Y-106025913D01*
X158026816Y-106025913D01*
X158220046Y-106578320D01*
X158609964Y-107014732D01*
X159137209Y-107268709D01*
X159152974Y-107271358D01*
X159385000Y-107150217D01*
X159385000Y-105791000D01*
X158171076Y-105791000D01*
X158026816Y-106025913D01*
X150955097Y-106025913D01*
X150562959Y-105633091D01*
X149778541Y-105307372D01*
X148929185Y-105306630D01*
X148144200Y-105630980D01*
X147543091Y-106231041D01*
X147217372Y-107015459D01*
X147216630Y-107864815D01*
X140075757Y-107864815D01*
X140086654Y-107838573D01*
X140087343Y-107048891D01*
X139785782Y-106319057D01*
X139227880Y-105760181D01*
X138498573Y-105457346D01*
X137708891Y-105456657D01*
X136979057Y-105758218D01*
X136420181Y-106316120D01*
X136117346Y-107045427D01*
X136116657Y-107835109D01*
X128986657Y-107835109D01*
X128987370Y-107019185D01*
X128663020Y-106234200D01*
X128062959Y-105633091D01*
X127278541Y-105307372D01*
X126429185Y-105306630D01*
X125644200Y-105630980D01*
X125043091Y-106231041D01*
X124717372Y-107015459D01*
X124716630Y-107864815D01*
X116224705Y-107864815D01*
X116328628Y-107614541D01*
X116329370Y-106765185D01*
X116005020Y-105980200D01*
X115404959Y-105379091D01*
X115219513Y-105302087D01*
X158026816Y-105302087D01*
X158171076Y-105537000D01*
X159385000Y-105537000D01*
X159385000Y-104177783D01*
X159152974Y-104056642D01*
X159137209Y-104059291D01*
X158609964Y-104313268D01*
X158220046Y-104749680D01*
X158026816Y-105302087D01*
X115219513Y-105302087D01*
X114620541Y-105053372D01*
X113771185Y-105052630D01*
X112986200Y-105376980D01*
X112385091Y-105977041D01*
X112059372Y-106761459D01*
X112058630Y-107610815D01*
X104917757Y-107610815D01*
X104928654Y-107584573D01*
X104929343Y-106794891D01*
X104627782Y-106065057D01*
X104069880Y-105506181D01*
X103340573Y-105203346D01*
X102550891Y-105202657D01*
X101821057Y-105504218D01*
X101262181Y-106062120D01*
X100959346Y-106791427D01*
X100958657Y-107581109D01*
X93828657Y-107581109D01*
X93829370Y-106765185D01*
X93505020Y-105980200D01*
X92904959Y-105379091D01*
X92120541Y-105053372D01*
X91271185Y-105052630D01*
X90486200Y-105376980D01*
X89885091Y-105977041D01*
X89559372Y-106761459D01*
X89558630Y-107610815D01*
X89256853Y-107610815D01*
X89257370Y-107019185D01*
X88933020Y-106234200D01*
X88332959Y-105633091D01*
X87548541Y-105307372D01*
X86699185Y-105306630D01*
X85914200Y-105630980D01*
X85313091Y-106231041D01*
X84987372Y-107015459D01*
X84986630Y-107864815D01*
X77845757Y-107864815D01*
X77856654Y-107838573D01*
X77857343Y-107048891D01*
X77555782Y-106319057D01*
X76997880Y-105760181D01*
X76268573Y-105457346D01*
X75478891Y-105456657D01*
X74749057Y-105758218D01*
X74190181Y-106316120D01*
X73887346Y-107045427D01*
X73886657Y-107835109D01*
X66756657Y-107835109D01*
X66757370Y-107019185D01*
X66433020Y-106234200D01*
X65832959Y-105633091D01*
X65048541Y-105307372D01*
X64199185Y-105306630D01*
X63414200Y-105630980D01*
X62813091Y-106231041D01*
X62487372Y-107015459D01*
X62486630Y-107864815D01*
X54502705Y-107864815D01*
X54606628Y-107614541D01*
X54607370Y-106765185D01*
X54283020Y-105980200D01*
X53682959Y-105379091D01*
X52898541Y-105053372D01*
X52049185Y-105052630D01*
X51264200Y-105376980D01*
X50663091Y-105977041D01*
X50337372Y-106761459D01*
X50336630Y-107610815D01*
X43195757Y-107610815D01*
X43206654Y-107584573D01*
X43207343Y-106794891D01*
X42905782Y-106065057D01*
X42347880Y-105506181D01*
X41618573Y-105203346D01*
X40828891Y-105202657D01*
X40099057Y-105504218D01*
X39540181Y-106062120D01*
X39237346Y-106791427D01*
X39236657Y-107581109D01*
X32106657Y-107581109D01*
X32107370Y-106765185D01*
X31783020Y-105980200D01*
X31182959Y-105379091D01*
X30398541Y-105053372D01*
X29549185Y-105052630D01*
X28764200Y-105376980D01*
X28163091Y-105977041D01*
X27837372Y-106761459D01*
X27836630Y-107610815D01*
X12902000Y-107610815D01*
X12902000Y-102723913D01*
X158026816Y-102723913D01*
X158220046Y-103276320D01*
X158609964Y-103712732D01*
X159137209Y-103966709D01*
X159152974Y-103969358D01*
X159385000Y-103848217D01*
X159385000Y-102489000D01*
X158171076Y-102489000D01*
X158026816Y-102723913D01*
X12902000Y-102723913D01*
X12902000Y-102000087D01*
X158026816Y-102000087D01*
X158171076Y-102235000D01*
X159385000Y-102235000D01*
X159385000Y-100875783D01*
X159639000Y-100875783D01*
X159639000Y-102235000D01*
X159659000Y-102235000D01*
X159659000Y-102489000D01*
X159639000Y-102489000D01*
X159639000Y-103848217D01*
X159871026Y-103969358D01*
X159886791Y-103966709D01*
X160414036Y-103712732D01*
X160785539Y-103296931D01*
X160992330Y-103606415D01*
X161478511Y-103931271D01*
X161889391Y-104013000D01*
X161478511Y-104094729D01*
X160992330Y-104419585D01*
X160785539Y-104729069D01*
X160414036Y-104313268D01*
X159886791Y-104059291D01*
X159871026Y-104056642D01*
X159639000Y-104177783D01*
X159639000Y-105537000D01*
X159659000Y-105537000D01*
X159659000Y-105791000D01*
X159639000Y-105791000D01*
X159639000Y-107150217D01*
X159871026Y-107271358D01*
X159886791Y-107268709D01*
X160414036Y-107014732D01*
X160785539Y-106598931D01*
X160992330Y-106908415D01*
X161478511Y-107233271D01*
X162052000Y-107347345D01*
X162625489Y-107233271D01*
X163111670Y-106908415D01*
X163121243Y-106894087D01*
X163125238Y-106915317D01*
X163264310Y-107131441D01*
X163476510Y-107276431D01*
X163728400Y-107327440D01*
X165455600Y-107327440D01*
X165690917Y-107283162D01*
X165907041Y-107144090D01*
X166052031Y-106931890D01*
X166103040Y-106680000D01*
X166103040Y-105263913D01*
X197142816Y-105263913D01*
X197336046Y-105816320D01*
X197725964Y-106252732D01*
X198253209Y-106506709D01*
X198268974Y-106509358D01*
X198501000Y-106388217D01*
X198501000Y-105029000D01*
X197287076Y-105029000D01*
X197142816Y-105263913D01*
X166103040Y-105263913D01*
X166103040Y-104648000D01*
X166058762Y-104412683D01*
X165919690Y-104196559D01*
X165707490Y-104051569D01*
X165519286Y-104013457D01*
X165690917Y-103981162D01*
X165907041Y-103842090D01*
X166052031Y-103629890D01*
X166103040Y-103378000D01*
X166103040Y-101346000D01*
X166067067Y-101154815D01*
X166520630Y-101154815D01*
X166844980Y-101939800D01*
X167445041Y-102540909D01*
X168229459Y-102866628D01*
X169078815Y-102867370D01*
X169863800Y-102543020D01*
X170464909Y-101942959D01*
X170790628Y-101158541D01*
X170790631Y-101154815D01*
X173378630Y-101154815D01*
X173702980Y-101939800D01*
X174303041Y-102540909D01*
X175087459Y-102866628D01*
X175936815Y-102867370D01*
X176721800Y-102543020D01*
X177322909Y-101942959D01*
X177648628Y-101158541D01*
X177648631Y-101154815D01*
X183792630Y-101154815D01*
X184116980Y-101939800D01*
X184717041Y-102540909D01*
X185501459Y-102866628D01*
X186350815Y-102867370D01*
X187135800Y-102543020D01*
X187736909Y-101942959D01*
X188062628Y-101158541D01*
X188062631Y-101154815D01*
X190650630Y-101154815D01*
X190974980Y-101939800D01*
X191575041Y-102540909D01*
X192359459Y-102866628D01*
X193208815Y-102867370D01*
X193993800Y-102543020D01*
X194321478Y-102215913D01*
X197142816Y-102215913D01*
X197336046Y-102768320D01*
X197725964Y-103204732D01*
X198085661Y-103378000D01*
X197725964Y-103551268D01*
X197336046Y-103987680D01*
X197142816Y-104540087D01*
X197287076Y-104775000D01*
X198501000Y-104775000D01*
X198501000Y-103415783D01*
X198428633Y-103378000D01*
X198501000Y-103340217D01*
X198501000Y-101981000D01*
X197287076Y-101981000D01*
X197142816Y-102215913D01*
X194321478Y-102215913D01*
X194594909Y-101942959D01*
X194782127Y-101492087D01*
X197142816Y-101492087D01*
X197287076Y-101727000D01*
X198501000Y-101727000D01*
X198501000Y-100367783D01*
X198755000Y-100367783D01*
X198755000Y-101727000D01*
X198775000Y-101727000D01*
X198775000Y-101981000D01*
X198755000Y-101981000D01*
X198755000Y-103340217D01*
X198827367Y-103378000D01*
X198755000Y-103415783D01*
X198755000Y-104775000D01*
X198775000Y-104775000D01*
X198775000Y-105029000D01*
X198755000Y-105029000D01*
X198755000Y-106388217D01*
X198987026Y-106509358D01*
X199002791Y-106506709D01*
X199530036Y-106252732D01*
X199901539Y-105836931D01*
X200108330Y-106146415D01*
X200594511Y-106471271D01*
X201168000Y-106585345D01*
X201741489Y-106471271D01*
X202227670Y-106146415D01*
X202237243Y-106132087D01*
X202241238Y-106153317D01*
X202380310Y-106369441D01*
X202592510Y-106514431D01*
X202844400Y-106565440D01*
X204571600Y-106565440D01*
X204806917Y-106521162D01*
X205023041Y-106382090D01*
X205168031Y-106169890D01*
X205219040Y-105918000D01*
X205219040Y-103886000D01*
X205174762Y-103650683D01*
X205035690Y-103434559D01*
X204953830Y-103378626D01*
X205023041Y-103334090D01*
X205168031Y-103121890D01*
X205219040Y-102870000D01*
X205219040Y-100838000D01*
X205174762Y-100602683D01*
X205035690Y-100386559D01*
X204823490Y-100241569D01*
X204571600Y-100190560D01*
X202844400Y-100190560D01*
X202609083Y-100234838D01*
X202392959Y-100373910D01*
X202247969Y-100586110D01*
X202239600Y-100627439D01*
X202227670Y-100609585D01*
X201741489Y-100284729D01*
X201168000Y-100170655D01*
X200594511Y-100284729D01*
X200108330Y-100609585D01*
X199901539Y-100919069D01*
X199530036Y-100503268D01*
X199002791Y-100249291D01*
X198987026Y-100246642D01*
X198755000Y-100367783D01*
X198501000Y-100367783D01*
X198268974Y-100246642D01*
X198253209Y-100249291D01*
X197725964Y-100503268D01*
X197336046Y-100939680D01*
X197142816Y-101492087D01*
X194782127Y-101492087D01*
X194920628Y-101158541D01*
X194921370Y-100309185D01*
X194597020Y-99524200D01*
X193996959Y-98923091D01*
X193212541Y-98597372D01*
X192363185Y-98596630D01*
X191578200Y-98920980D01*
X190977091Y-99521041D01*
X190651372Y-100305459D01*
X190650630Y-101154815D01*
X188062631Y-101154815D01*
X188063370Y-100309185D01*
X187739020Y-99524200D01*
X187138959Y-98923091D01*
X186354541Y-98597372D01*
X185505185Y-98596630D01*
X184720200Y-98920980D01*
X184119091Y-99521041D01*
X183793372Y-100305459D01*
X183792630Y-101154815D01*
X177648631Y-101154815D01*
X177649370Y-100309185D01*
X177325020Y-99524200D01*
X176724959Y-98923091D01*
X175940541Y-98597372D01*
X175091185Y-98596630D01*
X174306200Y-98920980D01*
X173705091Y-99521041D01*
X173379372Y-100305459D01*
X173378630Y-101154815D01*
X170790631Y-101154815D01*
X170791370Y-100309185D01*
X170467020Y-99524200D01*
X169866959Y-98923091D01*
X169082541Y-98597372D01*
X168233185Y-98596630D01*
X167448200Y-98920980D01*
X166847091Y-99521041D01*
X166521372Y-100305459D01*
X166520630Y-101154815D01*
X166067067Y-101154815D01*
X166058762Y-101110683D01*
X165919690Y-100894559D01*
X165707490Y-100749569D01*
X165455600Y-100698560D01*
X163728400Y-100698560D01*
X163493083Y-100742838D01*
X163276959Y-100881910D01*
X163131969Y-101094110D01*
X163123600Y-101135439D01*
X163111670Y-101117585D01*
X162625489Y-100792729D01*
X162052000Y-100678655D01*
X161478511Y-100792729D01*
X160992330Y-101117585D01*
X160785539Y-101427069D01*
X160414036Y-101011268D01*
X159886791Y-100757291D01*
X159871026Y-100754642D01*
X159639000Y-100875783D01*
X159385000Y-100875783D01*
X159152974Y-100754642D01*
X159137209Y-100757291D01*
X158609964Y-101011268D01*
X158220046Y-101447680D01*
X158026816Y-102000087D01*
X12902000Y-102000087D01*
X12902000Y-98720815D01*
X29868630Y-98720815D01*
X30192980Y-99505800D01*
X30793041Y-100106909D01*
X31577459Y-100432628D01*
X32426815Y-100433370D01*
X33211800Y-100109020D01*
X33812909Y-99508959D01*
X34138628Y-98724541D01*
X34138631Y-98720815D01*
X52368630Y-98720815D01*
X52692980Y-99505800D01*
X53293041Y-100106909D01*
X54077459Y-100432628D01*
X54926815Y-100433370D01*
X55711800Y-100109020D01*
X56312909Y-99508959D01*
X56638628Y-98724541D01*
X56638853Y-98466815D01*
X56898630Y-98466815D01*
X57222980Y-99251800D01*
X57823041Y-99852909D01*
X58607459Y-100178628D01*
X59456815Y-100179370D01*
X60241800Y-99855020D01*
X60842909Y-99254959D01*
X61168628Y-98470541D01*
X61168631Y-98466815D01*
X79398630Y-98466815D01*
X79722980Y-99251800D01*
X80323041Y-99852909D01*
X81107459Y-100178628D01*
X81956815Y-100179370D01*
X82741800Y-99855020D01*
X83342909Y-99254959D01*
X83564705Y-98720815D01*
X93876630Y-98720815D01*
X94200980Y-99505800D01*
X94801041Y-100106909D01*
X95585459Y-100432628D01*
X96434815Y-100433370D01*
X97219800Y-100109020D01*
X97820909Y-99508959D01*
X98146628Y-98724541D01*
X98146631Y-98720815D01*
X116376630Y-98720815D01*
X116700980Y-99505800D01*
X117301041Y-100106909D01*
X118085459Y-100432628D01*
X118934815Y-100433370D01*
X119719800Y-100109020D01*
X120320909Y-99508959D01*
X120646628Y-98724541D01*
X120646631Y-98720815D01*
X122938630Y-98720815D01*
X123262980Y-99505800D01*
X123863041Y-100106909D01*
X124647459Y-100432628D01*
X125496815Y-100433370D01*
X126281800Y-100109020D01*
X126882909Y-99508959D01*
X127208628Y-98724541D01*
X127208631Y-98720815D01*
X145438630Y-98720815D01*
X145762980Y-99505800D01*
X146363041Y-100106909D01*
X147147459Y-100432628D01*
X147996815Y-100433370D01*
X148781800Y-100109020D01*
X149382909Y-99508959D01*
X149708628Y-98724541D01*
X149708814Y-98511109D01*
X218486657Y-98511109D01*
X218788218Y-99240943D01*
X219346120Y-99799819D01*
X220075427Y-100102654D01*
X220865109Y-100103343D01*
X221594943Y-99801782D01*
X222153819Y-99243880D01*
X222456654Y-98514573D01*
X222456878Y-98257109D01*
X234234657Y-98257109D01*
X234536218Y-98986943D01*
X235094120Y-99545819D01*
X235823427Y-99848654D01*
X236613109Y-99849343D01*
X237342943Y-99547782D01*
X237901819Y-98989880D01*
X238100622Y-98511109D01*
X250490657Y-98511109D01*
X250792218Y-99240943D01*
X251350120Y-99799819D01*
X252079427Y-100102654D01*
X252869109Y-100103343D01*
X253598943Y-99801782D01*
X254157819Y-99243880D01*
X254460654Y-98514573D01*
X254461343Y-97724891D01*
X254159782Y-96995057D01*
X253601880Y-96436181D01*
X252872573Y-96133346D01*
X252082891Y-96132657D01*
X251353057Y-96434218D01*
X250794181Y-96992120D01*
X250491346Y-97721427D01*
X250490657Y-98511109D01*
X238100622Y-98511109D01*
X238204654Y-98260573D01*
X238205343Y-97470891D01*
X237903782Y-96741057D01*
X237345880Y-96182181D01*
X236616573Y-95879346D01*
X235826891Y-95878657D01*
X235097057Y-96180218D01*
X234538181Y-96738120D01*
X234235346Y-97467427D01*
X234234657Y-98257109D01*
X222456878Y-98257109D01*
X222457343Y-97724891D01*
X222155782Y-96995057D01*
X221597880Y-96436181D01*
X220868573Y-96133346D01*
X220078891Y-96132657D01*
X219349057Y-96434218D01*
X218790181Y-96992120D01*
X218487346Y-97721427D01*
X218486657Y-98511109D01*
X149708814Y-98511109D01*
X149709370Y-97875185D01*
X149385020Y-97090200D01*
X148784959Y-96489091D01*
X148000541Y-96163372D01*
X147151185Y-96162630D01*
X146366200Y-96486980D01*
X145765091Y-97087041D01*
X145439372Y-97871459D01*
X145438630Y-98720815D01*
X127208631Y-98720815D01*
X127209370Y-97875185D01*
X126885020Y-97090200D01*
X126284959Y-96489091D01*
X125500541Y-96163372D01*
X124651185Y-96162630D01*
X123866200Y-96486980D01*
X123265091Y-97087041D01*
X122939372Y-97871459D01*
X122938630Y-98720815D01*
X120646631Y-98720815D01*
X120647370Y-97875185D01*
X120323020Y-97090200D01*
X119722959Y-96489091D01*
X118938541Y-96163372D01*
X118089185Y-96162630D01*
X117304200Y-96486980D01*
X116703091Y-97087041D01*
X116377372Y-97871459D01*
X116376630Y-98720815D01*
X98146631Y-98720815D01*
X98147370Y-97875185D01*
X97823020Y-97090200D01*
X97222959Y-96489091D01*
X96438541Y-96163372D01*
X95589185Y-96162630D01*
X94804200Y-96486980D01*
X94203091Y-97087041D01*
X93877372Y-97871459D01*
X93876630Y-98720815D01*
X83564705Y-98720815D01*
X83668628Y-98470541D01*
X83669370Y-97621185D01*
X83345020Y-96836200D01*
X82744959Y-96235091D01*
X81960541Y-95909372D01*
X81111185Y-95908630D01*
X80326200Y-96232980D01*
X79725091Y-96833041D01*
X79399372Y-97617459D01*
X79398630Y-98466815D01*
X61168631Y-98466815D01*
X61169370Y-97621185D01*
X60845020Y-96836200D01*
X60244959Y-96235091D01*
X59460541Y-95909372D01*
X58611185Y-95908630D01*
X57826200Y-96232980D01*
X57225091Y-96833041D01*
X56899372Y-97617459D01*
X56898630Y-98466815D01*
X56638853Y-98466815D01*
X56639370Y-97875185D01*
X56315020Y-97090200D01*
X55714959Y-96489091D01*
X54930541Y-96163372D01*
X54081185Y-96162630D01*
X53296200Y-96486980D01*
X52695091Y-97087041D01*
X52369372Y-97871459D01*
X52368630Y-98720815D01*
X34138631Y-98720815D01*
X34139370Y-97875185D01*
X33815020Y-97090200D01*
X33214959Y-96489091D01*
X32430541Y-96163372D01*
X31581185Y-96162630D01*
X30796200Y-96486980D01*
X30195091Y-97087041D01*
X29869372Y-97871459D01*
X29868630Y-98720815D01*
X12902000Y-98720815D01*
X12902000Y-91354815D01*
X30122630Y-91354815D01*
X30446980Y-92139800D01*
X31047041Y-92740909D01*
X31831459Y-93066628D01*
X32680815Y-93067370D01*
X33465800Y-92743020D01*
X34066909Y-92142959D01*
X34392628Y-91358541D01*
X34392657Y-91325109D01*
X41522657Y-91325109D01*
X41824218Y-92054943D01*
X42382120Y-92613819D01*
X43111427Y-92916654D01*
X43901109Y-92917343D01*
X44630943Y-92615782D01*
X45189819Y-92057880D01*
X45481757Y-91354815D01*
X52622630Y-91354815D01*
X52946980Y-92139800D01*
X53547041Y-92740909D01*
X54331459Y-93066628D01*
X55180815Y-93067370D01*
X55965800Y-92743020D01*
X56566909Y-92142959D01*
X56892628Y-91358541D01*
X56892631Y-91354815D01*
X57152630Y-91354815D01*
X57476980Y-92139800D01*
X58077041Y-92740909D01*
X58861459Y-93066628D01*
X59710815Y-93067370D01*
X60495800Y-92743020D01*
X61096909Y-92142959D01*
X61422628Y-91358541D01*
X61422657Y-91325109D01*
X68552657Y-91325109D01*
X68854218Y-92054943D01*
X69412120Y-92613819D01*
X70141427Y-92916654D01*
X70931109Y-92917343D01*
X71660943Y-92615782D01*
X72219819Y-92057880D01*
X72511757Y-91354815D01*
X79652630Y-91354815D01*
X79976980Y-92139800D01*
X80577041Y-92740909D01*
X81361459Y-93066628D01*
X82210815Y-93067370D01*
X82995800Y-92743020D01*
X83596909Y-92142959D01*
X83713235Y-91862815D01*
X93876630Y-91862815D01*
X94200980Y-92647800D01*
X94801041Y-93248909D01*
X95585459Y-93574628D01*
X96434815Y-93575370D01*
X97219800Y-93251020D01*
X97820909Y-92650959D01*
X98146628Y-91866541D01*
X98146657Y-91833109D01*
X105276657Y-91833109D01*
X105578218Y-92562943D01*
X106136120Y-93121819D01*
X106865427Y-93424654D01*
X107655109Y-93425343D01*
X108384943Y-93123782D01*
X108943819Y-92565880D01*
X109235757Y-91862815D01*
X116376630Y-91862815D01*
X116700980Y-92647800D01*
X117301041Y-93248909D01*
X118085459Y-93574628D01*
X118934815Y-93575370D01*
X119719800Y-93251020D01*
X120320909Y-92650959D01*
X120646628Y-91866541D01*
X120646631Y-91862815D01*
X122938630Y-91862815D01*
X123262980Y-92647800D01*
X123863041Y-93248909D01*
X124647459Y-93574628D01*
X125496815Y-93575370D01*
X126281800Y-93251020D01*
X126882909Y-92650959D01*
X127208628Y-91866541D01*
X127208657Y-91833109D01*
X134338657Y-91833109D01*
X134640218Y-92562943D01*
X135198120Y-93121819D01*
X135927427Y-93424654D01*
X136717109Y-93425343D01*
X137446943Y-93123782D01*
X138005819Y-92565880D01*
X138297757Y-91862815D01*
X145438630Y-91862815D01*
X145762980Y-92647800D01*
X146363041Y-93248909D01*
X147147459Y-93574628D01*
X147996815Y-93575370D01*
X148781800Y-93251020D01*
X149382909Y-92650959D01*
X149708628Y-91866541D01*
X149709370Y-91017185D01*
X149385020Y-90232200D01*
X149028552Y-89875109D01*
X173528657Y-89875109D01*
X173830218Y-90604943D01*
X174388120Y-91163819D01*
X175117427Y-91466654D01*
X175907109Y-91467343D01*
X176636943Y-91165782D01*
X177195819Y-90607880D01*
X177498654Y-89878573D01*
X177498657Y-89875109D01*
X183942657Y-89875109D01*
X184244218Y-90604943D01*
X184802120Y-91163819D01*
X185531427Y-91466654D01*
X186321109Y-91467343D01*
X187050943Y-91165782D01*
X187609819Y-90607880D01*
X187912654Y-89878573D01*
X187913343Y-89088891D01*
X187611782Y-88359057D01*
X187053880Y-87800181D01*
X186324573Y-87497346D01*
X185534891Y-87496657D01*
X184805057Y-87798218D01*
X184246181Y-88356120D01*
X183943346Y-89085427D01*
X183942657Y-89875109D01*
X177498657Y-89875109D01*
X177499343Y-89088891D01*
X177197782Y-88359057D01*
X176639880Y-87800181D01*
X175910573Y-87497346D01*
X175120891Y-87496657D01*
X174391057Y-87798218D01*
X173832181Y-88356120D01*
X173529346Y-89085427D01*
X173528657Y-89875109D01*
X149028552Y-89875109D01*
X148784959Y-89631091D01*
X148000541Y-89305372D01*
X147151185Y-89304630D01*
X146366200Y-89628980D01*
X145765091Y-90229041D01*
X145439372Y-91013459D01*
X145438630Y-91862815D01*
X138297757Y-91862815D01*
X138308654Y-91836573D01*
X138309343Y-91046891D01*
X138007782Y-90317057D01*
X137449880Y-89758181D01*
X136720573Y-89455346D01*
X135930891Y-89454657D01*
X135201057Y-89756218D01*
X134642181Y-90314120D01*
X134339346Y-91043427D01*
X134338657Y-91833109D01*
X127208657Y-91833109D01*
X127209370Y-91017185D01*
X126885020Y-90232200D01*
X126284959Y-89631091D01*
X125500541Y-89305372D01*
X124651185Y-89304630D01*
X123866200Y-89628980D01*
X123265091Y-90229041D01*
X122939372Y-91013459D01*
X122938630Y-91862815D01*
X120646631Y-91862815D01*
X120647370Y-91017185D01*
X120323020Y-90232200D01*
X119722959Y-89631091D01*
X118938541Y-89305372D01*
X118089185Y-89304630D01*
X117304200Y-89628980D01*
X116703091Y-90229041D01*
X116377372Y-91013459D01*
X116376630Y-91862815D01*
X109235757Y-91862815D01*
X109246654Y-91836573D01*
X109247343Y-91046891D01*
X108945782Y-90317057D01*
X108387880Y-89758181D01*
X107658573Y-89455346D01*
X106868891Y-89454657D01*
X106139057Y-89756218D01*
X105580181Y-90314120D01*
X105277346Y-91043427D01*
X105276657Y-91833109D01*
X98146657Y-91833109D01*
X98147370Y-91017185D01*
X97823020Y-90232200D01*
X97222959Y-89631091D01*
X96438541Y-89305372D01*
X95589185Y-89304630D01*
X94804200Y-89628980D01*
X94203091Y-90229041D01*
X93877372Y-91013459D01*
X93876630Y-91862815D01*
X83713235Y-91862815D01*
X83922628Y-91358541D01*
X83923370Y-90509185D01*
X83599020Y-89724200D01*
X82998959Y-89123091D01*
X82214541Y-88797372D01*
X81365185Y-88796630D01*
X80580200Y-89120980D01*
X79979091Y-89721041D01*
X79653372Y-90505459D01*
X79652630Y-91354815D01*
X72511757Y-91354815D01*
X72522654Y-91328573D01*
X72523343Y-90538891D01*
X72221782Y-89809057D01*
X71663880Y-89250181D01*
X70934573Y-88947346D01*
X70144891Y-88946657D01*
X69415057Y-89248218D01*
X68856181Y-89806120D01*
X68553346Y-90535427D01*
X68552657Y-91325109D01*
X61422657Y-91325109D01*
X61423370Y-90509185D01*
X61099020Y-89724200D01*
X60498959Y-89123091D01*
X59714541Y-88797372D01*
X58865185Y-88796630D01*
X58080200Y-89120980D01*
X57479091Y-89721041D01*
X57153372Y-90505459D01*
X57152630Y-91354815D01*
X56892631Y-91354815D01*
X56893370Y-90509185D01*
X56569020Y-89724200D01*
X55968959Y-89123091D01*
X55184541Y-88797372D01*
X54335185Y-88796630D01*
X53550200Y-89120980D01*
X52949091Y-89721041D01*
X52623372Y-90505459D01*
X52622630Y-91354815D01*
X45481757Y-91354815D01*
X45492654Y-91328573D01*
X45493343Y-90538891D01*
X45191782Y-89809057D01*
X44633880Y-89250181D01*
X43904573Y-88947346D01*
X43114891Y-88946657D01*
X42385057Y-89248218D01*
X41826181Y-89806120D01*
X41523346Y-90535427D01*
X41522657Y-91325109D01*
X34392657Y-91325109D01*
X34393370Y-90509185D01*
X34069020Y-89724200D01*
X33468959Y-89123091D01*
X32684541Y-88797372D01*
X31835185Y-88796630D01*
X31050200Y-89120980D01*
X30449091Y-89721041D01*
X30123372Y-90505459D01*
X30122630Y-91354815D01*
X12902000Y-91354815D01*
X12902000Y-87290815D01*
X211732630Y-87290815D01*
X212056980Y-88075800D01*
X212657041Y-88676909D01*
X213441459Y-89002628D01*
X214290815Y-89003370D01*
X215075800Y-88679020D01*
X215676909Y-88078959D01*
X216002628Y-87294541D01*
X216002631Y-87290815D01*
X218336630Y-87290815D01*
X218660980Y-88075800D01*
X219261041Y-88676909D01*
X220045459Y-89002628D01*
X220894815Y-89003370D01*
X221679800Y-88679020D01*
X222280909Y-88078959D01*
X222606628Y-87294541D01*
X222606853Y-87036815D01*
X227226630Y-87036815D01*
X227550980Y-87821800D01*
X228151041Y-88422909D01*
X228935459Y-88748628D01*
X229784815Y-88749370D01*
X230569800Y-88425020D01*
X231170909Y-87824959D01*
X231496628Y-87040541D01*
X231496631Y-87036815D01*
X234084630Y-87036815D01*
X234408980Y-87821800D01*
X235009041Y-88422909D01*
X235793459Y-88748628D01*
X236642815Y-88749370D01*
X237427800Y-88425020D01*
X238028909Y-87824959D01*
X238250705Y-87290815D01*
X243228630Y-87290815D01*
X243552980Y-88075800D01*
X244153041Y-88676909D01*
X244937459Y-89002628D01*
X245786815Y-89003370D01*
X246571800Y-88679020D01*
X247172909Y-88078959D01*
X247498628Y-87294541D01*
X247498631Y-87290815D01*
X250340630Y-87290815D01*
X250664980Y-88075800D01*
X251265041Y-88676909D01*
X252049459Y-89002628D01*
X252898815Y-89003370D01*
X253683800Y-88679020D01*
X254284909Y-88078959D01*
X254610628Y-87294541D01*
X254611370Y-86445185D01*
X254287020Y-85660200D01*
X253686959Y-85059091D01*
X252902541Y-84733372D01*
X252053185Y-84732630D01*
X251268200Y-85056980D01*
X250667091Y-85657041D01*
X250341372Y-86441459D01*
X250340630Y-87290815D01*
X247498631Y-87290815D01*
X247499370Y-86445185D01*
X247175020Y-85660200D01*
X246574959Y-85059091D01*
X245790541Y-84733372D01*
X244941185Y-84732630D01*
X244156200Y-85056980D01*
X243555091Y-85657041D01*
X243229372Y-86441459D01*
X243228630Y-87290815D01*
X238250705Y-87290815D01*
X238354628Y-87040541D01*
X238355370Y-86191185D01*
X238031020Y-85406200D01*
X237430959Y-84805091D01*
X236646541Y-84479372D01*
X235797185Y-84478630D01*
X235012200Y-84802980D01*
X234411091Y-85403041D01*
X234085372Y-86187459D01*
X234084630Y-87036815D01*
X231496631Y-87036815D01*
X231497370Y-86191185D01*
X231173020Y-85406200D01*
X230572959Y-84805091D01*
X229788541Y-84479372D01*
X228939185Y-84478630D01*
X228154200Y-84802980D01*
X227553091Y-85403041D01*
X227227372Y-86187459D01*
X227226630Y-87036815D01*
X222606853Y-87036815D01*
X222607370Y-86445185D01*
X222283020Y-85660200D01*
X221682959Y-85059091D01*
X220898541Y-84733372D01*
X220049185Y-84732630D01*
X219264200Y-85056980D01*
X218663091Y-85657041D01*
X218337372Y-86441459D01*
X218336630Y-87290815D01*
X216002631Y-87290815D01*
X216003370Y-86445185D01*
X215679020Y-85660200D01*
X215078959Y-85059091D01*
X214294541Y-84733372D01*
X213445185Y-84732630D01*
X212660200Y-85056980D01*
X212059091Y-85657041D01*
X211733372Y-86441459D01*
X211732630Y-87290815D01*
X12902000Y-87290815D01*
X12902000Y-78654815D01*
X166520630Y-78654815D01*
X166844980Y-79439800D01*
X167445041Y-80040909D01*
X168229459Y-80366628D01*
X169078815Y-80367370D01*
X169863800Y-80043020D01*
X170464909Y-79442959D01*
X170790628Y-78658541D01*
X170790631Y-78654815D01*
X173378630Y-78654815D01*
X173702980Y-79439800D01*
X174303041Y-80040909D01*
X175087459Y-80366628D01*
X175936815Y-80367370D01*
X176721800Y-80043020D01*
X177322909Y-79442959D01*
X177648628Y-78658541D01*
X177648631Y-78654815D01*
X183792630Y-78654815D01*
X184116980Y-79439800D01*
X184717041Y-80040909D01*
X185501459Y-80366628D01*
X186350815Y-80367370D01*
X187135800Y-80043020D01*
X187736909Y-79442959D01*
X188062628Y-78658541D01*
X188062631Y-78654815D01*
X190650630Y-78654815D01*
X190974980Y-79439800D01*
X191575041Y-80040909D01*
X192359459Y-80366628D01*
X193208815Y-80367370D01*
X193993800Y-80043020D01*
X194594909Y-79442959D01*
X194920628Y-78658541D01*
X194921370Y-77809185D01*
X194597020Y-77024200D01*
X193996959Y-76423091D01*
X193212541Y-76097372D01*
X192363185Y-76096630D01*
X191578200Y-76420980D01*
X190977091Y-77021041D01*
X190651372Y-77805459D01*
X190650630Y-78654815D01*
X188062631Y-78654815D01*
X188063370Y-77809185D01*
X187739020Y-77024200D01*
X187138959Y-76423091D01*
X186354541Y-76097372D01*
X185505185Y-76096630D01*
X184720200Y-76420980D01*
X184119091Y-77021041D01*
X183793372Y-77805459D01*
X183792630Y-78654815D01*
X177648631Y-78654815D01*
X177649370Y-77809185D01*
X177325020Y-77024200D01*
X176724959Y-76423091D01*
X175940541Y-76097372D01*
X175091185Y-76096630D01*
X174306200Y-76420980D01*
X173705091Y-77021041D01*
X173379372Y-77805459D01*
X173378630Y-78654815D01*
X170790631Y-78654815D01*
X170791370Y-77809185D01*
X170467020Y-77024200D01*
X169866959Y-76423091D01*
X169082541Y-76097372D01*
X168233185Y-76096630D01*
X167448200Y-76420980D01*
X166847091Y-77021041D01*
X166521372Y-77805459D01*
X166520630Y-78654815D01*
X12902000Y-78654815D01*
X12902000Y-73914000D01*
X170827000Y-73914000D01*
X170932427Y-74444016D01*
X171232657Y-74893343D01*
X171681984Y-75193573D01*
X172212000Y-75299000D01*
X172742016Y-75193573D01*
X173191343Y-74893343D01*
X173445343Y-74639343D01*
X173745573Y-74190016D01*
X173851000Y-73660000D01*
X173745573Y-73129984D01*
X173445343Y-72680657D01*
X172996016Y-72380427D01*
X172466000Y-72275000D01*
X171935984Y-72380427D01*
X171486657Y-72680657D01*
X171232657Y-72934657D01*
X170932427Y-73383984D01*
X170827000Y-73914000D01*
X12902000Y-73914000D01*
X12902000Y-39538815D01*
X14120630Y-39538815D01*
X14444980Y-40323800D01*
X15045041Y-40924909D01*
X15829459Y-41250628D01*
X16678815Y-41251370D01*
X17463800Y-40927020D01*
X18064909Y-40326959D01*
X18286705Y-39792815D01*
X258722630Y-39792815D01*
X259046980Y-40577800D01*
X259647041Y-41178909D01*
X260431459Y-41504628D01*
X261280815Y-41505370D01*
X262065800Y-41181020D01*
X262666909Y-40580959D01*
X262992628Y-39796541D01*
X262993370Y-38947185D01*
X262669020Y-38162200D01*
X262068959Y-37561091D01*
X261284541Y-37235372D01*
X260435185Y-37234630D01*
X259650200Y-37558980D01*
X259049091Y-38159041D01*
X258723372Y-38943459D01*
X258722630Y-39792815D01*
X18286705Y-39792815D01*
X18390628Y-39542541D01*
X18391370Y-38693185D01*
X18067020Y-37908200D01*
X17466959Y-37307091D01*
X16682541Y-36981372D01*
X15833185Y-36980630D01*
X15048200Y-37304980D01*
X14447091Y-37905041D01*
X14121372Y-38689459D01*
X14120630Y-39538815D01*
X12902000Y-39538815D01*
X12902000Y-33411970D01*
X17487635Y-33411970D01*
X17647418Y-33730739D01*
X18438187Y-34040723D01*
X19287387Y-34024497D01*
X19996582Y-33730739D01*
X20156365Y-33411970D01*
X21287635Y-33411970D01*
X21447418Y-33730739D01*
X22238187Y-34040723D01*
X23087387Y-34024497D01*
X23796582Y-33730739D01*
X23956365Y-33411970D01*
X22622000Y-32077605D01*
X21287635Y-33411970D01*
X20156365Y-33411970D01*
X18822000Y-32077605D01*
X17487635Y-33411970D01*
X12902000Y-33411970D01*
X12902000Y-31514187D01*
X16679277Y-31514187D01*
X16695503Y-32363387D01*
X16989261Y-33072582D01*
X17308030Y-33232365D01*
X18642395Y-31898000D01*
X19001605Y-31898000D01*
X20335970Y-33232365D01*
X20654739Y-33072582D01*
X20720147Y-32905726D01*
X20789261Y-33072582D01*
X21108030Y-33232365D01*
X22442395Y-31898000D01*
X22801605Y-31898000D01*
X24135970Y-33232365D01*
X24454739Y-33072582D01*
X24479283Y-33009970D01*
X29399635Y-33009970D01*
X29559418Y-33328739D01*
X30350187Y-33638723D01*
X31199387Y-33622497D01*
X31908582Y-33328739D01*
X32068365Y-33009970D01*
X30734000Y-31675605D01*
X29399635Y-33009970D01*
X24479283Y-33009970D01*
X24764723Y-32281813D01*
X24748497Y-31432613D01*
X24615773Y-31112187D01*
X28591277Y-31112187D01*
X28607503Y-31961387D01*
X28901261Y-32670582D01*
X29220030Y-32830365D01*
X30554395Y-31496000D01*
X30913605Y-31496000D01*
X32247970Y-32830365D01*
X32566739Y-32670582D01*
X32876723Y-31879813D01*
X32860497Y-31030613D01*
X32566739Y-30321418D01*
X32247970Y-30161635D01*
X30913605Y-31496000D01*
X30554395Y-31496000D01*
X29220030Y-30161635D01*
X28901261Y-30321418D01*
X28591277Y-31112187D01*
X24615773Y-31112187D01*
X24454739Y-30723418D01*
X24135970Y-30563635D01*
X22801605Y-31898000D01*
X22442395Y-31898000D01*
X21108030Y-30563635D01*
X20789261Y-30723418D01*
X20723853Y-30890274D01*
X20654739Y-30723418D01*
X20335970Y-30563635D01*
X19001605Y-31898000D01*
X18642395Y-31898000D01*
X17308030Y-30563635D01*
X16989261Y-30723418D01*
X16679277Y-31514187D01*
X12902000Y-31514187D01*
X12902000Y-30384030D01*
X17487635Y-30384030D01*
X18822000Y-31718395D01*
X20156365Y-30384030D01*
X21287635Y-30384030D01*
X22622000Y-31718395D01*
X23956365Y-30384030D01*
X23796582Y-30065261D01*
X23005813Y-29755277D01*
X22156613Y-29771503D01*
X21447418Y-30065261D01*
X21287635Y-30384030D01*
X20156365Y-30384030D01*
X19996582Y-30065261D01*
X19205813Y-29755277D01*
X18356613Y-29771503D01*
X17647418Y-30065261D01*
X17487635Y-30384030D01*
X12902000Y-30384030D01*
X12902000Y-29009970D01*
X29399635Y-29009970D01*
X29559418Y-29328739D01*
X29974346Y-29491392D01*
X29559418Y-29663261D01*
X29399635Y-29982030D01*
X30734000Y-31316395D01*
X32068365Y-29982030D01*
X31908582Y-29663261D01*
X31493654Y-29500608D01*
X31908582Y-29328739D01*
X32068365Y-29009970D01*
X30734000Y-27675605D01*
X29399635Y-29009970D01*
X12902000Y-29009970D01*
X12902000Y-27112187D01*
X28591277Y-27112187D01*
X28607503Y-27961387D01*
X28901261Y-28670582D01*
X29220030Y-28830365D01*
X30554395Y-27496000D01*
X30913605Y-27496000D01*
X32247970Y-28830365D01*
X32566739Y-28670582D01*
X32876723Y-27879813D01*
X32860497Y-27030613D01*
X32566739Y-26321418D01*
X32247970Y-26161635D01*
X30913605Y-27496000D01*
X30554395Y-27496000D01*
X29220030Y-26161635D01*
X28901261Y-26321418D01*
X28591277Y-27112187D01*
X12902000Y-27112187D01*
X12902000Y-25009970D01*
X29399635Y-25009970D01*
X29559418Y-25328739D01*
X29974346Y-25491392D01*
X29559418Y-25663261D01*
X29399635Y-25982030D01*
X30734000Y-27316395D01*
X32068365Y-25982030D01*
X31908582Y-25663261D01*
X31493654Y-25500608D01*
X31908582Y-25328739D01*
X32068365Y-25009970D01*
X30734000Y-23675605D01*
X29399635Y-25009970D01*
X12902000Y-25009970D01*
X12902000Y-23112187D01*
X28591277Y-23112187D01*
X28607503Y-23961387D01*
X28901261Y-24670582D01*
X29220030Y-24830365D01*
X30554395Y-23496000D01*
X30913605Y-23496000D01*
X32247970Y-24830365D01*
X32566739Y-24670582D01*
X32876723Y-23879813D01*
X32860497Y-23030613D01*
X32566739Y-22321418D01*
X32247970Y-22161635D01*
X30913605Y-23496000D01*
X30554395Y-23496000D01*
X29220030Y-22161635D01*
X28901261Y-22321418D01*
X28591277Y-23112187D01*
X12902000Y-23112187D01*
X12902000Y-20711970D01*
X17487635Y-20711970D01*
X17647418Y-21030739D01*
X18438187Y-21340723D01*
X19287387Y-21324497D01*
X19996582Y-21030739D01*
X20156365Y-20711970D01*
X21287635Y-20711970D01*
X21447418Y-21030739D01*
X22238187Y-21340723D01*
X23087387Y-21324497D01*
X23796582Y-21030739D01*
X23806992Y-21009970D01*
X29399635Y-21009970D01*
X29559418Y-21328739D01*
X29974346Y-21491392D01*
X29559418Y-21663261D01*
X29399635Y-21982030D01*
X30734000Y-23316395D01*
X32068365Y-21982030D01*
X31908582Y-21663261D01*
X31493654Y-21500608D01*
X31908582Y-21328739D01*
X32068365Y-21009970D01*
X30734000Y-19675605D01*
X29399635Y-21009970D01*
X23806992Y-21009970D01*
X23956365Y-20711970D01*
X22622000Y-19377605D01*
X21287635Y-20711970D01*
X20156365Y-20711970D01*
X18822000Y-19377605D01*
X17487635Y-20711970D01*
X12902000Y-20711970D01*
X12902000Y-18814187D01*
X16679277Y-18814187D01*
X16695503Y-19663387D01*
X16989261Y-20372582D01*
X17308030Y-20532365D01*
X18642395Y-19198000D01*
X19001605Y-19198000D01*
X20335970Y-20532365D01*
X20654739Y-20372582D01*
X20720147Y-20205726D01*
X20789261Y-20372582D01*
X21108030Y-20532365D01*
X22442395Y-19198000D01*
X22801605Y-19198000D01*
X24135970Y-20532365D01*
X24454739Y-20372582D01*
X24764723Y-19581813D01*
X24755750Y-19112187D01*
X28591277Y-19112187D01*
X28607503Y-19961387D01*
X28901261Y-20670582D01*
X29220030Y-20830365D01*
X30554395Y-19496000D01*
X30913605Y-19496000D01*
X32247970Y-20830365D01*
X32541160Y-20683403D01*
X45068682Y-20683403D01*
X45347455Y-21358086D01*
X45863199Y-21874730D01*
X46537395Y-22154681D01*
X47267403Y-22155318D01*
X47942086Y-21876545D01*
X48458730Y-21360801D01*
X48654135Y-20890215D01*
X48847455Y-21358086D01*
X49363199Y-21874730D01*
X50037395Y-22154681D01*
X50767403Y-22155318D01*
X51442086Y-21876545D01*
X51958730Y-21360801D01*
X52154135Y-20890215D01*
X52347455Y-21358086D01*
X52863199Y-21874730D01*
X53537395Y-22154681D01*
X54267403Y-22155318D01*
X54942086Y-21876545D01*
X55458730Y-21360801D01*
X55556560Y-21125201D01*
X55556560Y-21520000D01*
X55600838Y-21755317D01*
X55739910Y-21971441D01*
X55952110Y-22116431D01*
X56204000Y-22167440D01*
X58604000Y-22167440D01*
X58839317Y-22123162D01*
X59055441Y-21984090D01*
X59200431Y-21771890D01*
X59251440Y-21520000D01*
X59251440Y-20429403D01*
X116188682Y-20429403D01*
X116467455Y-21104086D01*
X116983199Y-21620730D01*
X117657395Y-21900681D01*
X118387403Y-21901318D01*
X119062086Y-21622545D01*
X119578730Y-21106801D01*
X119774135Y-20636215D01*
X119967455Y-21104086D01*
X120483199Y-21620730D01*
X121157395Y-21900681D01*
X121887403Y-21901318D01*
X122562086Y-21622545D01*
X123078730Y-21106801D01*
X123274135Y-20636215D01*
X123467455Y-21104086D01*
X123983199Y-21620730D01*
X124657395Y-21900681D01*
X125387403Y-21901318D01*
X126062086Y-21622545D01*
X126578730Y-21106801D01*
X126676560Y-20871201D01*
X126676560Y-21266000D01*
X126720838Y-21501317D01*
X126859910Y-21717441D01*
X127072110Y-21862431D01*
X127324000Y-21913440D01*
X129724000Y-21913440D01*
X129959317Y-21869162D01*
X130175441Y-21730090D01*
X130320431Y-21517890D01*
X130371440Y-21266000D01*
X130371440Y-20429403D01*
X213724682Y-20429403D01*
X214003455Y-21104086D01*
X214519199Y-21620730D01*
X215193395Y-21900681D01*
X215923403Y-21901318D01*
X216598086Y-21622545D01*
X217114730Y-21106801D01*
X217310135Y-20636215D01*
X217503455Y-21104086D01*
X218019199Y-21620730D01*
X218693395Y-21900681D01*
X219423403Y-21901318D01*
X220098086Y-21622545D01*
X220614730Y-21106801D01*
X220810135Y-20636215D01*
X221003455Y-21104086D01*
X221519199Y-21620730D01*
X222193395Y-21900681D01*
X222923403Y-21901318D01*
X223598086Y-21622545D01*
X224114730Y-21106801D01*
X224212560Y-20871201D01*
X224212560Y-21266000D01*
X224256838Y-21501317D01*
X224395910Y-21717441D01*
X224608110Y-21862431D01*
X224860000Y-21913440D01*
X227260000Y-21913440D01*
X227495317Y-21869162D01*
X227711441Y-21730090D01*
X227856431Y-21517890D01*
X227907440Y-21266000D01*
X227907440Y-19980815D01*
X258722630Y-19980815D01*
X259046980Y-20765800D01*
X259647041Y-21366909D01*
X260431459Y-21692628D01*
X261280815Y-21693370D01*
X262065800Y-21369020D01*
X262666909Y-20768959D01*
X262992628Y-19984541D01*
X262993370Y-19135185D01*
X262669020Y-18350200D01*
X262068959Y-17749091D01*
X261284541Y-17423372D01*
X260435185Y-17422630D01*
X259650200Y-17746980D01*
X259049091Y-18347041D01*
X258723372Y-19131459D01*
X258722630Y-19980815D01*
X227907440Y-19980815D01*
X227907440Y-18866000D01*
X227863162Y-18630683D01*
X227724090Y-18414559D01*
X227511890Y-18269569D01*
X227260000Y-18218560D01*
X224860000Y-18218560D01*
X224624683Y-18262838D01*
X224408559Y-18401910D01*
X224263569Y-18614110D01*
X224212560Y-18866000D01*
X224212560Y-19260288D01*
X224116545Y-19027914D01*
X223600801Y-18511270D01*
X222926605Y-18231319D01*
X222196597Y-18230682D01*
X221521914Y-18509455D01*
X221005270Y-19025199D01*
X220809865Y-19495785D01*
X220616545Y-19027914D01*
X220100801Y-18511270D01*
X219426605Y-18231319D01*
X218696597Y-18230682D01*
X218021914Y-18509455D01*
X217505270Y-19025199D01*
X217309865Y-19495785D01*
X217116545Y-19027914D01*
X216600801Y-18511270D01*
X215926605Y-18231319D01*
X215196597Y-18230682D01*
X214521914Y-18509455D01*
X214005270Y-19025199D01*
X213725319Y-19699395D01*
X213724682Y-20429403D01*
X130371440Y-20429403D01*
X130371440Y-18866000D01*
X130327162Y-18630683D01*
X130188090Y-18414559D01*
X129975890Y-18269569D01*
X129724000Y-18218560D01*
X127324000Y-18218560D01*
X127088683Y-18262838D01*
X126872559Y-18401910D01*
X126727569Y-18614110D01*
X126676560Y-18866000D01*
X126676560Y-19260288D01*
X126580545Y-19027914D01*
X126064801Y-18511270D01*
X125390605Y-18231319D01*
X124660597Y-18230682D01*
X123985914Y-18509455D01*
X123469270Y-19025199D01*
X123273865Y-19495785D01*
X123080545Y-19027914D01*
X122564801Y-18511270D01*
X121890605Y-18231319D01*
X121160597Y-18230682D01*
X120485914Y-18509455D01*
X119969270Y-19025199D01*
X119773865Y-19495785D01*
X119580545Y-19027914D01*
X119064801Y-18511270D01*
X118390605Y-18231319D01*
X117660597Y-18230682D01*
X116985914Y-18509455D01*
X116469270Y-19025199D01*
X116189319Y-19699395D01*
X116188682Y-20429403D01*
X59251440Y-20429403D01*
X59251440Y-19120000D01*
X59207162Y-18884683D01*
X59068090Y-18668559D01*
X58855890Y-18523569D01*
X58604000Y-18472560D01*
X56204000Y-18472560D01*
X55968683Y-18516838D01*
X55752559Y-18655910D01*
X55607569Y-18868110D01*
X55556560Y-19120000D01*
X55556560Y-19514288D01*
X55460545Y-19281914D01*
X54944801Y-18765270D01*
X54270605Y-18485319D01*
X53540597Y-18484682D01*
X52865914Y-18763455D01*
X52349270Y-19279199D01*
X52153865Y-19749785D01*
X51960545Y-19281914D01*
X51444801Y-18765270D01*
X50770605Y-18485319D01*
X50040597Y-18484682D01*
X49365914Y-18763455D01*
X48849270Y-19279199D01*
X48653865Y-19749785D01*
X48460545Y-19281914D01*
X47944801Y-18765270D01*
X47270605Y-18485319D01*
X46540597Y-18484682D01*
X45865914Y-18763455D01*
X45349270Y-19279199D01*
X45069319Y-19953395D01*
X45068682Y-20683403D01*
X32541160Y-20683403D01*
X32566739Y-20670582D01*
X32876723Y-19879813D01*
X32860497Y-19030613D01*
X32566739Y-18321418D01*
X32247970Y-18161635D01*
X30913605Y-19496000D01*
X30554395Y-19496000D01*
X29220030Y-18161635D01*
X28901261Y-18321418D01*
X28591277Y-19112187D01*
X24755750Y-19112187D01*
X24748497Y-18732613D01*
X24454739Y-18023418D01*
X24372170Y-17982030D01*
X29399635Y-17982030D01*
X30734000Y-19316395D01*
X32068365Y-17982030D01*
X31908582Y-17663261D01*
X31117813Y-17353277D01*
X30268613Y-17369503D01*
X29559418Y-17663261D01*
X29399635Y-17982030D01*
X24372170Y-17982030D01*
X24135970Y-17863635D01*
X22801605Y-19198000D01*
X22442395Y-19198000D01*
X21108030Y-17863635D01*
X20789261Y-18023418D01*
X20723853Y-18190274D01*
X20654739Y-18023418D01*
X20335970Y-17863635D01*
X19001605Y-19198000D01*
X18642395Y-19198000D01*
X17308030Y-17863635D01*
X16989261Y-18023418D01*
X16679277Y-18814187D01*
X12902000Y-18814187D01*
X12902000Y-17684030D01*
X17487635Y-17684030D01*
X18822000Y-19018395D01*
X20156365Y-17684030D01*
X21287635Y-17684030D01*
X22622000Y-19018395D01*
X23956365Y-17684030D01*
X23796582Y-17365261D01*
X23005813Y-17055277D01*
X22156613Y-17071503D01*
X21447418Y-17365261D01*
X21287635Y-17684030D01*
X20156365Y-17684030D01*
X19996582Y-17365261D01*
X19205813Y-17055277D01*
X18356613Y-17071503D01*
X17647418Y-17365261D01*
X17487635Y-17684030D01*
X12902000Y-17684030D01*
X12902000Y-12902000D01*
X45658999Y-12902000D01*
X45611914Y-12921455D01*
X45611914Y-12921455D01*
G37*
X45611914Y-12921455D02*
X45095270Y-13437199D01*
X44815319Y-14111395D01*
X44814682Y-14841403D01*
X45093455Y-15516086D01*
X45609199Y-16032730D01*
X46283395Y-16312681D01*
X47013403Y-16313318D01*
X47688086Y-16034545D01*
X48204730Y-15518801D01*
X48400135Y-15048215D01*
X48593455Y-15516086D01*
X49109199Y-16032730D01*
X49783395Y-16312681D01*
X50513403Y-16313318D01*
X51188086Y-16034545D01*
X51704730Y-15518801D01*
X51900135Y-15048215D01*
X52093455Y-15516086D01*
X52609199Y-16032730D01*
X53283395Y-16312681D01*
X54013403Y-16313318D01*
X54688086Y-16034545D01*
X55204730Y-15518801D01*
X55302560Y-15283201D01*
X55302560Y-15678000D01*
X55346838Y-15913317D01*
X55485910Y-16129441D01*
X55698110Y-16274431D01*
X55950000Y-16325440D01*
X58350000Y-16325440D01*
X58585317Y-16281162D01*
X58801441Y-16142090D01*
X58946431Y-15929890D01*
X58997440Y-15678000D01*
X58997440Y-13278000D01*
X58953162Y-13042683D01*
X58862635Y-12902000D01*
X116750960Y-12902000D01*
X116469270Y-13183199D01*
X116189319Y-13857395D01*
X116188682Y-14587403D01*
X116467455Y-15262086D01*
X116983199Y-15778730D01*
X117657395Y-16058681D01*
X118387403Y-16059318D01*
X119062086Y-15780545D01*
X119578730Y-15264801D01*
X119774135Y-14794215D01*
X119967455Y-15262086D01*
X120483199Y-15778730D01*
X121157395Y-16058681D01*
X121887403Y-16059318D01*
X122562086Y-15780545D01*
X123078730Y-15264801D01*
X123274135Y-14794215D01*
X123467455Y-15262086D01*
X123983199Y-15778730D01*
X124657395Y-16058681D01*
X125387403Y-16059318D01*
X126062086Y-15780545D01*
X126578730Y-15264801D01*
X126676560Y-15029201D01*
X126676560Y-15424000D01*
X126720838Y-15659317D01*
X126859910Y-15875441D01*
X127072110Y-16020431D01*
X127324000Y-16071440D01*
X129724000Y-16071440D01*
X129959317Y-16027162D01*
X130175441Y-15888090D01*
X130320431Y-15675890D01*
X130371440Y-15424000D01*
X130371440Y-13024000D01*
X130348484Y-12902000D01*
X214568999Y-12902000D01*
X214521914Y-12921455D01*
X214005270Y-13437199D01*
X213725319Y-14111395D01*
X213724682Y-14841403D01*
X214003455Y-15516086D01*
X214519199Y-16032730D01*
X215193395Y-16312681D01*
X215923403Y-16313318D01*
X216598086Y-16034545D01*
X217114730Y-15518801D01*
X217310135Y-15048215D01*
X217503455Y-15516086D01*
X218019199Y-16032730D01*
X218693395Y-16312681D01*
X219423403Y-16313318D01*
X220098086Y-16034545D01*
X220614730Y-15518801D01*
X220810135Y-15048215D01*
X221003455Y-15516086D01*
X221519199Y-16032730D01*
X222193395Y-16312681D01*
X222923403Y-16313318D01*
X223598086Y-16034545D01*
X224114730Y-15518801D01*
X224212560Y-15283201D01*
X224212560Y-15678000D01*
X224256838Y-15913317D01*
X224395910Y-16129441D01*
X224608110Y-16274431D01*
X224860000Y-16325440D01*
X227260000Y-16325440D01*
X227495317Y-16281162D01*
X227711441Y-16142090D01*
X227856431Y-15929890D01*
X227907440Y-15678000D01*
X227907440Y-13278000D01*
X227863162Y-13042683D01*
X227772635Y-12902000D01*
X265990000Y-12902000D01*
X265990000Y-188266000D01*
X12902000Y-188266000D01*
X12902000Y-184699815D01*
X174881630Y-184699815D01*
X175205980Y-185484800D01*
X175806041Y-186085909D01*
X176590459Y-186411628D01*
X177439815Y-186412370D01*
X178224800Y-186088020D01*
X178825909Y-185487959D01*
X179151628Y-184703541D01*
X179151631Y-184699815D01*
X197381630Y-184699815D01*
X197705980Y-185484800D01*
X198306041Y-186085909D01*
X199090459Y-186411628D01*
X199939815Y-186412370D01*
X200724800Y-186088020D01*
X201325909Y-185487959D01*
X201651628Y-184703541D01*
X201652370Y-183854185D01*
X201424548Y-183302815D01*
X259230630Y-183302815D01*
X259554980Y-184087800D01*
X260155041Y-184688909D01*
X260939459Y-185014628D01*
X261788815Y-185015370D01*
X262573800Y-184691020D01*
X263174909Y-184090959D01*
X263500628Y-183306541D01*
X263501370Y-182457185D01*
X263177020Y-181672200D01*
X262576959Y-181071091D01*
X261792541Y-180745372D01*
X260943185Y-180744630D01*
X260158200Y-181068980D01*
X259557091Y-181669041D01*
X259231372Y-182453459D01*
X259230630Y-183302815D01*
X201424548Y-183302815D01*
X201328020Y-183069200D01*
X200727959Y-182468091D01*
X199943541Y-182142372D01*
X199094185Y-182141630D01*
X198309200Y-182465980D01*
X197708091Y-183066041D01*
X197382372Y-183850459D01*
X197381630Y-184699815D01*
X179151631Y-184699815D01*
X179152370Y-183854185D01*
X178828020Y-183069200D01*
X178227959Y-182468091D01*
X177443541Y-182142372D01*
X176594185Y-182141630D01*
X175809200Y-182465980D01*
X175208091Y-183066041D01*
X174882372Y-183850459D01*
X174881630Y-184699815D01*
X12902000Y-184699815D01*
X12902000Y-182286815D01*
X15644630Y-182286815D01*
X15968980Y-183071800D01*
X16569041Y-183672909D01*
X17353459Y-183998628D01*
X18202815Y-183999370D01*
X18987800Y-183675020D01*
X19588909Y-183074959D01*
X19914628Y-182290541D01*
X19915370Y-181441185D01*
X19591020Y-180656200D01*
X18990959Y-180055091D01*
X18206541Y-179729372D01*
X17357185Y-179728630D01*
X16572200Y-180052980D01*
X15971091Y-180653041D01*
X15645372Y-181437459D01*
X15644630Y-182286815D01*
X12902000Y-182286815D01*
X12902000Y-177841815D01*
X174881630Y-177841815D01*
X175205980Y-178626800D01*
X175806041Y-179227909D01*
X176590459Y-179553628D01*
X177439815Y-179554370D01*
X178224800Y-179230020D01*
X178825909Y-178629959D01*
X179151628Y-177845541D01*
X179151657Y-177812109D01*
X186281657Y-177812109D01*
X186583218Y-178541943D01*
X187141120Y-179100819D01*
X187870427Y-179403654D01*
X188660109Y-179404343D01*
X189389943Y-179102782D01*
X189948819Y-178544880D01*
X190240757Y-177841815D01*
X197381630Y-177841815D01*
X197705980Y-178626800D01*
X198306041Y-179227909D01*
X199090459Y-179553628D01*
X199939815Y-179554370D01*
X200724800Y-179230020D01*
X201325909Y-178629959D01*
X201651628Y-177845541D01*
X201652370Y-176996185D01*
X201328020Y-176211200D01*
X200727959Y-175610091D01*
X199943541Y-175284372D01*
X199094185Y-175283630D01*
X198309200Y-175607980D01*
X197708091Y-176208041D01*
X197382372Y-176992459D01*
X197381630Y-177841815D01*
X190240757Y-177841815D01*
X190251654Y-177815573D01*
X190252343Y-177025891D01*
X189950782Y-176296057D01*
X189392880Y-175737181D01*
X188663573Y-175434346D01*
X187873891Y-175433657D01*
X187144057Y-175735218D01*
X186585181Y-176293120D01*
X186282346Y-177022427D01*
X186281657Y-177812109D01*
X179151657Y-177812109D01*
X179152370Y-176996185D01*
X178828020Y-176211200D01*
X178227959Y-175610091D01*
X177443541Y-175284372D01*
X176594185Y-175283630D01*
X175809200Y-175607980D01*
X175208091Y-176208041D01*
X174882372Y-176992459D01*
X174881630Y-177841815D01*
X12902000Y-177841815D01*
X12902000Y-165014815D01*
X174754630Y-165014815D01*
X175078980Y-165799800D01*
X175679041Y-166400909D01*
X176463459Y-166726628D01*
X177312815Y-166727370D01*
X178097800Y-166403020D01*
X178698909Y-165802959D01*
X179024628Y-165018541D01*
X179024631Y-165014815D01*
X197254630Y-165014815D01*
X197578980Y-165799800D01*
X198179041Y-166400909D01*
X198963459Y-166726628D01*
X199812815Y-166727370D01*
X200597800Y-166403020D01*
X201198909Y-165802959D01*
X201524628Y-165018541D01*
X201525370Y-164169185D01*
X201201020Y-163384200D01*
X200600959Y-162783091D01*
X199816541Y-162457372D01*
X198967185Y-162456630D01*
X198182200Y-162780980D01*
X197581091Y-163381041D01*
X197255372Y-164165459D01*
X197254630Y-165014815D01*
X179024631Y-165014815D01*
X179025370Y-164169185D01*
X178701020Y-163384200D01*
X178100959Y-162783091D01*
X177316541Y-162457372D01*
X176467185Y-162456630D01*
X175682200Y-162780980D01*
X175081091Y-163381041D01*
X174755372Y-164165459D01*
X174754630Y-165014815D01*
X12902000Y-165014815D01*
X12902000Y-158156815D01*
X174500630Y-158156815D01*
X174824980Y-158941800D01*
X175425041Y-159542909D01*
X176209459Y-159868628D01*
X177058815Y-159869370D01*
X177843800Y-159545020D01*
X178444909Y-158944959D01*
X178770628Y-158160541D01*
X178770657Y-158127109D01*
X185900657Y-158127109D01*
X186202218Y-158856943D01*
X186760120Y-159415819D01*
X187489427Y-159718654D01*
X188279109Y-159719343D01*
X189008943Y-159417782D01*
X189567819Y-158859880D01*
X189859757Y-158156815D01*
X197000630Y-158156815D01*
X197324980Y-158941800D01*
X197925041Y-159542909D01*
X198709459Y-159868628D01*
X199558815Y-159869370D01*
X200343800Y-159545020D01*
X200944909Y-158944959D01*
X201270628Y-158160541D01*
X201271370Y-157311185D01*
X200947020Y-156526200D01*
X200346959Y-155925091D01*
X199562541Y-155599372D01*
X198713185Y-155598630D01*
X197928200Y-155922980D01*
X197327091Y-156523041D01*
X197001372Y-157307459D01*
X197000630Y-158156815D01*
X189859757Y-158156815D01*
X189870654Y-158130573D01*
X189871343Y-157340891D01*
X189569782Y-156611057D01*
X189011880Y-156052181D01*
X188282573Y-155749346D01*
X187492891Y-155748657D01*
X186763057Y-156050218D01*
X186204181Y-156608120D01*
X185901346Y-157337427D01*
X185900657Y-158127109D01*
X178770657Y-158127109D01*
X178771370Y-157311185D01*
X178447020Y-156526200D01*
X177846959Y-155925091D01*
X177062541Y-155599372D01*
X176213185Y-155598630D01*
X175428200Y-155922980D01*
X174827091Y-156523041D01*
X174501372Y-157307459D01*
X174500630Y-158156815D01*
X12902000Y-158156815D01*
X12902000Y-144613000D01*
X142949560Y-144613000D01*
X142949560Y-145963000D01*
X142993838Y-146198317D01*
X143132910Y-146414441D01*
X143345110Y-146559431D01*
X143597000Y-146610440D01*
X144947000Y-146610440D01*
X145182317Y-146566162D01*
X145398441Y-146427090D01*
X145543431Y-146214890D01*
X145543687Y-146213624D01*
X145672910Y-146414441D01*
X145885110Y-146559431D01*
X146137000Y-146610440D01*
X147487000Y-146610440D01*
X147722317Y-146566162D01*
X147938441Y-146427090D01*
X148083431Y-146214890D01*
X148134440Y-145963000D01*
X148134440Y-144867000D01*
X161237560Y-144867000D01*
X161237560Y-146217000D01*
X161281838Y-146452317D01*
X161420910Y-146668441D01*
X161633110Y-146813431D01*
X161885000Y-146864440D01*
X163235000Y-146864440D01*
X163470317Y-146820162D01*
X163686441Y-146681090D01*
X163831431Y-146468890D01*
X163831687Y-146467624D01*
X163960910Y-146668441D01*
X164173110Y-146813431D01*
X164425000Y-146864440D01*
X165775000Y-146864440D01*
X166010317Y-146820162D01*
X166226441Y-146681090D01*
X166371431Y-146468890D01*
X166422440Y-146217000D01*
X166422440Y-144867000D01*
X166378162Y-144631683D01*
X166366140Y-144613000D01*
X178509560Y-144613000D01*
X178509560Y-145963000D01*
X178553838Y-146198317D01*
X178692910Y-146414441D01*
X178905110Y-146559431D01*
X179157000Y-146610440D01*
X180507000Y-146610440D01*
X180742317Y-146566162D01*
X180958441Y-146427090D01*
X181103431Y-146214890D01*
X181103687Y-146213624D01*
X181232910Y-146414441D01*
X181445110Y-146559431D01*
X181697000Y-146610440D01*
X183047000Y-146610440D01*
X183282317Y-146566162D01*
X183498441Y-146427090D01*
X183643431Y-146214890D01*
X183694440Y-145963000D01*
X183694440Y-144613000D01*
X183650162Y-144377683D01*
X183511090Y-144161559D01*
X183416142Y-144096684D01*
X183481916Y-144031024D01*
X183681772Y-143549718D01*
X183682226Y-143028568D01*
X183483211Y-142546914D01*
X183115024Y-142178084D01*
X183059369Y-142154974D01*
X182372000Y-141467605D01*
X181685279Y-142154326D01*
X181630914Y-142176789D01*
X181262084Y-142544976D01*
X181101852Y-142930856D01*
X180943211Y-142546914D01*
X180575024Y-142178084D01*
X180519369Y-142154974D01*
X179832000Y-141467605D01*
X179145279Y-142154326D01*
X179090914Y-142176789D01*
X178722084Y-142544976D01*
X178522228Y-143026282D01*
X178521774Y-143547432D01*
X178720789Y-144029086D01*
X178787663Y-144096077D01*
X178705559Y-144148910D01*
X178560569Y-144361110D01*
X178509560Y-144613000D01*
X166366140Y-144613000D01*
X166239090Y-144415559D01*
X166144142Y-144350684D01*
X166209916Y-144285024D01*
X166409772Y-143803718D01*
X166410226Y-143282568D01*
X166211211Y-142800914D01*
X165843024Y-142432084D01*
X165787369Y-142408974D01*
X165100000Y-141721605D01*
X164413279Y-142408326D01*
X164358914Y-142430789D01*
X163990084Y-142798976D01*
X163829852Y-143184856D01*
X163671211Y-142800914D01*
X163303024Y-142432084D01*
X163247369Y-142408974D01*
X162560000Y-141721605D01*
X161873279Y-142408326D01*
X161818914Y-142430789D01*
X161450084Y-142798976D01*
X161250228Y-143280282D01*
X161249774Y-143801432D01*
X161448789Y-144283086D01*
X161515663Y-144350077D01*
X161433559Y-144402910D01*
X161288569Y-144615110D01*
X161237560Y-144867000D01*
X148134440Y-144867000D01*
X148134440Y-144613000D01*
X148090162Y-144377683D01*
X147951090Y-144161559D01*
X147856142Y-144096684D01*
X147921916Y-144031024D01*
X148121772Y-143549718D01*
X148122226Y-143028568D01*
X147923211Y-142546914D01*
X147555024Y-142178084D01*
X147499369Y-142154974D01*
X146812000Y-141467605D01*
X146125279Y-142154326D01*
X146070914Y-142176789D01*
X145702084Y-142544976D01*
X145541852Y-142930856D01*
X145383211Y-142546914D01*
X145015024Y-142178084D01*
X144959369Y-142154974D01*
X144272000Y-141467605D01*
X143585279Y-142154326D01*
X143530914Y-142176789D01*
X143162084Y-142544976D01*
X142962228Y-143026282D01*
X142961774Y-143547432D01*
X143160789Y-144029086D01*
X143227663Y-144096077D01*
X143145559Y-144148910D01*
X143000569Y-144361110D01*
X142949560Y-144613000D01*
X12902000Y-144613000D01*
X12902000Y-141101100D01*
X142949478Y-141101100D01*
X142978625Y-141621434D01*
X143121672Y-141966781D01*
X143354853Y-142025542D01*
X144092395Y-141288000D01*
X144451605Y-141288000D01*
X145189147Y-142025542D01*
X145422328Y-141966781D01*
X145531957Y-141653620D01*
X145661672Y-141966781D01*
X145894853Y-142025542D01*
X146632395Y-141288000D01*
X146991605Y-141288000D01*
X147729147Y-142025542D01*
X147962328Y-141966781D01*
X148134522Y-141474900D01*
X148127812Y-141355100D01*
X161237478Y-141355100D01*
X161266625Y-141875434D01*
X161409672Y-142220781D01*
X161642853Y-142279542D01*
X162380395Y-141542000D01*
X162739605Y-141542000D01*
X163477147Y-142279542D01*
X163710328Y-142220781D01*
X163819957Y-141907620D01*
X163949672Y-142220781D01*
X164182853Y-142279542D01*
X164920395Y-141542000D01*
X165279605Y-141542000D01*
X166017147Y-142279542D01*
X166250328Y-142220781D01*
X166422522Y-141728900D01*
X166393375Y-141208566D01*
X166348862Y-141101100D01*
X178509478Y-141101100D01*
X178538625Y-141621434D01*
X178681672Y-141966781D01*
X178914853Y-142025542D01*
X179652395Y-141288000D01*
X180011605Y-141288000D01*
X180749147Y-142025542D01*
X180982328Y-141966781D01*
X181091957Y-141653620D01*
X181221672Y-141966781D01*
X181454853Y-142025542D01*
X182192395Y-141288000D01*
X182551605Y-141288000D01*
X183289147Y-142025542D01*
X183522328Y-141966781D01*
X183694522Y-141474900D01*
X183665375Y-140954566D01*
X183522328Y-140609219D01*
X183289147Y-140550458D01*
X182551605Y-141288000D01*
X182192395Y-141288000D01*
X181454853Y-140550458D01*
X181221672Y-140609219D01*
X181112043Y-140922380D01*
X180982328Y-140609219D01*
X180749147Y-140550458D01*
X180011605Y-141288000D01*
X179652395Y-141288000D01*
X178914853Y-140550458D01*
X178681672Y-140609219D01*
X178509478Y-141101100D01*
X166348862Y-141101100D01*
X166250328Y-140863219D01*
X166017147Y-140804458D01*
X165279605Y-141542000D01*
X164920395Y-141542000D01*
X164182853Y-140804458D01*
X163949672Y-140863219D01*
X163840043Y-141176380D01*
X163710328Y-140863219D01*
X163477147Y-140804458D01*
X162739605Y-141542000D01*
X162380395Y-141542000D01*
X161642853Y-140804458D01*
X161409672Y-140863219D01*
X161237478Y-141355100D01*
X148127812Y-141355100D01*
X148105375Y-140954566D01*
X147968804Y-140624853D01*
X161822458Y-140624853D01*
X162560000Y-141362395D01*
X163297542Y-140624853D01*
X164362458Y-140624853D01*
X165100000Y-141362395D01*
X165837542Y-140624853D01*
X165778781Y-140391672D01*
X165719311Y-140370853D01*
X179094458Y-140370853D01*
X179832000Y-141108395D01*
X180569542Y-140370853D01*
X181634458Y-140370853D01*
X182372000Y-141108395D01*
X183109542Y-140370853D01*
X183050781Y-140137672D01*
X182558900Y-139965478D01*
X182038566Y-139994625D01*
X181693219Y-140137672D01*
X181634458Y-140370853D01*
X180569542Y-140370853D01*
X180510781Y-140137672D01*
X180018900Y-139965478D01*
X179498566Y-139994625D01*
X179153219Y-140137672D01*
X179094458Y-140370853D01*
X165719311Y-140370853D01*
X165286900Y-140219478D01*
X164766566Y-140248625D01*
X164421219Y-140391672D01*
X164362458Y-140624853D01*
X163297542Y-140624853D01*
X163238781Y-140391672D01*
X162746900Y-140219478D01*
X162226566Y-140248625D01*
X161881219Y-140391672D01*
X161822458Y-140624853D01*
X147968804Y-140624853D01*
X147962328Y-140609219D01*
X147729147Y-140550458D01*
X146991605Y-141288000D01*
X146632395Y-141288000D01*
X145894853Y-140550458D01*
X145661672Y-140609219D01*
X145552043Y-140922380D01*
X145422328Y-140609219D01*
X145189147Y-140550458D01*
X144451605Y-141288000D01*
X144092395Y-141288000D01*
X143354853Y-140550458D01*
X143121672Y-140609219D01*
X142949478Y-141101100D01*
X12902000Y-141101100D01*
X12902000Y-140370853D01*
X143534458Y-140370853D01*
X144272000Y-141108395D01*
X145009542Y-140370853D01*
X146074458Y-140370853D01*
X146812000Y-141108395D01*
X147549542Y-140370853D01*
X147490781Y-140137672D01*
X146998900Y-139965478D01*
X146478566Y-139994625D01*
X146133219Y-140137672D01*
X146074458Y-140370853D01*
X145009542Y-140370853D01*
X144950781Y-140137672D01*
X144458900Y-139965478D01*
X143938566Y-139994625D01*
X143593219Y-140137672D01*
X143534458Y-140370853D01*
X12902000Y-140370853D01*
X12902000Y-137984815D01*
X153058630Y-137984815D01*
X153382980Y-138769800D01*
X153983041Y-139370909D01*
X154767459Y-139696628D01*
X155616815Y-139697370D01*
X156401800Y-139373020D01*
X157002909Y-138772959D01*
X157328628Y-137988541D01*
X157328631Y-137984815D01*
X159916630Y-137984815D01*
X160240980Y-138769800D01*
X160841041Y-139370909D01*
X161625459Y-139696628D01*
X162474815Y-139697370D01*
X163259800Y-139373020D01*
X163860909Y-138772959D01*
X164186628Y-137988541D01*
X164187075Y-137476815D01*
X170584630Y-137476815D01*
X170908980Y-138261800D01*
X171509041Y-138862909D01*
X172293459Y-139188628D01*
X173142815Y-139189370D01*
X173927800Y-138865020D01*
X174528909Y-138264959D01*
X174750705Y-137730815D01*
X177442630Y-137730815D01*
X177766980Y-138515800D01*
X178367041Y-139116909D01*
X179151459Y-139442628D01*
X180000815Y-139443370D01*
X180785800Y-139119020D01*
X181386909Y-138518959D01*
X181712628Y-137734541D01*
X181713075Y-137222815D01*
X186332630Y-137222815D01*
X186656980Y-138007800D01*
X187257041Y-138608909D01*
X188041459Y-138934628D01*
X188890815Y-138935370D01*
X189675800Y-138611020D01*
X190276909Y-138010959D01*
X190602628Y-137226541D01*
X190602631Y-137222815D01*
X193444630Y-137222815D01*
X193768980Y-138007800D01*
X194369041Y-138608909D01*
X195153459Y-138934628D01*
X196002815Y-138935370D01*
X196787800Y-138611020D01*
X197388909Y-138010959D01*
X197714628Y-137226541D01*
X197715370Y-136377185D01*
X197391020Y-135592200D01*
X196790959Y-134991091D01*
X196006541Y-134665372D01*
X195157185Y-134664630D01*
X194372200Y-134988980D01*
X193771091Y-135589041D01*
X193445372Y-136373459D01*
X193444630Y-137222815D01*
X190602631Y-137222815D01*
X190603370Y-136377185D01*
X190279020Y-135592200D01*
X189678959Y-134991091D01*
X188894541Y-134665372D01*
X188045185Y-134664630D01*
X187260200Y-134988980D01*
X186659091Y-135589041D01*
X186333372Y-136373459D01*
X186332630Y-137222815D01*
X181713075Y-137222815D01*
X181713370Y-136885185D01*
X181389020Y-136100200D01*
X180788959Y-135499091D01*
X180004541Y-135173372D01*
X179155185Y-135172630D01*
X178370200Y-135496980D01*
X177769091Y-136097041D01*
X177443372Y-136881459D01*
X177442630Y-137730815D01*
X174750705Y-137730815D01*
X174854628Y-137480541D01*
X174855370Y-136631185D01*
X174531020Y-135846200D01*
X173930959Y-135245091D01*
X173146541Y-134919372D01*
X172297185Y-134918630D01*
X171512200Y-135242980D01*
X170911091Y-135843041D01*
X170585372Y-136627459D01*
X170584630Y-137476815D01*
X164187075Y-137476815D01*
X164187370Y-137139185D01*
X163863020Y-136354200D01*
X163262959Y-135753091D01*
X162478541Y-135427372D01*
X161629185Y-135426630D01*
X160844200Y-135750980D01*
X160243091Y-136351041D01*
X159917372Y-137135459D01*
X159916630Y-137984815D01*
X157328631Y-137984815D01*
X157329370Y-137139185D01*
X157005020Y-136354200D01*
X156404959Y-135753091D01*
X155620541Y-135427372D01*
X154771185Y-135426630D01*
X153986200Y-135750980D01*
X153385091Y-136351041D01*
X153059372Y-137135459D01*
X153058630Y-137984815D01*
X12902000Y-137984815D01*
X12902000Y-126705109D01*
X160066657Y-126705109D01*
X160368218Y-127434943D01*
X160926120Y-127993819D01*
X161655427Y-128296654D01*
X162445109Y-128297343D01*
X163174943Y-127995782D01*
X163733819Y-127437880D01*
X164036654Y-126708573D01*
X164036878Y-126451109D01*
X177592657Y-126451109D01*
X177894218Y-127180943D01*
X178452120Y-127739819D01*
X179181427Y-128042654D01*
X179971109Y-128043343D01*
X180700943Y-127741782D01*
X181259819Y-127183880D01*
X181562654Y-126454573D01*
X181563100Y-125943109D01*
X193594657Y-125943109D01*
X193896218Y-126672943D01*
X194454120Y-127231819D01*
X195183427Y-127534654D01*
X195973109Y-127535343D01*
X196702943Y-127233782D01*
X197261819Y-126675880D01*
X197564654Y-125946573D01*
X197565343Y-125156891D01*
X197263782Y-124427057D01*
X196705880Y-123868181D01*
X195976573Y-123565346D01*
X195186891Y-123564657D01*
X194457057Y-123866218D01*
X193898181Y-124424120D01*
X193595346Y-125153427D01*
X193594657Y-125943109D01*
X181563100Y-125943109D01*
X181563343Y-125664891D01*
X181261782Y-124935057D01*
X180703880Y-124376181D01*
X179974573Y-124073346D01*
X179184891Y-124072657D01*
X178455057Y-124374218D01*
X177896181Y-124932120D01*
X177593346Y-125661427D01*
X177592657Y-126451109D01*
X164036878Y-126451109D01*
X164037343Y-125918891D01*
X163735782Y-125189057D01*
X163177880Y-124630181D01*
X162448573Y-124327346D01*
X161658891Y-124326657D01*
X160929057Y-124628218D01*
X160370181Y-125186120D01*
X160067346Y-125915427D01*
X160066657Y-126705109D01*
X12902000Y-126705109D01*
X12902000Y-121011913D01*
X54394816Y-121011913D01*
X54588046Y-121564320D01*
X54977964Y-122000732D01*
X55505209Y-122254709D01*
X55520974Y-122257358D01*
X55753000Y-122136217D01*
X55753000Y-120777000D01*
X54539076Y-120777000D01*
X54394816Y-121011913D01*
X12902000Y-121011913D01*
X12902000Y-120288087D01*
X54394816Y-120288087D01*
X54539076Y-120523000D01*
X55753000Y-120523000D01*
X55753000Y-119163783D01*
X55520974Y-119042642D01*
X55505209Y-119045291D01*
X54977964Y-119299268D01*
X54588046Y-119735680D01*
X54394816Y-120288087D01*
X12902000Y-120288087D01*
X12902000Y-117709913D01*
X54394816Y-117709913D01*
X54588046Y-118262320D01*
X54977964Y-118698732D01*
X55505209Y-118952709D01*
X55520974Y-118955358D01*
X55753000Y-118834217D01*
X55753000Y-117475000D01*
X54539076Y-117475000D01*
X54394816Y-117709913D01*
X12902000Y-117709913D01*
X12902000Y-116986087D01*
X54394816Y-116986087D01*
X54539076Y-117221000D01*
X55753000Y-117221000D01*
X55753000Y-115861783D01*
X56007000Y-115861783D01*
X56007000Y-117221000D01*
X56027000Y-117221000D01*
X56027000Y-117475000D01*
X56007000Y-117475000D01*
X56007000Y-118834217D01*
X56239026Y-118955358D01*
X56254791Y-118952709D01*
X56782036Y-118698732D01*
X57153539Y-118282931D01*
X57360330Y-118592415D01*
X57846511Y-118917271D01*
X58257391Y-118999000D01*
X57846511Y-119080729D01*
X57360330Y-119405585D01*
X57153539Y-119715069D01*
X56782036Y-119299268D01*
X56254791Y-119045291D01*
X56239026Y-119042642D01*
X56007000Y-119163783D01*
X56007000Y-120523000D01*
X56027000Y-120523000D01*
X56027000Y-120777000D01*
X56007000Y-120777000D01*
X56007000Y-122136217D01*
X56239026Y-122257358D01*
X56254791Y-122254709D01*
X56782036Y-122000732D01*
X57153539Y-121584931D01*
X57360330Y-121894415D01*
X57846511Y-122219271D01*
X58420000Y-122333345D01*
X58993489Y-122219271D01*
X59479670Y-121894415D01*
X59489243Y-121880087D01*
X59493238Y-121901317D01*
X59632310Y-122117441D01*
X59844510Y-122262431D01*
X60096400Y-122313440D01*
X61823600Y-122313440D01*
X62058917Y-122269162D01*
X62275041Y-122130090D01*
X62420031Y-121917890D01*
X62471040Y-121666000D01*
X62471040Y-121011913D01*
X116878816Y-121011913D01*
X117072046Y-121564320D01*
X117461964Y-122000732D01*
X117989209Y-122254709D01*
X118004974Y-122257358D01*
X118237000Y-122136217D01*
X118237000Y-120777000D01*
X117023076Y-120777000D01*
X116878816Y-121011913D01*
X62471040Y-121011913D01*
X62471040Y-120288087D01*
X116878816Y-120288087D01*
X117023076Y-120523000D01*
X118237000Y-120523000D01*
X118237000Y-119163783D01*
X118491000Y-119163783D01*
X118491000Y-120523000D01*
X118511000Y-120523000D01*
X118511000Y-120777000D01*
X118491000Y-120777000D01*
X118491000Y-122136217D01*
X118723026Y-122257358D01*
X118738791Y-122254709D01*
X119266036Y-122000732D01*
X119637539Y-121584931D01*
X119844330Y-121894415D01*
X120330511Y-122219271D01*
X120904000Y-122333345D01*
X121477489Y-122219271D01*
X121963670Y-121894415D01*
X121973243Y-121880087D01*
X121977238Y-121901317D01*
X122116310Y-122117441D01*
X122328510Y-122262431D01*
X122580400Y-122313440D01*
X124307600Y-122313440D01*
X124542917Y-122269162D01*
X124759041Y-122130090D01*
X124904031Y-121917890D01*
X124955040Y-121666000D01*
X124955040Y-119634000D01*
X124923617Y-119467000D01*
X209243560Y-119467000D01*
X209243560Y-120817000D01*
X209287838Y-121052317D01*
X209426910Y-121268441D01*
X209639110Y-121413431D01*
X209891000Y-121464440D01*
X211241000Y-121464440D01*
X211476317Y-121420162D01*
X211692441Y-121281090D01*
X211837431Y-121068890D01*
X211888440Y-120817000D01*
X211888440Y-119467000D01*
X212037560Y-119467000D01*
X212037560Y-120817000D01*
X212081838Y-121052317D01*
X212220910Y-121268441D01*
X212433110Y-121413431D01*
X212685000Y-121464440D01*
X214035000Y-121464440D01*
X214270317Y-121420162D01*
X214486441Y-121281090D01*
X214631431Y-121068890D01*
X214682440Y-120817000D01*
X214682440Y-119467000D01*
X214638162Y-119231683D01*
X214499090Y-119015559D01*
X214404142Y-118950684D01*
X214469916Y-118885024D01*
X214669772Y-118403718D01*
X214670226Y-117882568D01*
X214471211Y-117400914D01*
X214251681Y-117181000D01*
X226515560Y-117181000D01*
X226515560Y-118531000D01*
X226559838Y-118766317D01*
X226698910Y-118982441D01*
X226911110Y-119127431D01*
X227163000Y-119178440D01*
X228513000Y-119178440D01*
X228748317Y-119134162D01*
X228964441Y-118995090D01*
X229109431Y-118782890D01*
X229160440Y-118531000D01*
X229160440Y-117181000D01*
X229309560Y-117181000D01*
X229309560Y-118531000D01*
X229353838Y-118766317D01*
X229492910Y-118982441D01*
X229705110Y-119127431D01*
X229957000Y-119178440D01*
X231307000Y-119178440D01*
X231542317Y-119134162D01*
X231758441Y-118995090D01*
X231903431Y-118782890D01*
X231954440Y-118531000D01*
X231954440Y-117181000D01*
X243787560Y-117181000D01*
X243787560Y-118531000D01*
X243831838Y-118766317D01*
X243970910Y-118982441D01*
X244183110Y-119127431D01*
X244435000Y-119178440D01*
X245785000Y-119178440D01*
X246020317Y-119134162D01*
X246236441Y-118995090D01*
X246381431Y-118782890D01*
X246381687Y-118781624D01*
X246510910Y-118982441D01*
X246723110Y-119127431D01*
X246975000Y-119178440D01*
X248325000Y-119178440D01*
X248560317Y-119134162D01*
X248776441Y-118995090D01*
X248921431Y-118782890D01*
X248972440Y-118531000D01*
X248972440Y-117181000D01*
X248928162Y-116945683D01*
X248789090Y-116729559D01*
X248694142Y-116664684D01*
X248759916Y-116599024D01*
X248959772Y-116117718D01*
X248960226Y-115596568D01*
X248761211Y-115114914D01*
X248393024Y-114746084D01*
X248337369Y-114722974D01*
X247650000Y-114035605D01*
X246963279Y-114722326D01*
X246908914Y-114744789D01*
X246540084Y-115112976D01*
X246379852Y-115498856D01*
X246221211Y-115114914D01*
X245853024Y-114746084D01*
X245797369Y-114722974D01*
X245110000Y-114035605D01*
X244423279Y-114722326D01*
X244368914Y-114744789D01*
X244000084Y-115112976D01*
X243800228Y-115594282D01*
X243799774Y-116115432D01*
X243998789Y-116597086D01*
X244065663Y-116664077D01*
X243983559Y-116716910D01*
X243838569Y-116929110D01*
X243787560Y-117181000D01*
X231954440Y-117181000D01*
X231910162Y-116945683D01*
X231771090Y-116729559D01*
X231676142Y-116664684D01*
X231741916Y-116599024D01*
X231941772Y-116117718D01*
X231942226Y-115596568D01*
X231743211Y-115114914D01*
X231375024Y-114746084D01*
X231319369Y-114722974D01*
X230632000Y-114035605D01*
X229945279Y-114722326D01*
X229890914Y-114744789D01*
X229522084Y-115112976D01*
X229322228Y-115594282D01*
X229321774Y-116115432D01*
X229520789Y-116597086D01*
X229587663Y-116664077D01*
X229505559Y-116716910D01*
X229360569Y-116929110D01*
X229309560Y-117181000D01*
X229160440Y-117181000D01*
X229116162Y-116945683D01*
X228977090Y-116729559D01*
X228882142Y-116664684D01*
X228947916Y-116599024D01*
X229147772Y-116117718D01*
X229148226Y-115596568D01*
X228949211Y-115114914D01*
X228581024Y-114746084D01*
X228525369Y-114722974D01*
X227838000Y-114035605D01*
X227151279Y-114722326D01*
X227096914Y-114744789D01*
X226728084Y-115112976D01*
X226528228Y-115594282D01*
X226527774Y-116115432D01*
X226726789Y-116597086D01*
X226793663Y-116664077D01*
X226711559Y-116716910D01*
X226566569Y-116929110D01*
X226515560Y-117181000D01*
X214251681Y-117181000D01*
X214103024Y-117032084D01*
X214047369Y-117008974D01*
X213360000Y-116321605D01*
X212673279Y-117008326D01*
X212618914Y-117030789D01*
X212250084Y-117398976D01*
X212050228Y-117880282D01*
X212049774Y-118401432D01*
X212248789Y-118883086D01*
X212315663Y-118950077D01*
X212233559Y-119002910D01*
X212088569Y-119215110D01*
X212037560Y-119467000D01*
X211888440Y-119467000D01*
X211844162Y-119231683D01*
X211705090Y-119015559D01*
X211610142Y-118950684D01*
X211675916Y-118885024D01*
X211875772Y-118403718D01*
X211876226Y-117882568D01*
X211677211Y-117400914D01*
X211309024Y-117032084D01*
X211253369Y-117008974D01*
X210566000Y-116321605D01*
X209879279Y-117008326D01*
X209824914Y-117030789D01*
X209456084Y-117398976D01*
X209256228Y-117880282D01*
X209255774Y-118401432D01*
X209454789Y-118883086D01*
X209521663Y-118950077D01*
X209439559Y-119002910D01*
X209294569Y-119215110D01*
X209243560Y-119467000D01*
X124923617Y-119467000D01*
X124910762Y-119398683D01*
X124771690Y-119182559D01*
X124559490Y-119037569D01*
X124307600Y-118986560D01*
X122580400Y-118986560D01*
X122345083Y-119030838D01*
X122128959Y-119169910D01*
X121983969Y-119382110D01*
X121975600Y-119423439D01*
X121963670Y-119405585D01*
X121477489Y-119080729D01*
X120904000Y-118966655D01*
X120330511Y-119080729D01*
X119844330Y-119405585D01*
X119637539Y-119715069D01*
X119266036Y-119299268D01*
X118738791Y-119045291D01*
X118723026Y-119042642D01*
X118491000Y-119163783D01*
X118237000Y-119163783D01*
X118004974Y-119042642D01*
X117989209Y-119045291D01*
X117461964Y-119299268D01*
X117072046Y-119735680D01*
X116878816Y-120288087D01*
X62471040Y-120288087D01*
X62471040Y-119634000D01*
X62426762Y-119398683D01*
X62287690Y-119182559D01*
X62075490Y-119037569D01*
X61887286Y-118999457D01*
X62058917Y-118967162D01*
X62275041Y-118828090D01*
X62420031Y-118615890D01*
X62471040Y-118364000D01*
X62471040Y-117455913D01*
X116878816Y-117455913D01*
X117072046Y-118008320D01*
X117461964Y-118444732D01*
X117989209Y-118698709D01*
X118004974Y-118701358D01*
X118237000Y-118580217D01*
X118237000Y-117221000D01*
X117023076Y-117221000D01*
X116878816Y-117455913D01*
X62471040Y-117455913D01*
X62471040Y-116732087D01*
X116878816Y-116732087D01*
X117023076Y-116967000D01*
X118237000Y-116967000D01*
X118237000Y-115607783D01*
X118491000Y-115607783D01*
X118491000Y-116967000D01*
X118511000Y-116967000D01*
X118511000Y-117221000D01*
X118491000Y-117221000D01*
X118491000Y-118580217D01*
X118723026Y-118701358D01*
X118738791Y-118698709D01*
X119266036Y-118444732D01*
X119637539Y-118028931D01*
X119844330Y-118338415D01*
X120330511Y-118663271D01*
X120904000Y-118777345D01*
X121477489Y-118663271D01*
X121963670Y-118338415D01*
X121973243Y-118324087D01*
X121977238Y-118345317D01*
X122116310Y-118561441D01*
X122328510Y-118706431D01*
X122580400Y-118757440D01*
X124307600Y-118757440D01*
X124542917Y-118713162D01*
X124759041Y-118574090D01*
X124904031Y-118361890D01*
X124955040Y-118110000D01*
X124955040Y-116078000D01*
X124910762Y-115842683D01*
X124771690Y-115626559D01*
X124559490Y-115481569D01*
X124307600Y-115430560D01*
X122580400Y-115430560D01*
X122345083Y-115474838D01*
X122128959Y-115613910D01*
X121983969Y-115826110D01*
X121975600Y-115867439D01*
X121963670Y-115849585D01*
X121477489Y-115524729D01*
X120904000Y-115410655D01*
X120330511Y-115524729D01*
X119844330Y-115849585D01*
X119637539Y-116159069D01*
X119266036Y-115743268D01*
X118738791Y-115489291D01*
X118723026Y-115486642D01*
X118491000Y-115607783D01*
X118237000Y-115607783D01*
X118004974Y-115486642D01*
X117989209Y-115489291D01*
X117461964Y-115743268D01*
X117072046Y-116179680D01*
X116878816Y-116732087D01*
X62471040Y-116732087D01*
X62471040Y-116332000D01*
X62426762Y-116096683D01*
X62287690Y-115880559D01*
X62075490Y-115735569D01*
X61823600Y-115684560D01*
X60096400Y-115684560D01*
X59861083Y-115728838D01*
X59644959Y-115867910D01*
X59499969Y-116080110D01*
X59491600Y-116121439D01*
X59479670Y-116103585D01*
X58993489Y-115778729D01*
X58420000Y-115664655D01*
X57846511Y-115778729D01*
X57360330Y-116103585D01*
X57153539Y-116413069D01*
X56782036Y-115997268D01*
X56254791Y-115743291D01*
X56239026Y-115740642D01*
X56007000Y-115861783D01*
X55753000Y-115861783D01*
X55520974Y-115740642D01*
X55505209Y-115743291D01*
X54977964Y-115997268D01*
X54588046Y-116433680D01*
X54394816Y-116986087D01*
X12902000Y-116986087D01*
X12902000Y-114722815D01*
X27836630Y-114722815D01*
X28160980Y-115507800D01*
X28761041Y-116108909D01*
X29545459Y-116434628D01*
X30394815Y-116435370D01*
X31179800Y-116111020D01*
X31780909Y-115510959D01*
X32106628Y-114726541D01*
X32106631Y-114722815D01*
X50336630Y-114722815D01*
X50660980Y-115507800D01*
X51261041Y-116108909D01*
X52045459Y-116434628D01*
X52894815Y-116435370D01*
X53679800Y-116111020D01*
X54280909Y-115510959D01*
X54606628Y-114726541D01*
X54606631Y-114722815D01*
X62740630Y-114722815D01*
X63064980Y-115507800D01*
X63665041Y-116108909D01*
X64449459Y-116434628D01*
X65298815Y-116435370D01*
X66083800Y-116111020D01*
X66684909Y-115510959D01*
X67010628Y-114726541D01*
X67010631Y-114722815D01*
X85240630Y-114722815D01*
X85564980Y-115507800D01*
X86165041Y-116108909D01*
X86949459Y-116434628D01*
X87798815Y-116435370D01*
X88583800Y-116111020D01*
X89184909Y-115510959D01*
X89510628Y-114726541D01*
X89510853Y-114468815D01*
X89558630Y-114468815D01*
X89882980Y-115253800D01*
X90483041Y-115854909D01*
X91267459Y-116180628D01*
X92116815Y-116181370D01*
X92901800Y-115857020D01*
X93502909Y-115256959D01*
X93828628Y-114472541D01*
X93828631Y-114468815D01*
X112058630Y-114468815D01*
X112382980Y-115253800D01*
X112983041Y-115854909D01*
X113767459Y-116180628D01*
X114616815Y-116181370D01*
X115401800Y-115857020D01*
X116002909Y-115256959D01*
X116224705Y-114722815D01*
X124716630Y-114722815D01*
X125040980Y-115507800D01*
X125641041Y-116108909D01*
X126425459Y-116434628D01*
X127274815Y-116435370D01*
X128059800Y-116111020D01*
X128660909Y-115510959D01*
X128986628Y-114726541D01*
X128986631Y-114722815D01*
X147216630Y-114722815D01*
X147540980Y-115507800D01*
X148141041Y-116108909D01*
X148925459Y-116434628D01*
X149774815Y-116435370D01*
X150559800Y-116111020D01*
X151160909Y-115510959D01*
X151171764Y-115484815D01*
X153058630Y-115484815D01*
X153382980Y-116269800D01*
X153983041Y-116870909D01*
X154767459Y-117196628D01*
X155616815Y-117197370D01*
X156401800Y-116873020D01*
X157002909Y-116272959D01*
X157328628Y-115488541D01*
X157328631Y-115484815D01*
X159916630Y-115484815D01*
X160240980Y-116269800D01*
X160841041Y-116870909D01*
X161625459Y-117196628D01*
X162474815Y-117197370D01*
X163259800Y-116873020D01*
X163860909Y-116272959D01*
X164186628Y-115488541D01*
X164187075Y-114976815D01*
X170584630Y-114976815D01*
X170908980Y-115761800D01*
X171509041Y-116362909D01*
X172293459Y-116688628D01*
X173142815Y-116689370D01*
X173927800Y-116365020D01*
X174528909Y-115764959D01*
X174750705Y-115230815D01*
X177442630Y-115230815D01*
X177766980Y-116015800D01*
X178367041Y-116616909D01*
X179151459Y-116942628D01*
X180000815Y-116943370D01*
X180785800Y-116619020D01*
X181386909Y-116018959D01*
X181712628Y-115234541D01*
X181713075Y-114722815D01*
X186332630Y-114722815D01*
X186656980Y-115507800D01*
X187257041Y-116108909D01*
X188041459Y-116434628D01*
X188890815Y-116435370D01*
X189675800Y-116111020D01*
X190276909Y-115510959D01*
X190602628Y-114726541D01*
X190602631Y-114722815D01*
X193444630Y-114722815D01*
X193768980Y-115507800D01*
X194369041Y-116108909D01*
X195153459Y-116434628D01*
X196002815Y-116435370D01*
X196787800Y-116111020D01*
X196943992Y-115955100D01*
X209243478Y-115955100D01*
X209272625Y-116475434D01*
X209415672Y-116820781D01*
X209648853Y-116879542D01*
X210386395Y-116142000D01*
X210745605Y-116142000D01*
X211483147Y-116879542D01*
X211716328Y-116820781D01*
X211888522Y-116328900D01*
X211867584Y-115955100D01*
X212037478Y-115955100D01*
X212066625Y-116475434D01*
X212209672Y-116820781D01*
X212442853Y-116879542D01*
X213180395Y-116142000D01*
X213539605Y-116142000D01*
X214277147Y-116879542D01*
X214510328Y-116820781D01*
X214682522Y-116328900D01*
X214653375Y-115808566D01*
X214510328Y-115463219D01*
X214277147Y-115404458D01*
X213539605Y-116142000D01*
X213180395Y-116142000D01*
X212442853Y-115404458D01*
X212209672Y-115463219D01*
X212037478Y-115955100D01*
X211867584Y-115955100D01*
X211859375Y-115808566D01*
X211716328Y-115463219D01*
X211483147Y-115404458D01*
X210745605Y-116142000D01*
X210386395Y-116142000D01*
X209648853Y-115404458D01*
X209415672Y-115463219D01*
X209243478Y-115955100D01*
X196943992Y-115955100D01*
X197388909Y-115510959D01*
X197507710Y-115224853D01*
X209828458Y-115224853D01*
X210566000Y-115962395D01*
X211303542Y-115224853D01*
X212622458Y-115224853D01*
X213360000Y-115962395D01*
X214097542Y-115224853D01*
X214038781Y-114991672D01*
X213546900Y-114819478D01*
X213026566Y-114848625D01*
X212681219Y-114991672D01*
X212622458Y-115224853D01*
X211303542Y-115224853D01*
X211244781Y-114991672D01*
X210752900Y-114819478D01*
X210232566Y-114848625D01*
X209887219Y-114991672D01*
X209828458Y-115224853D01*
X197507710Y-115224853D01*
X197714628Y-114726541D01*
X197715370Y-113877185D01*
X197629391Y-113669100D01*
X226515478Y-113669100D01*
X226544625Y-114189434D01*
X226687672Y-114534781D01*
X226920853Y-114593542D01*
X227658395Y-113856000D01*
X228017605Y-113856000D01*
X228755147Y-114593542D01*
X228988328Y-114534781D01*
X229160522Y-114042900D01*
X229139584Y-113669100D01*
X229309478Y-113669100D01*
X229338625Y-114189434D01*
X229481672Y-114534781D01*
X229714853Y-114593542D01*
X230452395Y-113856000D01*
X230811605Y-113856000D01*
X231549147Y-114593542D01*
X231782328Y-114534781D01*
X231954522Y-114042900D01*
X231933584Y-113669100D01*
X243787478Y-113669100D01*
X243816625Y-114189434D01*
X243959672Y-114534781D01*
X244192853Y-114593542D01*
X244930395Y-113856000D01*
X245289605Y-113856000D01*
X246027147Y-114593542D01*
X246260328Y-114534781D01*
X246369957Y-114221620D01*
X246499672Y-114534781D01*
X246732853Y-114593542D01*
X247470395Y-113856000D01*
X247829605Y-113856000D01*
X248567147Y-114593542D01*
X248800328Y-114534781D01*
X248972522Y-114042900D01*
X248943375Y-113522566D01*
X248800328Y-113177219D01*
X248567147Y-113118458D01*
X247829605Y-113856000D01*
X247470395Y-113856000D01*
X246732853Y-113118458D01*
X246499672Y-113177219D01*
X246390043Y-113490380D01*
X246260328Y-113177219D01*
X246027147Y-113118458D01*
X245289605Y-113856000D01*
X244930395Y-113856000D01*
X244192853Y-113118458D01*
X243959672Y-113177219D01*
X243787478Y-113669100D01*
X231933584Y-113669100D01*
X231925375Y-113522566D01*
X231782328Y-113177219D01*
X231549147Y-113118458D01*
X230811605Y-113856000D01*
X230452395Y-113856000D01*
X229714853Y-113118458D01*
X229481672Y-113177219D01*
X229309478Y-113669100D01*
X229139584Y-113669100D01*
X229131375Y-113522566D01*
X228988328Y-113177219D01*
X228755147Y-113118458D01*
X228017605Y-113856000D01*
X227658395Y-113856000D01*
X226920853Y-113118458D01*
X226687672Y-113177219D01*
X226515478Y-113669100D01*
X197629391Y-113669100D01*
X197391020Y-113092200D01*
X197237941Y-112938853D01*
X227100458Y-112938853D01*
X227838000Y-113676395D01*
X228575542Y-112938853D01*
X229894458Y-112938853D01*
X230632000Y-113676395D01*
X231369542Y-112938853D01*
X244372458Y-112938853D01*
X245110000Y-113676395D01*
X245847542Y-112938853D01*
X246912458Y-112938853D01*
X247650000Y-113676395D01*
X248387542Y-112938853D01*
X248328781Y-112705672D01*
X247836900Y-112533478D01*
X247316566Y-112562625D01*
X246971219Y-112705672D01*
X246912458Y-112938853D01*
X245847542Y-112938853D01*
X245788781Y-112705672D01*
X245296900Y-112533478D01*
X244776566Y-112562625D01*
X244431219Y-112705672D01*
X244372458Y-112938853D01*
X231369542Y-112938853D01*
X231310781Y-112705672D01*
X230818900Y-112533478D01*
X230298566Y-112562625D01*
X229953219Y-112705672D01*
X229894458Y-112938853D01*
X228575542Y-112938853D01*
X228516781Y-112705672D01*
X228024900Y-112533478D01*
X227504566Y-112562625D01*
X227159219Y-112705672D01*
X227100458Y-112938853D01*
X197237941Y-112938853D01*
X196790959Y-112491091D01*
X196006541Y-112165372D01*
X195157185Y-112164630D01*
X194372200Y-112488980D01*
X193771091Y-113089041D01*
X193445372Y-113873459D01*
X193444630Y-114722815D01*
X190602631Y-114722815D01*
X190603370Y-113877185D01*
X190279020Y-113092200D01*
X189678959Y-112491091D01*
X188894541Y-112165372D01*
X188045185Y-112164630D01*
X187260200Y-112488980D01*
X186659091Y-113089041D01*
X186333372Y-113873459D01*
X186332630Y-114722815D01*
X181713075Y-114722815D01*
X181713370Y-114385185D01*
X181389020Y-113600200D01*
X180788959Y-112999091D01*
X180004541Y-112673372D01*
X179155185Y-112672630D01*
X178370200Y-112996980D01*
X177769091Y-113597041D01*
X177443372Y-114381459D01*
X177442630Y-115230815D01*
X174750705Y-115230815D01*
X174854628Y-114980541D01*
X174855370Y-114131185D01*
X174531020Y-113346200D01*
X173930959Y-112745091D01*
X173146541Y-112419372D01*
X172297185Y-112418630D01*
X171512200Y-112742980D01*
X170911091Y-113343041D01*
X170585372Y-114127459D01*
X170584630Y-114976815D01*
X164187075Y-114976815D01*
X164187370Y-114639185D01*
X163863020Y-113854200D01*
X163262959Y-113253091D01*
X162478541Y-112927372D01*
X161629185Y-112926630D01*
X160844200Y-113250980D01*
X160243091Y-113851041D01*
X159917372Y-114635459D01*
X159916630Y-115484815D01*
X157328631Y-115484815D01*
X157329370Y-114639185D01*
X157005020Y-113854200D01*
X156404959Y-113253091D01*
X155620541Y-112927372D01*
X154771185Y-112926630D01*
X153986200Y-113250980D01*
X153385091Y-113851041D01*
X153059372Y-114635459D01*
X153058630Y-115484815D01*
X151171764Y-115484815D01*
X151486628Y-114726541D01*
X151487370Y-113877185D01*
X151163020Y-113092200D01*
X150562959Y-112491091D01*
X149778541Y-112165372D01*
X148929185Y-112164630D01*
X148144200Y-112488980D01*
X147543091Y-113089041D01*
X147217372Y-113873459D01*
X147216630Y-114722815D01*
X128986631Y-114722815D01*
X128987370Y-113877185D01*
X128663020Y-113092200D01*
X128062959Y-112491091D01*
X127278541Y-112165372D01*
X126429185Y-112164630D01*
X125644200Y-112488980D01*
X125043091Y-113089041D01*
X124717372Y-113873459D01*
X124716630Y-114722815D01*
X116224705Y-114722815D01*
X116328628Y-114472541D01*
X116329370Y-113623185D01*
X116005020Y-112838200D01*
X115404959Y-112237091D01*
X114620541Y-111911372D01*
X113771185Y-111910630D01*
X112986200Y-112234980D01*
X112385091Y-112835041D01*
X112059372Y-113619459D01*
X112058630Y-114468815D01*
X93828631Y-114468815D01*
X93829370Y-113623185D01*
X93505020Y-112838200D01*
X92904959Y-112237091D01*
X92120541Y-111911372D01*
X91271185Y-111910630D01*
X90486200Y-112234980D01*
X89885091Y-112835041D01*
X89559372Y-113619459D01*
X89558630Y-114468815D01*
X89510853Y-114468815D01*
X89511370Y-113877185D01*
X89187020Y-113092200D01*
X88586959Y-112491091D01*
X87802541Y-112165372D01*
X86953185Y-112164630D01*
X86168200Y-112488980D01*
X85567091Y-113089041D01*
X85241372Y-113873459D01*
X85240630Y-114722815D01*
X67010631Y-114722815D01*
X67011370Y-113877185D01*
X66687020Y-113092200D01*
X66086959Y-112491091D01*
X65302541Y-112165372D01*
X64453185Y-112164630D01*
X63668200Y-112488980D01*
X63067091Y-113089041D01*
X62741372Y-113873459D01*
X62740630Y-114722815D01*
X54606631Y-114722815D01*
X54607370Y-113877185D01*
X54283020Y-113092200D01*
X53682959Y-112491091D01*
X52898541Y-112165372D01*
X52049185Y-112164630D01*
X51264200Y-112488980D01*
X50663091Y-113089041D01*
X50337372Y-113873459D01*
X50336630Y-114722815D01*
X32106631Y-114722815D01*
X32107370Y-113877185D01*
X31783020Y-113092200D01*
X31182959Y-112491091D01*
X30398541Y-112165372D01*
X29549185Y-112164630D01*
X28764200Y-112488980D01*
X28163091Y-113089041D01*
X27837372Y-113873459D01*
X27836630Y-114722815D01*
X12902000Y-114722815D01*
X12902000Y-109790815D01*
X211732630Y-109790815D01*
X212056980Y-110575800D01*
X212657041Y-111176909D01*
X213441459Y-111502628D01*
X214290815Y-111503370D01*
X215075800Y-111179020D01*
X215676909Y-110578959D01*
X216002628Y-109794541D01*
X216002631Y-109790815D01*
X218336630Y-109790815D01*
X218660980Y-110575800D01*
X219261041Y-111176909D01*
X220045459Y-111502628D01*
X220894815Y-111503370D01*
X221679800Y-111179020D01*
X222280909Y-110578959D01*
X222606628Y-109794541D01*
X222606853Y-109536815D01*
X227226630Y-109536815D01*
X227550980Y-110321800D01*
X228151041Y-110922909D01*
X228935459Y-111248628D01*
X229784815Y-111249370D01*
X230569800Y-110925020D01*
X231170909Y-110324959D01*
X231496628Y-109540541D01*
X231496631Y-109536815D01*
X234084630Y-109536815D01*
X234408980Y-110321800D01*
X235009041Y-110922909D01*
X235793459Y-111248628D01*
X236642815Y-111249370D01*
X237427800Y-110925020D01*
X238028909Y-110324959D01*
X238250705Y-109790815D01*
X243228630Y-109790815D01*
X243552980Y-110575800D01*
X244153041Y-111176909D01*
X244937459Y-111502628D01*
X245786815Y-111503370D01*
X246571800Y-111179020D01*
X247172909Y-110578959D01*
X247498628Y-109794541D01*
X247498631Y-109790815D01*
X250340630Y-109790815D01*
X250664980Y-110575800D01*
X251265041Y-111176909D01*
X252049459Y-111502628D01*
X252898815Y-111503370D01*
X253683800Y-111179020D01*
X254284909Y-110578959D01*
X254610628Y-109794541D01*
X254611370Y-108945185D01*
X254287020Y-108160200D01*
X253686959Y-107559091D01*
X252902541Y-107233372D01*
X252053185Y-107232630D01*
X251268200Y-107556980D01*
X250667091Y-108157041D01*
X250341372Y-108941459D01*
X250340630Y-109790815D01*
X247498631Y-109790815D01*
X247499370Y-108945185D01*
X247175020Y-108160200D01*
X246574959Y-107559091D01*
X245790541Y-107233372D01*
X244941185Y-107232630D01*
X244156200Y-107556980D01*
X243555091Y-108157041D01*
X243229372Y-108941459D01*
X243228630Y-109790815D01*
X238250705Y-109790815D01*
X238354628Y-109540541D01*
X238355370Y-108691185D01*
X238031020Y-107906200D01*
X237430959Y-107305091D01*
X236646541Y-106979372D01*
X235797185Y-106978630D01*
X235012200Y-107302980D01*
X234411091Y-107903041D01*
X234085372Y-108687459D01*
X234084630Y-109536815D01*
X231496631Y-109536815D01*
X231497370Y-108691185D01*
X231173020Y-107906200D01*
X230572959Y-107305091D01*
X229788541Y-106979372D01*
X228939185Y-106978630D01*
X228154200Y-107302980D01*
X227553091Y-107903041D01*
X227227372Y-108687459D01*
X227226630Y-109536815D01*
X222606853Y-109536815D01*
X222607370Y-108945185D01*
X222283020Y-108160200D01*
X221682959Y-107559091D01*
X220898541Y-107233372D01*
X220049185Y-107232630D01*
X219264200Y-107556980D01*
X218663091Y-108157041D01*
X218337372Y-108941459D01*
X218336630Y-109790815D01*
X216002631Y-109790815D01*
X216003370Y-108945185D01*
X215679020Y-108160200D01*
X215078959Y-107559091D01*
X214294541Y-107233372D01*
X213445185Y-107232630D01*
X212660200Y-107556980D01*
X212059091Y-108157041D01*
X211733372Y-108941459D01*
X211732630Y-109790815D01*
X12902000Y-109790815D01*
X12902000Y-107610815D01*
X27836630Y-107610815D01*
X28160980Y-108395800D01*
X28761041Y-108996909D01*
X29545459Y-109322628D01*
X30394815Y-109323370D01*
X31179800Y-108999020D01*
X31780909Y-108398959D01*
X32106628Y-107614541D01*
X32106657Y-107581109D01*
X39236657Y-107581109D01*
X39538218Y-108310943D01*
X40096120Y-108869819D01*
X40825427Y-109172654D01*
X41615109Y-109173343D01*
X42344943Y-108871782D01*
X42903819Y-108313880D01*
X43195757Y-107610815D01*
X50336630Y-107610815D01*
X50660980Y-108395800D01*
X51261041Y-108996909D01*
X52045459Y-109322628D01*
X52894815Y-109323370D01*
X53679800Y-108999020D01*
X54280909Y-108398959D01*
X54502705Y-107864815D01*
X62486630Y-107864815D01*
X62810980Y-108649800D01*
X63411041Y-109250909D01*
X64195459Y-109576628D01*
X65044815Y-109577370D01*
X65829800Y-109253020D01*
X66430909Y-108652959D01*
X66756628Y-107868541D01*
X66756657Y-107835109D01*
X73886657Y-107835109D01*
X74188218Y-108564943D01*
X74746120Y-109123819D01*
X75475427Y-109426654D01*
X76265109Y-109427343D01*
X76994943Y-109125782D01*
X77553819Y-108567880D01*
X77845757Y-107864815D01*
X84986630Y-107864815D01*
X85310980Y-108649800D01*
X85911041Y-109250909D01*
X86695459Y-109576628D01*
X87544815Y-109577370D01*
X88329800Y-109253020D01*
X88930909Y-108652959D01*
X89256628Y-107868541D01*
X89256853Y-107610815D01*
X89558630Y-107610815D01*
X89882980Y-108395800D01*
X90483041Y-108996909D01*
X91267459Y-109322628D01*
X92116815Y-109323370D01*
X92901800Y-108999020D01*
X93502909Y-108398959D01*
X93828628Y-107614541D01*
X93828657Y-107581109D01*
X100958657Y-107581109D01*
X101260218Y-108310943D01*
X101818120Y-108869819D01*
X102547427Y-109172654D01*
X103337109Y-109173343D01*
X104066943Y-108871782D01*
X104625819Y-108313880D01*
X104917757Y-107610815D01*
X112058630Y-107610815D01*
X112382980Y-108395800D01*
X112983041Y-108996909D01*
X113767459Y-109322628D01*
X114616815Y-109323370D01*
X115401800Y-108999020D01*
X116002909Y-108398959D01*
X116224705Y-107864815D01*
X124716630Y-107864815D01*
X125040980Y-108649800D01*
X125641041Y-109250909D01*
X126425459Y-109576628D01*
X127274815Y-109577370D01*
X128059800Y-109253020D01*
X128660909Y-108652959D01*
X128986628Y-107868541D01*
X128986657Y-107835109D01*
X136116657Y-107835109D01*
X136418218Y-108564943D01*
X136976120Y-109123819D01*
X137705427Y-109426654D01*
X138495109Y-109427343D01*
X139224943Y-109125782D01*
X139783819Y-108567880D01*
X140075757Y-107864815D01*
X147216630Y-107864815D01*
X147540980Y-108649800D01*
X148141041Y-109250909D01*
X148925459Y-109576628D01*
X149774815Y-109577370D01*
X150559800Y-109253020D01*
X151160909Y-108652959D01*
X151486628Y-107868541D01*
X151487370Y-107019185D01*
X151163020Y-106234200D01*
X150955097Y-106025913D01*
X158026816Y-106025913D01*
X158220046Y-106578320D01*
X158609964Y-107014732D01*
X159137209Y-107268709D01*
X159152974Y-107271358D01*
X159385000Y-107150217D01*
X159385000Y-105791000D01*
X158171076Y-105791000D01*
X158026816Y-106025913D01*
X150955097Y-106025913D01*
X150562959Y-105633091D01*
X149778541Y-105307372D01*
X148929185Y-105306630D01*
X148144200Y-105630980D01*
X147543091Y-106231041D01*
X147217372Y-107015459D01*
X147216630Y-107864815D01*
X140075757Y-107864815D01*
X140086654Y-107838573D01*
X140087343Y-107048891D01*
X139785782Y-106319057D01*
X139227880Y-105760181D01*
X138498573Y-105457346D01*
X137708891Y-105456657D01*
X136979057Y-105758218D01*
X136420181Y-106316120D01*
X136117346Y-107045427D01*
X136116657Y-107835109D01*
X128986657Y-107835109D01*
X128987370Y-107019185D01*
X128663020Y-106234200D01*
X128062959Y-105633091D01*
X127278541Y-105307372D01*
X126429185Y-105306630D01*
X125644200Y-105630980D01*
X125043091Y-106231041D01*
X124717372Y-107015459D01*
X124716630Y-107864815D01*
X116224705Y-107864815D01*
X116328628Y-107614541D01*
X116329370Y-106765185D01*
X116005020Y-105980200D01*
X115404959Y-105379091D01*
X115219513Y-105302087D01*
X158026816Y-105302087D01*
X158171076Y-105537000D01*
X159385000Y-105537000D01*
X159385000Y-104177783D01*
X159152974Y-104056642D01*
X159137209Y-104059291D01*
X158609964Y-104313268D01*
X158220046Y-104749680D01*
X158026816Y-105302087D01*
X115219513Y-105302087D01*
X114620541Y-105053372D01*
X113771185Y-105052630D01*
X112986200Y-105376980D01*
X112385091Y-105977041D01*
X112059372Y-106761459D01*
X112058630Y-107610815D01*
X104917757Y-107610815D01*
X104928654Y-107584573D01*
X104929343Y-106794891D01*
X104627782Y-106065057D01*
X104069880Y-105506181D01*
X103340573Y-105203346D01*
X102550891Y-105202657D01*
X101821057Y-105504218D01*
X101262181Y-106062120D01*
X100959346Y-106791427D01*
X100958657Y-107581109D01*
X93828657Y-107581109D01*
X93829370Y-106765185D01*
X93505020Y-105980200D01*
X92904959Y-105379091D01*
X92120541Y-105053372D01*
X91271185Y-105052630D01*
X90486200Y-105376980D01*
X89885091Y-105977041D01*
X89559372Y-106761459D01*
X89558630Y-107610815D01*
X89256853Y-107610815D01*
X89257370Y-107019185D01*
X88933020Y-106234200D01*
X88332959Y-105633091D01*
X87548541Y-105307372D01*
X86699185Y-105306630D01*
X85914200Y-105630980D01*
X85313091Y-106231041D01*
X84987372Y-107015459D01*
X84986630Y-107864815D01*
X77845757Y-107864815D01*
X77856654Y-107838573D01*
X77857343Y-107048891D01*
X77555782Y-106319057D01*
X76997880Y-105760181D01*
X76268573Y-105457346D01*
X75478891Y-105456657D01*
X74749057Y-105758218D01*
X74190181Y-106316120D01*
X73887346Y-107045427D01*
X73886657Y-107835109D01*
X66756657Y-107835109D01*
X66757370Y-107019185D01*
X66433020Y-106234200D01*
X65832959Y-105633091D01*
X65048541Y-105307372D01*
X64199185Y-105306630D01*
X63414200Y-105630980D01*
X62813091Y-106231041D01*
X62487372Y-107015459D01*
X62486630Y-107864815D01*
X54502705Y-107864815D01*
X54606628Y-107614541D01*
X54607370Y-106765185D01*
X54283020Y-105980200D01*
X53682959Y-105379091D01*
X52898541Y-105053372D01*
X52049185Y-105052630D01*
X51264200Y-105376980D01*
X50663091Y-105977041D01*
X50337372Y-106761459D01*
X50336630Y-107610815D01*
X43195757Y-107610815D01*
X43206654Y-107584573D01*
X43207343Y-106794891D01*
X42905782Y-106065057D01*
X42347880Y-105506181D01*
X41618573Y-105203346D01*
X40828891Y-105202657D01*
X40099057Y-105504218D01*
X39540181Y-106062120D01*
X39237346Y-106791427D01*
X39236657Y-107581109D01*
X32106657Y-107581109D01*
X32107370Y-106765185D01*
X31783020Y-105980200D01*
X31182959Y-105379091D01*
X30398541Y-105053372D01*
X29549185Y-105052630D01*
X28764200Y-105376980D01*
X28163091Y-105977041D01*
X27837372Y-106761459D01*
X27836630Y-107610815D01*
X12902000Y-107610815D01*
X12902000Y-102723913D01*
X158026816Y-102723913D01*
X158220046Y-103276320D01*
X158609964Y-103712732D01*
X159137209Y-103966709D01*
X159152974Y-103969358D01*
X159385000Y-103848217D01*
X159385000Y-102489000D01*
X158171076Y-102489000D01*
X158026816Y-102723913D01*
X12902000Y-102723913D01*
X12902000Y-102000087D01*
X158026816Y-102000087D01*
X158171076Y-102235000D01*
X159385000Y-102235000D01*
X159385000Y-100875783D01*
X159639000Y-100875783D01*
X159639000Y-102235000D01*
X159659000Y-102235000D01*
X159659000Y-102489000D01*
X159639000Y-102489000D01*
X159639000Y-103848217D01*
X159871026Y-103969358D01*
X159886791Y-103966709D01*
X160414036Y-103712732D01*
X160785539Y-103296931D01*
X160992330Y-103606415D01*
X161478511Y-103931271D01*
X161889391Y-104013000D01*
X161478511Y-104094729D01*
X160992330Y-104419585D01*
X160785539Y-104729069D01*
X160414036Y-104313268D01*
X159886791Y-104059291D01*
X159871026Y-104056642D01*
X159639000Y-104177783D01*
X159639000Y-105537000D01*
X159659000Y-105537000D01*
X159659000Y-105791000D01*
X159639000Y-105791000D01*
X159639000Y-107150217D01*
X159871026Y-107271358D01*
X159886791Y-107268709D01*
X160414036Y-107014732D01*
X160785539Y-106598931D01*
X160992330Y-106908415D01*
X161478511Y-107233271D01*
X162052000Y-107347345D01*
X162625489Y-107233271D01*
X163111670Y-106908415D01*
X163121243Y-106894087D01*
X163125238Y-106915317D01*
X163264310Y-107131441D01*
X163476510Y-107276431D01*
X163728400Y-107327440D01*
X165455600Y-107327440D01*
X165690917Y-107283162D01*
X165907041Y-107144090D01*
X166052031Y-106931890D01*
X166103040Y-106680000D01*
X166103040Y-105263913D01*
X197142816Y-105263913D01*
X197336046Y-105816320D01*
X197725964Y-106252732D01*
X198253209Y-106506709D01*
X198268974Y-106509358D01*
X198501000Y-106388217D01*
X198501000Y-105029000D01*
X197287076Y-105029000D01*
X197142816Y-105263913D01*
X166103040Y-105263913D01*
X166103040Y-104648000D01*
X166058762Y-104412683D01*
X165919690Y-104196559D01*
X165707490Y-104051569D01*
X165519286Y-104013457D01*
X165690917Y-103981162D01*
X165907041Y-103842090D01*
X166052031Y-103629890D01*
X166103040Y-103378000D01*
X166103040Y-101346000D01*
X166067067Y-101154815D01*
X166520630Y-101154815D01*
X166844980Y-101939800D01*
X167445041Y-102540909D01*
X168229459Y-102866628D01*
X169078815Y-102867370D01*
X169863800Y-102543020D01*
X170464909Y-101942959D01*
X170790628Y-101158541D01*
X170790631Y-101154815D01*
X173378630Y-101154815D01*
X173702980Y-101939800D01*
X174303041Y-102540909D01*
X175087459Y-102866628D01*
X175936815Y-102867370D01*
X176721800Y-102543020D01*
X177322909Y-101942959D01*
X177648628Y-101158541D01*
X177648631Y-101154815D01*
X183792630Y-101154815D01*
X184116980Y-101939800D01*
X184717041Y-102540909D01*
X185501459Y-102866628D01*
X186350815Y-102867370D01*
X187135800Y-102543020D01*
X187736909Y-101942959D01*
X188062628Y-101158541D01*
X188062631Y-101154815D01*
X190650630Y-101154815D01*
X190974980Y-101939800D01*
X191575041Y-102540909D01*
X192359459Y-102866628D01*
X193208815Y-102867370D01*
X193993800Y-102543020D01*
X194321478Y-102215913D01*
X197142816Y-102215913D01*
X197336046Y-102768320D01*
X197725964Y-103204732D01*
X198085661Y-103378000D01*
X197725964Y-103551268D01*
X197336046Y-103987680D01*
X197142816Y-104540087D01*
X197287076Y-104775000D01*
X198501000Y-104775000D01*
X198501000Y-103415783D01*
X198428633Y-103378000D01*
X198501000Y-103340217D01*
X198501000Y-101981000D01*
X197287076Y-101981000D01*
X197142816Y-102215913D01*
X194321478Y-102215913D01*
X194594909Y-101942959D01*
X194782127Y-101492087D01*
X197142816Y-101492087D01*
X197287076Y-101727000D01*
X198501000Y-101727000D01*
X198501000Y-100367783D01*
X198755000Y-100367783D01*
X198755000Y-101727000D01*
X198775000Y-101727000D01*
X198775000Y-101981000D01*
X198755000Y-101981000D01*
X198755000Y-103340217D01*
X198827367Y-103378000D01*
X198755000Y-103415783D01*
X198755000Y-104775000D01*
X198775000Y-104775000D01*
X198775000Y-105029000D01*
X198755000Y-105029000D01*
X198755000Y-106388217D01*
X198987026Y-106509358D01*
X199002791Y-106506709D01*
X199530036Y-106252732D01*
X199901539Y-105836931D01*
X200108330Y-106146415D01*
X200594511Y-106471271D01*
X201168000Y-106585345D01*
X201741489Y-106471271D01*
X202227670Y-106146415D01*
X202237243Y-106132087D01*
X202241238Y-106153317D01*
X202380310Y-106369441D01*
X202592510Y-106514431D01*
X202844400Y-106565440D01*
X204571600Y-106565440D01*
X204806917Y-106521162D01*
X205023041Y-106382090D01*
X205168031Y-106169890D01*
X205219040Y-105918000D01*
X205219040Y-103886000D01*
X205174762Y-103650683D01*
X205035690Y-103434559D01*
X204953830Y-103378626D01*
X205023041Y-103334090D01*
X205168031Y-103121890D01*
X205219040Y-102870000D01*
X205219040Y-100838000D01*
X205174762Y-100602683D01*
X205035690Y-100386559D01*
X204823490Y-100241569D01*
X204571600Y-100190560D01*
X202844400Y-100190560D01*
X202609083Y-100234838D01*
X202392959Y-100373910D01*
X202247969Y-100586110D01*
X202239600Y-100627439D01*
X202227670Y-100609585D01*
X201741489Y-100284729D01*
X201168000Y-100170655D01*
X200594511Y-100284729D01*
X200108330Y-100609585D01*
X199901539Y-100919069D01*
X199530036Y-100503268D01*
X199002791Y-100249291D01*
X198987026Y-100246642D01*
X198755000Y-100367783D01*
X198501000Y-100367783D01*
X198268974Y-100246642D01*
X198253209Y-100249291D01*
X197725964Y-100503268D01*
X197336046Y-100939680D01*
X197142816Y-101492087D01*
X194782127Y-101492087D01*
X194920628Y-101158541D01*
X194921370Y-100309185D01*
X194597020Y-99524200D01*
X193996959Y-98923091D01*
X193212541Y-98597372D01*
X192363185Y-98596630D01*
X191578200Y-98920980D01*
X190977091Y-99521041D01*
X190651372Y-100305459D01*
X190650630Y-101154815D01*
X188062631Y-101154815D01*
X188063370Y-100309185D01*
X187739020Y-99524200D01*
X187138959Y-98923091D01*
X186354541Y-98597372D01*
X185505185Y-98596630D01*
X184720200Y-98920980D01*
X184119091Y-99521041D01*
X183793372Y-100305459D01*
X183792630Y-101154815D01*
X177648631Y-101154815D01*
X177649370Y-100309185D01*
X177325020Y-99524200D01*
X176724959Y-98923091D01*
X175940541Y-98597372D01*
X175091185Y-98596630D01*
X174306200Y-98920980D01*
X173705091Y-99521041D01*
X173379372Y-100305459D01*
X173378630Y-101154815D01*
X170790631Y-101154815D01*
X170791370Y-100309185D01*
X170467020Y-99524200D01*
X169866959Y-98923091D01*
X169082541Y-98597372D01*
X168233185Y-98596630D01*
X167448200Y-98920980D01*
X166847091Y-99521041D01*
X166521372Y-100305459D01*
X166520630Y-101154815D01*
X166067067Y-101154815D01*
X166058762Y-101110683D01*
X165919690Y-100894559D01*
X165707490Y-100749569D01*
X165455600Y-100698560D01*
X163728400Y-100698560D01*
X163493083Y-100742838D01*
X163276959Y-100881910D01*
X163131969Y-101094110D01*
X163123600Y-101135439D01*
X163111670Y-101117585D01*
X162625489Y-100792729D01*
X162052000Y-100678655D01*
X161478511Y-100792729D01*
X160992330Y-101117585D01*
X160785539Y-101427069D01*
X160414036Y-101011268D01*
X159886791Y-100757291D01*
X159871026Y-100754642D01*
X159639000Y-100875783D01*
X159385000Y-100875783D01*
X159152974Y-100754642D01*
X159137209Y-100757291D01*
X158609964Y-101011268D01*
X158220046Y-101447680D01*
X158026816Y-102000087D01*
X12902000Y-102000087D01*
X12902000Y-98720815D01*
X29868630Y-98720815D01*
X30192980Y-99505800D01*
X30793041Y-100106909D01*
X31577459Y-100432628D01*
X32426815Y-100433370D01*
X33211800Y-100109020D01*
X33812909Y-99508959D01*
X34138628Y-98724541D01*
X34138631Y-98720815D01*
X52368630Y-98720815D01*
X52692980Y-99505800D01*
X53293041Y-100106909D01*
X54077459Y-100432628D01*
X54926815Y-100433370D01*
X55711800Y-100109020D01*
X56312909Y-99508959D01*
X56638628Y-98724541D01*
X56638853Y-98466815D01*
X56898630Y-98466815D01*
X57222980Y-99251800D01*
X57823041Y-99852909D01*
X58607459Y-100178628D01*
X59456815Y-100179370D01*
X60241800Y-99855020D01*
X60842909Y-99254959D01*
X61168628Y-98470541D01*
X61168631Y-98466815D01*
X79398630Y-98466815D01*
X79722980Y-99251800D01*
X80323041Y-99852909D01*
X81107459Y-100178628D01*
X81956815Y-100179370D01*
X82741800Y-99855020D01*
X83342909Y-99254959D01*
X83564705Y-98720815D01*
X93876630Y-98720815D01*
X94200980Y-99505800D01*
X94801041Y-100106909D01*
X95585459Y-100432628D01*
X96434815Y-100433370D01*
X97219800Y-100109020D01*
X97820909Y-99508959D01*
X98146628Y-98724541D01*
X98146631Y-98720815D01*
X116376630Y-98720815D01*
X116700980Y-99505800D01*
X117301041Y-100106909D01*
X118085459Y-100432628D01*
X118934815Y-100433370D01*
X119719800Y-100109020D01*
X120320909Y-99508959D01*
X120646628Y-98724541D01*
X120646631Y-98720815D01*
X122938630Y-98720815D01*
X123262980Y-99505800D01*
X123863041Y-100106909D01*
X124647459Y-100432628D01*
X125496815Y-100433370D01*
X126281800Y-100109020D01*
X126882909Y-99508959D01*
X127208628Y-98724541D01*
X127208631Y-98720815D01*
X145438630Y-98720815D01*
X145762980Y-99505800D01*
X146363041Y-100106909D01*
X147147459Y-100432628D01*
X147996815Y-100433370D01*
X148781800Y-100109020D01*
X149382909Y-99508959D01*
X149708628Y-98724541D01*
X149708814Y-98511109D01*
X218486657Y-98511109D01*
X218788218Y-99240943D01*
X219346120Y-99799819D01*
X220075427Y-100102654D01*
X220865109Y-100103343D01*
X221594943Y-99801782D01*
X222153819Y-99243880D01*
X222456654Y-98514573D01*
X222456878Y-98257109D01*
X234234657Y-98257109D01*
X234536218Y-98986943D01*
X235094120Y-99545819D01*
X235823427Y-99848654D01*
X236613109Y-99849343D01*
X237342943Y-99547782D01*
X237901819Y-98989880D01*
X238100622Y-98511109D01*
X250490657Y-98511109D01*
X250792218Y-99240943D01*
X251350120Y-99799819D01*
X252079427Y-100102654D01*
X252869109Y-100103343D01*
X253598943Y-99801782D01*
X254157819Y-99243880D01*
X254460654Y-98514573D01*
X254461343Y-97724891D01*
X254159782Y-96995057D01*
X253601880Y-96436181D01*
X252872573Y-96133346D01*
X252082891Y-96132657D01*
X251353057Y-96434218D01*
X250794181Y-96992120D01*
X250491346Y-97721427D01*
X250490657Y-98511109D01*
X238100622Y-98511109D01*
X238204654Y-98260573D01*
X238205343Y-97470891D01*
X237903782Y-96741057D01*
X237345880Y-96182181D01*
X236616573Y-95879346D01*
X235826891Y-95878657D01*
X235097057Y-96180218D01*
X234538181Y-96738120D01*
X234235346Y-97467427D01*
X234234657Y-98257109D01*
X222456878Y-98257109D01*
X222457343Y-97724891D01*
X222155782Y-96995057D01*
X221597880Y-96436181D01*
X220868573Y-96133346D01*
X220078891Y-96132657D01*
X219349057Y-96434218D01*
X218790181Y-96992120D01*
X218487346Y-97721427D01*
X218486657Y-98511109D01*
X149708814Y-98511109D01*
X149709370Y-97875185D01*
X149385020Y-97090200D01*
X148784959Y-96489091D01*
X148000541Y-96163372D01*
X147151185Y-96162630D01*
X146366200Y-96486980D01*
X145765091Y-97087041D01*
X145439372Y-97871459D01*
X145438630Y-98720815D01*
X127208631Y-98720815D01*
X127209370Y-97875185D01*
X126885020Y-97090200D01*
X126284959Y-96489091D01*
X125500541Y-96163372D01*
X124651185Y-96162630D01*
X123866200Y-96486980D01*
X123265091Y-97087041D01*
X122939372Y-97871459D01*
X122938630Y-98720815D01*
X120646631Y-98720815D01*
X120647370Y-97875185D01*
X120323020Y-97090200D01*
X119722959Y-96489091D01*
X118938541Y-96163372D01*
X118089185Y-96162630D01*
X117304200Y-96486980D01*
X116703091Y-97087041D01*
X116377372Y-97871459D01*
X116376630Y-98720815D01*
X98146631Y-98720815D01*
X98147370Y-97875185D01*
X97823020Y-97090200D01*
X97222959Y-96489091D01*
X96438541Y-96163372D01*
X95589185Y-96162630D01*
X94804200Y-96486980D01*
X94203091Y-97087041D01*
X93877372Y-97871459D01*
X93876630Y-98720815D01*
X83564705Y-98720815D01*
X83668628Y-98470541D01*
X83669370Y-97621185D01*
X83345020Y-96836200D01*
X82744959Y-96235091D01*
X81960541Y-95909372D01*
X81111185Y-95908630D01*
X80326200Y-96232980D01*
X79725091Y-96833041D01*
X79399372Y-97617459D01*
X79398630Y-98466815D01*
X61168631Y-98466815D01*
X61169370Y-97621185D01*
X60845020Y-96836200D01*
X60244959Y-96235091D01*
X59460541Y-95909372D01*
X58611185Y-95908630D01*
X57826200Y-96232980D01*
X57225091Y-96833041D01*
X56899372Y-97617459D01*
X56898630Y-98466815D01*
X56638853Y-98466815D01*
X56639370Y-97875185D01*
X56315020Y-97090200D01*
X55714959Y-96489091D01*
X54930541Y-96163372D01*
X54081185Y-96162630D01*
X53296200Y-96486980D01*
X52695091Y-97087041D01*
X52369372Y-97871459D01*
X52368630Y-98720815D01*
X34138631Y-98720815D01*
X34139370Y-97875185D01*
X33815020Y-97090200D01*
X33214959Y-96489091D01*
X32430541Y-96163372D01*
X31581185Y-96162630D01*
X30796200Y-96486980D01*
X30195091Y-97087041D01*
X29869372Y-97871459D01*
X29868630Y-98720815D01*
X12902000Y-98720815D01*
X12902000Y-91354815D01*
X30122630Y-91354815D01*
X30446980Y-92139800D01*
X31047041Y-92740909D01*
X31831459Y-93066628D01*
X32680815Y-93067370D01*
X33465800Y-92743020D01*
X34066909Y-92142959D01*
X34392628Y-91358541D01*
X34392657Y-91325109D01*
X41522657Y-91325109D01*
X41824218Y-92054943D01*
X42382120Y-92613819D01*
X43111427Y-92916654D01*
X43901109Y-92917343D01*
X44630943Y-92615782D01*
X45189819Y-92057880D01*
X45481757Y-91354815D01*
X52622630Y-91354815D01*
X52946980Y-92139800D01*
X53547041Y-92740909D01*
X54331459Y-93066628D01*
X55180815Y-93067370D01*
X55965800Y-92743020D01*
X56566909Y-92142959D01*
X56892628Y-91358541D01*
X56892631Y-91354815D01*
X57152630Y-91354815D01*
X57476980Y-92139800D01*
X58077041Y-92740909D01*
X58861459Y-93066628D01*
X59710815Y-93067370D01*
X60495800Y-92743020D01*
X61096909Y-92142959D01*
X61422628Y-91358541D01*
X61422657Y-91325109D01*
X68552657Y-91325109D01*
X68854218Y-92054943D01*
X69412120Y-92613819D01*
X70141427Y-92916654D01*
X70931109Y-92917343D01*
X71660943Y-92615782D01*
X72219819Y-92057880D01*
X72511757Y-91354815D01*
X79652630Y-91354815D01*
X79976980Y-92139800D01*
X80577041Y-92740909D01*
X81361459Y-93066628D01*
X82210815Y-93067370D01*
X82995800Y-92743020D01*
X83596909Y-92142959D01*
X83713235Y-91862815D01*
X93876630Y-91862815D01*
X94200980Y-92647800D01*
X94801041Y-93248909D01*
X95585459Y-93574628D01*
X96434815Y-93575370D01*
X97219800Y-93251020D01*
X97820909Y-92650959D01*
X98146628Y-91866541D01*
X98146657Y-91833109D01*
X105276657Y-91833109D01*
X105578218Y-92562943D01*
X106136120Y-93121819D01*
X106865427Y-93424654D01*
X107655109Y-93425343D01*
X108384943Y-93123782D01*
X108943819Y-92565880D01*
X109235757Y-91862815D01*
X116376630Y-91862815D01*
X116700980Y-92647800D01*
X117301041Y-93248909D01*
X118085459Y-93574628D01*
X118934815Y-93575370D01*
X119719800Y-93251020D01*
X120320909Y-92650959D01*
X120646628Y-91866541D01*
X120646631Y-91862815D01*
X122938630Y-91862815D01*
X123262980Y-92647800D01*
X123863041Y-93248909D01*
X124647459Y-93574628D01*
X125496815Y-93575370D01*
X126281800Y-93251020D01*
X126882909Y-92650959D01*
X127208628Y-91866541D01*
X127208657Y-91833109D01*
X134338657Y-91833109D01*
X134640218Y-92562943D01*
X135198120Y-93121819D01*
X135927427Y-93424654D01*
X136717109Y-93425343D01*
X137446943Y-93123782D01*
X138005819Y-92565880D01*
X138297757Y-91862815D01*
X145438630Y-91862815D01*
X145762980Y-92647800D01*
X146363041Y-93248909D01*
X147147459Y-93574628D01*
X147996815Y-93575370D01*
X148781800Y-93251020D01*
X149382909Y-92650959D01*
X149708628Y-91866541D01*
X149709370Y-91017185D01*
X149385020Y-90232200D01*
X149028552Y-89875109D01*
X173528657Y-89875109D01*
X173830218Y-90604943D01*
X174388120Y-91163819D01*
X175117427Y-91466654D01*
X175907109Y-91467343D01*
X176636943Y-91165782D01*
X177195819Y-90607880D01*
X177498654Y-89878573D01*
X177498657Y-89875109D01*
X183942657Y-89875109D01*
X184244218Y-90604943D01*
X184802120Y-91163819D01*
X185531427Y-91466654D01*
X186321109Y-91467343D01*
X187050943Y-91165782D01*
X187609819Y-90607880D01*
X187912654Y-89878573D01*
X187913343Y-89088891D01*
X187611782Y-88359057D01*
X187053880Y-87800181D01*
X186324573Y-87497346D01*
X185534891Y-87496657D01*
X184805057Y-87798218D01*
X184246181Y-88356120D01*
X183943346Y-89085427D01*
X183942657Y-89875109D01*
X177498657Y-89875109D01*
X177499343Y-89088891D01*
X177197782Y-88359057D01*
X176639880Y-87800181D01*
X175910573Y-87497346D01*
X175120891Y-87496657D01*
X174391057Y-87798218D01*
X173832181Y-88356120D01*
X173529346Y-89085427D01*
X173528657Y-89875109D01*
X149028552Y-89875109D01*
X148784959Y-89631091D01*
X148000541Y-89305372D01*
X147151185Y-89304630D01*
X146366200Y-89628980D01*
X145765091Y-90229041D01*
X145439372Y-91013459D01*
X145438630Y-91862815D01*
X138297757Y-91862815D01*
X138308654Y-91836573D01*
X138309343Y-91046891D01*
X138007782Y-90317057D01*
X137449880Y-89758181D01*
X136720573Y-89455346D01*
X135930891Y-89454657D01*
X135201057Y-89756218D01*
X134642181Y-90314120D01*
X134339346Y-91043427D01*
X134338657Y-91833109D01*
X127208657Y-91833109D01*
X127209370Y-91017185D01*
X126885020Y-90232200D01*
X126284959Y-89631091D01*
X125500541Y-89305372D01*
X124651185Y-89304630D01*
X123866200Y-89628980D01*
X123265091Y-90229041D01*
X122939372Y-91013459D01*
X122938630Y-91862815D01*
X120646631Y-91862815D01*
X120647370Y-91017185D01*
X120323020Y-90232200D01*
X119722959Y-89631091D01*
X118938541Y-89305372D01*
X118089185Y-89304630D01*
X117304200Y-89628980D01*
X116703091Y-90229041D01*
X116377372Y-91013459D01*
X116376630Y-91862815D01*
X109235757Y-91862815D01*
X109246654Y-91836573D01*
X109247343Y-91046891D01*
X108945782Y-90317057D01*
X108387880Y-89758181D01*
X107658573Y-89455346D01*
X106868891Y-89454657D01*
X106139057Y-89756218D01*
X105580181Y-90314120D01*
X105277346Y-91043427D01*
X105276657Y-91833109D01*
X98146657Y-91833109D01*
X98147370Y-91017185D01*
X97823020Y-90232200D01*
X97222959Y-89631091D01*
X96438541Y-89305372D01*
X95589185Y-89304630D01*
X94804200Y-89628980D01*
X94203091Y-90229041D01*
X93877372Y-91013459D01*
X93876630Y-91862815D01*
X83713235Y-91862815D01*
X83922628Y-91358541D01*
X83923370Y-90509185D01*
X83599020Y-89724200D01*
X82998959Y-89123091D01*
X82214541Y-88797372D01*
X81365185Y-88796630D01*
X80580200Y-89120980D01*
X79979091Y-89721041D01*
X79653372Y-90505459D01*
X79652630Y-91354815D01*
X72511757Y-91354815D01*
X72522654Y-91328573D01*
X72523343Y-90538891D01*
X72221782Y-89809057D01*
X71663880Y-89250181D01*
X70934573Y-88947346D01*
X70144891Y-88946657D01*
X69415057Y-89248218D01*
X68856181Y-89806120D01*
X68553346Y-90535427D01*
X68552657Y-91325109D01*
X61422657Y-91325109D01*
X61423370Y-90509185D01*
X61099020Y-89724200D01*
X60498959Y-89123091D01*
X59714541Y-88797372D01*
X58865185Y-88796630D01*
X58080200Y-89120980D01*
X57479091Y-89721041D01*
X57153372Y-90505459D01*
X57152630Y-91354815D01*
X56892631Y-91354815D01*
X56893370Y-90509185D01*
X56569020Y-89724200D01*
X55968959Y-89123091D01*
X55184541Y-88797372D01*
X54335185Y-88796630D01*
X53550200Y-89120980D01*
X52949091Y-89721041D01*
X52623372Y-90505459D01*
X52622630Y-91354815D01*
X45481757Y-91354815D01*
X45492654Y-91328573D01*
X45493343Y-90538891D01*
X45191782Y-89809057D01*
X44633880Y-89250181D01*
X43904573Y-88947346D01*
X43114891Y-88946657D01*
X42385057Y-89248218D01*
X41826181Y-89806120D01*
X41523346Y-90535427D01*
X41522657Y-91325109D01*
X34392657Y-91325109D01*
X34393370Y-90509185D01*
X34069020Y-89724200D01*
X33468959Y-89123091D01*
X32684541Y-88797372D01*
X31835185Y-88796630D01*
X31050200Y-89120980D01*
X30449091Y-89721041D01*
X30123372Y-90505459D01*
X30122630Y-91354815D01*
X12902000Y-91354815D01*
X12902000Y-87290815D01*
X211732630Y-87290815D01*
X212056980Y-88075800D01*
X212657041Y-88676909D01*
X213441459Y-89002628D01*
X214290815Y-89003370D01*
X215075800Y-88679020D01*
X215676909Y-88078959D01*
X216002628Y-87294541D01*
X216002631Y-87290815D01*
X218336630Y-87290815D01*
X218660980Y-88075800D01*
X219261041Y-88676909D01*
X220045459Y-89002628D01*
X220894815Y-89003370D01*
X221679800Y-88679020D01*
X222280909Y-88078959D01*
X222606628Y-87294541D01*
X222606853Y-87036815D01*
X227226630Y-87036815D01*
X227550980Y-87821800D01*
X228151041Y-88422909D01*
X228935459Y-88748628D01*
X229784815Y-88749370D01*
X230569800Y-88425020D01*
X231170909Y-87824959D01*
X231496628Y-87040541D01*
X231496631Y-87036815D01*
X234084630Y-87036815D01*
X234408980Y-87821800D01*
X235009041Y-88422909D01*
X235793459Y-88748628D01*
X236642815Y-88749370D01*
X237427800Y-88425020D01*
X238028909Y-87824959D01*
X238250705Y-87290815D01*
X243228630Y-87290815D01*
X243552980Y-88075800D01*
X244153041Y-88676909D01*
X244937459Y-89002628D01*
X245786815Y-89003370D01*
X246571800Y-88679020D01*
X247172909Y-88078959D01*
X247498628Y-87294541D01*
X247498631Y-87290815D01*
X250340630Y-87290815D01*
X250664980Y-88075800D01*
X251265041Y-88676909D01*
X252049459Y-89002628D01*
X252898815Y-89003370D01*
X253683800Y-88679020D01*
X254284909Y-88078959D01*
X254610628Y-87294541D01*
X254611370Y-86445185D01*
X254287020Y-85660200D01*
X253686959Y-85059091D01*
X252902541Y-84733372D01*
X252053185Y-84732630D01*
X251268200Y-85056980D01*
X250667091Y-85657041D01*
X250341372Y-86441459D01*
X250340630Y-87290815D01*
X247498631Y-87290815D01*
X247499370Y-86445185D01*
X247175020Y-85660200D01*
X246574959Y-85059091D01*
X245790541Y-84733372D01*
X244941185Y-84732630D01*
X244156200Y-85056980D01*
X243555091Y-85657041D01*
X243229372Y-86441459D01*
X243228630Y-87290815D01*
X238250705Y-87290815D01*
X238354628Y-87040541D01*
X238355370Y-86191185D01*
X238031020Y-85406200D01*
X237430959Y-84805091D01*
X236646541Y-84479372D01*
X235797185Y-84478630D01*
X235012200Y-84802980D01*
X234411091Y-85403041D01*
X234085372Y-86187459D01*
X234084630Y-87036815D01*
X231496631Y-87036815D01*
X231497370Y-86191185D01*
X231173020Y-85406200D01*
X230572959Y-84805091D01*
X229788541Y-84479372D01*
X228939185Y-84478630D01*
X228154200Y-84802980D01*
X227553091Y-85403041D01*
X227227372Y-86187459D01*
X227226630Y-87036815D01*
X222606853Y-87036815D01*
X222607370Y-86445185D01*
X222283020Y-85660200D01*
X221682959Y-85059091D01*
X220898541Y-84733372D01*
X220049185Y-84732630D01*
X219264200Y-85056980D01*
X218663091Y-85657041D01*
X218337372Y-86441459D01*
X218336630Y-87290815D01*
X216002631Y-87290815D01*
X216003370Y-86445185D01*
X215679020Y-85660200D01*
X215078959Y-85059091D01*
X214294541Y-84733372D01*
X213445185Y-84732630D01*
X212660200Y-85056980D01*
X212059091Y-85657041D01*
X211733372Y-86441459D01*
X211732630Y-87290815D01*
X12902000Y-87290815D01*
X12902000Y-78654815D01*
X166520630Y-78654815D01*
X166844980Y-79439800D01*
X167445041Y-80040909D01*
X168229459Y-80366628D01*
X169078815Y-80367370D01*
X169863800Y-80043020D01*
X170464909Y-79442959D01*
X170790628Y-78658541D01*
X170790631Y-78654815D01*
X173378630Y-78654815D01*
X173702980Y-79439800D01*
X174303041Y-80040909D01*
X175087459Y-80366628D01*
X175936815Y-80367370D01*
X176721800Y-80043020D01*
X177322909Y-79442959D01*
X177648628Y-78658541D01*
X177648631Y-78654815D01*
X183792630Y-78654815D01*
X184116980Y-79439800D01*
X184717041Y-80040909D01*
X185501459Y-80366628D01*
X186350815Y-80367370D01*
X187135800Y-80043020D01*
X187736909Y-79442959D01*
X188062628Y-78658541D01*
X188062631Y-78654815D01*
X190650630Y-78654815D01*
X190974980Y-79439800D01*
X191575041Y-80040909D01*
X192359459Y-80366628D01*
X193208815Y-80367370D01*
X193993800Y-80043020D01*
X194594909Y-79442959D01*
X194920628Y-78658541D01*
X194921370Y-77809185D01*
X194597020Y-77024200D01*
X193996959Y-76423091D01*
X193212541Y-76097372D01*
X192363185Y-76096630D01*
X191578200Y-76420980D01*
X190977091Y-77021041D01*
X190651372Y-77805459D01*
X190650630Y-78654815D01*
X188062631Y-78654815D01*
X188063370Y-77809185D01*
X187739020Y-77024200D01*
X187138959Y-76423091D01*
X186354541Y-76097372D01*
X185505185Y-76096630D01*
X184720200Y-76420980D01*
X184119091Y-77021041D01*
X183793372Y-77805459D01*
X183792630Y-78654815D01*
X177648631Y-78654815D01*
X177649370Y-77809185D01*
X177325020Y-77024200D01*
X176724959Y-76423091D01*
X175940541Y-76097372D01*
X175091185Y-76096630D01*
X174306200Y-76420980D01*
X173705091Y-77021041D01*
X173379372Y-77805459D01*
X173378630Y-78654815D01*
X170790631Y-78654815D01*
X170791370Y-77809185D01*
X170467020Y-77024200D01*
X169866959Y-76423091D01*
X169082541Y-76097372D01*
X168233185Y-76096630D01*
X167448200Y-76420980D01*
X166847091Y-77021041D01*
X166521372Y-77805459D01*
X166520630Y-78654815D01*
X12902000Y-78654815D01*
X12902000Y-73914000D01*
X170827000Y-73914000D01*
X170932427Y-74444016D01*
X171232657Y-74893343D01*
X171681984Y-75193573D01*
X172212000Y-75299000D01*
X172742016Y-75193573D01*
X173191343Y-74893343D01*
X173445343Y-74639343D01*
X173745573Y-74190016D01*
X173851000Y-73660000D01*
X173745573Y-73129984D01*
X173445343Y-72680657D01*
X172996016Y-72380427D01*
X172466000Y-72275000D01*
X171935984Y-72380427D01*
X171486657Y-72680657D01*
X171232657Y-72934657D01*
X170932427Y-73383984D01*
X170827000Y-73914000D01*
X12902000Y-73914000D01*
X12902000Y-39538815D01*
X14120630Y-39538815D01*
X14444980Y-40323800D01*
X15045041Y-40924909D01*
X15829459Y-41250628D01*
X16678815Y-41251370D01*
X17463800Y-40927020D01*
X18064909Y-40326959D01*
X18286705Y-39792815D01*
X258722630Y-39792815D01*
X259046980Y-40577800D01*
X259647041Y-41178909D01*
X260431459Y-41504628D01*
X261280815Y-41505370D01*
X262065800Y-41181020D01*
X262666909Y-40580959D01*
X262992628Y-39796541D01*
X262993370Y-38947185D01*
X262669020Y-38162200D01*
X262068959Y-37561091D01*
X261284541Y-37235372D01*
X260435185Y-37234630D01*
X259650200Y-37558980D01*
X259049091Y-38159041D01*
X258723372Y-38943459D01*
X258722630Y-39792815D01*
X18286705Y-39792815D01*
X18390628Y-39542541D01*
X18391370Y-38693185D01*
X18067020Y-37908200D01*
X17466959Y-37307091D01*
X16682541Y-36981372D01*
X15833185Y-36980630D01*
X15048200Y-37304980D01*
X14447091Y-37905041D01*
X14121372Y-38689459D01*
X14120630Y-39538815D01*
X12902000Y-39538815D01*
X12902000Y-33411970D01*
X17487635Y-33411970D01*
X17647418Y-33730739D01*
X18438187Y-34040723D01*
X19287387Y-34024497D01*
X19996582Y-33730739D01*
X20156365Y-33411970D01*
X21287635Y-33411970D01*
X21447418Y-33730739D01*
X22238187Y-34040723D01*
X23087387Y-34024497D01*
X23796582Y-33730739D01*
X23956365Y-33411970D01*
X22622000Y-32077605D01*
X21287635Y-33411970D01*
X20156365Y-33411970D01*
X18822000Y-32077605D01*
X17487635Y-33411970D01*
X12902000Y-33411970D01*
X12902000Y-31514187D01*
X16679277Y-31514187D01*
X16695503Y-32363387D01*
X16989261Y-33072582D01*
X17308030Y-33232365D01*
X18642395Y-31898000D01*
X19001605Y-31898000D01*
X20335970Y-33232365D01*
X20654739Y-33072582D01*
X20720147Y-32905726D01*
X20789261Y-33072582D01*
X21108030Y-33232365D01*
X22442395Y-31898000D01*
X22801605Y-31898000D01*
X24135970Y-33232365D01*
X24454739Y-33072582D01*
X24479283Y-33009970D01*
X29399635Y-33009970D01*
X29559418Y-33328739D01*
X30350187Y-33638723D01*
X31199387Y-33622497D01*
X31908582Y-33328739D01*
X32068365Y-33009970D01*
X30734000Y-31675605D01*
X29399635Y-33009970D01*
X24479283Y-33009970D01*
X24764723Y-32281813D01*
X24748497Y-31432613D01*
X24615773Y-31112187D01*
X28591277Y-31112187D01*
X28607503Y-31961387D01*
X28901261Y-32670582D01*
X29220030Y-32830365D01*
X30554395Y-31496000D01*
X30913605Y-31496000D01*
X32247970Y-32830365D01*
X32566739Y-32670582D01*
X32876723Y-31879813D01*
X32860497Y-31030613D01*
X32566739Y-30321418D01*
X32247970Y-30161635D01*
X30913605Y-31496000D01*
X30554395Y-31496000D01*
X29220030Y-30161635D01*
X28901261Y-30321418D01*
X28591277Y-31112187D01*
X24615773Y-31112187D01*
X24454739Y-30723418D01*
X24135970Y-30563635D01*
X22801605Y-31898000D01*
X22442395Y-31898000D01*
X21108030Y-30563635D01*
X20789261Y-30723418D01*
X20723853Y-30890274D01*
X20654739Y-30723418D01*
X20335970Y-30563635D01*
X19001605Y-31898000D01*
X18642395Y-31898000D01*
X17308030Y-30563635D01*
X16989261Y-30723418D01*
X16679277Y-31514187D01*
X12902000Y-31514187D01*
X12902000Y-30384030D01*
X17487635Y-30384030D01*
X18822000Y-31718395D01*
X20156365Y-30384030D01*
X21287635Y-30384030D01*
X22622000Y-31718395D01*
X23956365Y-30384030D01*
X23796582Y-30065261D01*
X23005813Y-29755277D01*
X22156613Y-29771503D01*
X21447418Y-30065261D01*
X21287635Y-30384030D01*
X20156365Y-30384030D01*
X19996582Y-30065261D01*
X19205813Y-29755277D01*
X18356613Y-29771503D01*
X17647418Y-30065261D01*
X17487635Y-30384030D01*
X12902000Y-30384030D01*
X12902000Y-29009970D01*
X29399635Y-29009970D01*
X29559418Y-29328739D01*
X29974346Y-29491392D01*
X29559418Y-29663261D01*
X29399635Y-29982030D01*
X30734000Y-31316395D01*
X32068365Y-29982030D01*
X31908582Y-29663261D01*
X31493654Y-29500608D01*
X31908582Y-29328739D01*
X32068365Y-29009970D01*
X30734000Y-27675605D01*
X29399635Y-29009970D01*
X12902000Y-29009970D01*
X12902000Y-27112187D01*
X28591277Y-27112187D01*
X28607503Y-27961387D01*
X28901261Y-28670582D01*
X29220030Y-28830365D01*
X30554395Y-27496000D01*
X30913605Y-27496000D01*
X32247970Y-28830365D01*
X32566739Y-28670582D01*
X32876723Y-27879813D01*
X32860497Y-27030613D01*
X32566739Y-26321418D01*
X32247970Y-26161635D01*
X30913605Y-27496000D01*
X30554395Y-27496000D01*
X29220030Y-26161635D01*
X28901261Y-26321418D01*
X28591277Y-27112187D01*
X12902000Y-27112187D01*
X12902000Y-25009970D01*
X29399635Y-25009970D01*
X29559418Y-25328739D01*
X29974346Y-25491392D01*
X29559418Y-25663261D01*
X29399635Y-25982030D01*
X30734000Y-27316395D01*
X32068365Y-25982030D01*
X31908582Y-25663261D01*
X31493654Y-25500608D01*
X31908582Y-25328739D01*
X32068365Y-25009970D01*
X30734000Y-23675605D01*
X29399635Y-25009970D01*
X12902000Y-25009970D01*
X12902000Y-23112187D01*
X28591277Y-23112187D01*
X28607503Y-23961387D01*
X28901261Y-24670582D01*
X29220030Y-24830365D01*
X30554395Y-23496000D01*
X30913605Y-23496000D01*
X32247970Y-24830365D01*
X32566739Y-24670582D01*
X32876723Y-23879813D01*
X32860497Y-23030613D01*
X32566739Y-22321418D01*
X32247970Y-22161635D01*
X30913605Y-23496000D01*
X30554395Y-23496000D01*
X29220030Y-22161635D01*
X28901261Y-22321418D01*
X28591277Y-23112187D01*
X12902000Y-23112187D01*
X12902000Y-20711970D01*
X17487635Y-20711970D01*
X17647418Y-21030739D01*
X18438187Y-21340723D01*
X19287387Y-21324497D01*
X19996582Y-21030739D01*
X20156365Y-20711970D01*
X21287635Y-20711970D01*
X21447418Y-21030739D01*
X22238187Y-21340723D01*
X23087387Y-21324497D01*
X23796582Y-21030739D01*
X23806992Y-21009970D01*
X29399635Y-21009970D01*
X29559418Y-21328739D01*
X29974346Y-21491392D01*
X29559418Y-21663261D01*
X29399635Y-21982030D01*
X30734000Y-23316395D01*
X32068365Y-21982030D01*
X31908582Y-21663261D01*
X31493654Y-21500608D01*
X31908582Y-21328739D01*
X32068365Y-21009970D01*
X30734000Y-19675605D01*
X29399635Y-21009970D01*
X23806992Y-21009970D01*
X23956365Y-20711970D01*
X22622000Y-19377605D01*
X21287635Y-20711970D01*
X20156365Y-20711970D01*
X18822000Y-19377605D01*
X17487635Y-20711970D01*
X12902000Y-20711970D01*
X12902000Y-18814187D01*
X16679277Y-18814187D01*
X16695503Y-19663387D01*
X16989261Y-20372582D01*
X17308030Y-20532365D01*
X18642395Y-19198000D01*
X19001605Y-19198000D01*
X20335970Y-20532365D01*
X20654739Y-20372582D01*
X20720147Y-20205726D01*
X20789261Y-20372582D01*
X21108030Y-20532365D01*
X22442395Y-19198000D01*
X22801605Y-19198000D01*
X24135970Y-20532365D01*
X24454739Y-20372582D01*
X24764723Y-19581813D01*
X24755750Y-19112187D01*
X28591277Y-19112187D01*
X28607503Y-19961387D01*
X28901261Y-20670582D01*
X29220030Y-20830365D01*
X30554395Y-19496000D01*
X30913605Y-19496000D01*
X32247970Y-20830365D01*
X32541160Y-20683403D01*
X45068682Y-20683403D01*
X45347455Y-21358086D01*
X45863199Y-21874730D01*
X46537395Y-22154681D01*
X47267403Y-22155318D01*
X47942086Y-21876545D01*
X48458730Y-21360801D01*
X48654135Y-20890215D01*
X48847455Y-21358086D01*
X49363199Y-21874730D01*
X50037395Y-22154681D01*
X50767403Y-22155318D01*
X51442086Y-21876545D01*
X51958730Y-21360801D01*
X52154135Y-20890215D01*
X52347455Y-21358086D01*
X52863199Y-21874730D01*
X53537395Y-22154681D01*
X54267403Y-22155318D01*
X54942086Y-21876545D01*
X55458730Y-21360801D01*
X55556560Y-21125201D01*
X55556560Y-21520000D01*
X55600838Y-21755317D01*
X55739910Y-21971441D01*
X55952110Y-22116431D01*
X56204000Y-22167440D01*
X58604000Y-22167440D01*
X58839317Y-22123162D01*
X59055441Y-21984090D01*
X59200431Y-21771890D01*
X59251440Y-21520000D01*
X59251440Y-20429403D01*
X116188682Y-20429403D01*
X116467455Y-21104086D01*
X116983199Y-21620730D01*
X117657395Y-21900681D01*
X118387403Y-21901318D01*
X119062086Y-21622545D01*
X119578730Y-21106801D01*
X119774135Y-20636215D01*
X119967455Y-21104086D01*
X120483199Y-21620730D01*
X121157395Y-21900681D01*
X121887403Y-21901318D01*
X122562086Y-21622545D01*
X123078730Y-21106801D01*
X123274135Y-20636215D01*
X123467455Y-21104086D01*
X123983199Y-21620730D01*
X124657395Y-21900681D01*
X125387403Y-21901318D01*
X126062086Y-21622545D01*
X126578730Y-21106801D01*
X126676560Y-20871201D01*
X126676560Y-21266000D01*
X126720838Y-21501317D01*
X126859910Y-21717441D01*
X127072110Y-21862431D01*
X127324000Y-21913440D01*
X129724000Y-21913440D01*
X129959317Y-21869162D01*
X130175441Y-21730090D01*
X130320431Y-21517890D01*
X130371440Y-21266000D01*
X130371440Y-20429403D01*
X213724682Y-20429403D01*
X214003455Y-21104086D01*
X214519199Y-21620730D01*
X215193395Y-21900681D01*
X215923403Y-21901318D01*
X216598086Y-21622545D01*
X217114730Y-21106801D01*
X217310135Y-20636215D01*
X217503455Y-21104086D01*
X218019199Y-21620730D01*
X218693395Y-21900681D01*
X219423403Y-21901318D01*
X220098086Y-21622545D01*
X220614730Y-21106801D01*
X220810135Y-20636215D01*
X221003455Y-21104086D01*
X221519199Y-21620730D01*
X222193395Y-21900681D01*
X222923403Y-21901318D01*
X223598086Y-21622545D01*
X224114730Y-21106801D01*
X224212560Y-20871201D01*
X224212560Y-21266000D01*
X224256838Y-21501317D01*
X224395910Y-21717441D01*
X224608110Y-21862431D01*
X224860000Y-21913440D01*
X227260000Y-21913440D01*
X227495317Y-21869162D01*
X227711441Y-21730090D01*
X227856431Y-21517890D01*
X227907440Y-21266000D01*
X227907440Y-19980815D01*
X258722630Y-19980815D01*
X259046980Y-20765800D01*
X259647041Y-21366909D01*
X260431459Y-21692628D01*
X261280815Y-21693370D01*
X262065800Y-21369020D01*
X262666909Y-20768959D01*
X262992628Y-19984541D01*
X262993370Y-19135185D01*
X262669020Y-18350200D01*
X262068959Y-17749091D01*
X261284541Y-17423372D01*
X260435185Y-17422630D01*
X259650200Y-17746980D01*
X259049091Y-18347041D01*
X258723372Y-19131459D01*
X258722630Y-19980815D01*
X227907440Y-19980815D01*
X227907440Y-18866000D01*
X227863162Y-18630683D01*
X227724090Y-18414559D01*
X227511890Y-18269569D01*
X227260000Y-18218560D01*
X224860000Y-18218560D01*
X224624683Y-18262838D01*
X224408559Y-18401910D01*
X224263569Y-18614110D01*
X224212560Y-18866000D01*
X224212560Y-19260288D01*
X224116545Y-19027914D01*
X223600801Y-18511270D01*
X222926605Y-18231319D01*
X222196597Y-18230682D01*
X221521914Y-18509455D01*
X221005270Y-19025199D01*
X220809865Y-19495785D01*
X220616545Y-19027914D01*
X220100801Y-18511270D01*
X219426605Y-18231319D01*
X218696597Y-18230682D01*
X218021914Y-18509455D01*
X217505270Y-19025199D01*
X217309865Y-19495785D01*
X217116545Y-19027914D01*
X216600801Y-18511270D01*
X215926605Y-18231319D01*
X215196597Y-18230682D01*
X214521914Y-18509455D01*
X214005270Y-19025199D01*
X213725319Y-19699395D01*
X213724682Y-20429403D01*
X130371440Y-20429403D01*
X130371440Y-18866000D01*
X130327162Y-18630683D01*
X130188090Y-18414559D01*
X129975890Y-18269569D01*
X129724000Y-18218560D01*
X127324000Y-18218560D01*
X127088683Y-18262838D01*
X126872559Y-18401910D01*
X126727569Y-18614110D01*
X126676560Y-18866000D01*
X126676560Y-19260288D01*
X126580545Y-19027914D01*
X126064801Y-18511270D01*
X125390605Y-18231319D01*
X124660597Y-18230682D01*
X123985914Y-18509455D01*
X123469270Y-19025199D01*
X123273865Y-19495785D01*
X123080545Y-19027914D01*
X122564801Y-18511270D01*
X121890605Y-18231319D01*
X121160597Y-18230682D01*
X120485914Y-18509455D01*
X119969270Y-19025199D01*
X119773865Y-19495785D01*
X119580545Y-19027914D01*
X119064801Y-18511270D01*
X118390605Y-18231319D01*
X117660597Y-18230682D01*
X116985914Y-18509455D01*
X116469270Y-19025199D01*
X116189319Y-19699395D01*
X116188682Y-20429403D01*
X59251440Y-20429403D01*
X59251440Y-19120000D01*
X59207162Y-18884683D01*
X59068090Y-18668559D01*
X58855890Y-18523569D01*
X58604000Y-18472560D01*
X56204000Y-18472560D01*
X55968683Y-18516838D01*
X55752559Y-18655910D01*
X55607569Y-18868110D01*
X55556560Y-19120000D01*
X55556560Y-19514288D01*
X55460545Y-19281914D01*
X54944801Y-18765270D01*
X54270605Y-18485319D01*
X53540597Y-18484682D01*
X52865914Y-18763455D01*
X52349270Y-19279199D01*
X52153865Y-19749785D01*
X51960545Y-19281914D01*
X51444801Y-18765270D01*
X50770605Y-18485319D01*
X50040597Y-18484682D01*
X49365914Y-18763455D01*
X48849270Y-19279199D01*
X48653865Y-19749785D01*
X48460545Y-19281914D01*
X47944801Y-18765270D01*
X47270605Y-18485319D01*
X46540597Y-18484682D01*
X45865914Y-18763455D01*
X45349270Y-19279199D01*
X45069319Y-19953395D01*
X45068682Y-20683403D01*
X32541160Y-20683403D01*
X32566739Y-20670582D01*
X32876723Y-19879813D01*
X32860497Y-19030613D01*
X32566739Y-18321418D01*
X32247970Y-18161635D01*
X30913605Y-19496000D01*
X30554395Y-19496000D01*
X29220030Y-18161635D01*
X28901261Y-18321418D01*
X28591277Y-19112187D01*
X24755750Y-19112187D01*
X24748497Y-18732613D01*
X24454739Y-18023418D01*
X24372170Y-17982030D01*
X29399635Y-17982030D01*
X30734000Y-19316395D01*
X32068365Y-17982030D01*
X31908582Y-17663261D01*
X31117813Y-17353277D01*
X30268613Y-17369503D01*
X29559418Y-17663261D01*
X29399635Y-17982030D01*
X24372170Y-17982030D01*
X24135970Y-17863635D01*
X22801605Y-19198000D01*
X22442395Y-19198000D01*
X21108030Y-17863635D01*
X20789261Y-18023418D01*
X20723853Y-18190274D01*
X20654739Y-18023418D01*
X20335970Y-17863635D01*
X19001605Y-19198000D01*
X18642395Y-19198000D01*
X17308030Y-17863635D01*
X16989261Y-18023418D01*
X16679277Y-18814187D01*
X12902000Y-18814187D01*
X12902000Y-17684030D01*
X17487635Y-17684030D01*
X18822000Y-19018395D01*
X20156365Y-17684030D01*
X21287635Y-17684030D01*
X22622000Y-19018395D01*
X23956365Y-17684030D01*
X23796582Y-17365261D01*
X23005813Y-17055277D01*
X22156613Y-17071503D01*
X21447418Y-17365261D01*
X21287635Y-17684030D01*
X20156365Y-17684030D01*
X19996582Y-17365261D01*
X19205813Y-17055277D01*
X18356613Y-17071503D01*
X17647418Y-17365261D01*
X17487635Y-17684030D01*
X12902000Y-17684030D01*
X12902000Y-12902000D01*
X45658999Y-12902000D01*
X45611914Y-12921455D01*
M02*
