M48
INCH,TZ
T1C0.031
T2C0.040
T3C0.047
T4C0.051
T5C0.059
T6C0.079
%
G90
G05
T1
X56800Y-55625
X56800Y-56413
X56800Y-57200
X57800Y-55625
X57800Y-56413
X57800Y-57200
X64000Y-55725
X64000Y-56513
X64000Y-57300
X65000Y-55725
X65000Y-56513
X65000Y-57300
X70800Y-55625
X70800Y-56413
X70800Y-57200
X71800Y-55625
X71800Y-56413
X71800Y-57200
X82900Y-45725
X82900Y-46513
X82900Y-47300
X84000Y-45725
X84000Y-46513
X84000Y-47300
X89700Y-44825
X89700Y-45613
X89700Y-46400
X90800Y-44825
X90800Y-45613
X90800Y-46400
X96500Y-44825
X96500Y-45613
X96500Y-46400
X97500Y-44825
X97500Y-45613
X97500Y-46400
T2
X22000Y-46200
X22000Y-47500
X23000Y-46200
X23000Y-47500
X24000Y-46200
X24000Y-47500
X46600Y-46100
X46600Y-47500
X47600Y-46100
X47600Y-47500
X48600Y-46100
X48600Y-47500
X62800Y-40300
X62800Y-41600
X63800Y-40300
X63800Y-41600
X64800Y-40300
X64800Y-41600
X78200Y-40100
X78200Y-41300
X79200Y-40100
X79200Y-41300
X80200Y-40100
X80200Y-41300
T3
X18366Y-5700
X18466Y-8000
X19744Y-5700
X19844Y-8000
X21122Y-5700
X21222Y-8000
X22500Y-5700
X22600Y-8000
X46466Y-5600
X46466Y-7900
X47844Y-5600
X47844Y-7900
X49222Y-5600
X49222Y-7900
X50600Y-5600
X50600Y-7900
X84866Y-5700
X84866Y-7900
X86244Y-5700
X86244Y-7900
X87622Y-5700
X87622Y-7900
X89000Y-5700
X89000Y-7900
T4
X11800Y-42200
X11800Y-45000
X12600Y-38700
X12700Y-35800
X20658Y-42200
X20658Y-45000
X21458Y-38700
X21558Y-35800
X23242Y-38600
X23342Y-35800
X25442Y-42300
X25542Y-45000
X32100Y-38600
X32200Y-35800
X34300Y-42300
X34400Y-45000
X36100Y-42200
X36100Y-44900
X37800Y-36000
X37800Y-38700
X44958Y-42200
X44958Y-44900
X46658Y-36000
X46658Y-38700
X49242Y-36000
X49242Y-38700
X49942Y-42300
X49942Y-45000
X58100Y-36000
X58100Y-38700
X58800Y-42300
X58800Y-45000
X61100Y-45300
X61100Y-54158
X63800Y-45300
X63800Y-54158
X66400Y-30800
X66400Y-39658
X68000Y-45100
X68000Y-53958
X69100Y-30800
X69100Y-39658
X69542Y-62100
X69642Y-64800
X69692Y-69850
X69692Y-72550
X70700Y-45200
X70700Y-54058
X73200Y-30800
X73200Y-39658
X74200Y-45000
X74200Y-53858
X75900Y-30800
X75900Y-39658
X77000Y-45000
X77000Y-53858
X78400Y-62100
X78500Y-64800
X78550Y-69850
X78550Y-72550
X84200Y-34200
X84200Y-43058
X86800Y-34200
X86800Y-43058
X90300Y-34100
X90300Y-42958
X93000Y-34100
X93000Y-42958
X96600Y-34200
X96600Y-43058
X99400Y-34200
X99400Y-43058
T5
X7200Y-23600
X14200Y-6800
X15100Y-29200
X23500Y-29300
X29600Y-57200
X30900Y-28500
X33800Y-62200
X38100Y-28400
X43400Y-65600
X45000Y-28600
X49200Y-61500
X52900Y-28800
X59500Y-28900
X67500Y-27700
X78400Y-32900
X86200Y-58100
X90887Y-11987
X95800Y-67700
X103500Y-51800
T6
X7410Y-7558
X7410Y-12558
X8906Y-7558
X8906Y-12558
X12100Y-7676
X12100Y-9250
X12100Y-10825
X12100Y-12400
T0
M30
