M48
INCH,TZ
T1C0.106
T2C0.118
%
G90
G05
T1
X16229Y-42200
X17129Y-35800
X27771Y-35800
X29871Y-42300
X40529Y-42200
X42229Y-36000
X53671Y-36000
X54371Y-42300
X63800Y-49729
X69100Y-35229
X70700Y-49629
X73200Y-35229
X73971Y-62100
X74121Y-69850
X77000Y-49429
X86800Y-38629
X93000Y-38529
X99400Y-38629
T2
X6400Y-15400
X7000Y-71600
X102700Y-7700
X102700Y-15500
X102900Y-72000
T0
M30
